<svg width="483" height="483" viewBox="0 0 483 483" fill="none" xmlns="http://www.w3.org/2000/svg">
<mask id="mask0_10_439" style="mask-type:luminance" maskUnits="userSpaceOnUse" x="34" y="19" width="415" height="445">
<path d="M448.788 19.1188H34.2125V463.881H448.788V19.1188Z" fill="white"/>
</mask>
<g mask="url(#mask0_10_439)">
<path fill-rule="evenodd" clip-rule="evenodd" d="M257.34 236.735C257.253 243.122 258.869 249.417 262.023 254.972C262.095 255.099 262.17 255.224 262.245 255.349C262.276 255.401 262.307 255.453 262.337 255.505C262.992 256.455 263.485 257.27 263.914 257.979C265.024 259.815 265.708 260.946 267.668 261.902C270.384 263.227 273.546 263.442 276.523 262.955C279.5 262.467 283.5 260.831 286.233 259.549C284.849 263.275 283.583 267.037 282.433 270.838C281.365 274.361 280.409 278.248 281.868 281.63C282.078 282.113 282.33 282.576 282.622 283.013C284.976 286.531 289.68 288.075 293.906 289.225C296.746 289.995 299.728 290.765 302.632 290.721C303.974 290.719 305.306 290.502 306.579 290.078C311.003 288.563 313.921 284.441 316.479 280.524C323.129 270.331 329.424 259.837 334.062 248.582C338.701 237.327 341.663 225.245 341.439 213.073C341.307 205.879 339.948 198.423 335.709 192.596C334.19 190.516 332.344 188.695 330.243 187.204V187.199C324.835 183.321 317.882 181.484 311.11 181.699C310.32 181.718 309.531 181.772 308.752 181.855C298.676 182.887 289.394 187.93 281.423 194.181C272.191 201.411 264.191 210.605 260.103 221.591C258.295 226.436 257.36 231.564 257.34 236.735ZM329.89 191.933C329.588 191.665 329.126 191.692 328.858 191.993C328.589 192.295 328.616 192.757 328.917 193.025C333.819 197.387 336.256 204.071 336.802 210.741C337.35 217.42 336.199 224.125 335.03 230.849C334.961 231.247 335.227 231.625 335.625 231.694C336.022 231.764 336.4 231.497 336.47 231.099C337.633 224.406 338.824 217.518 338.259 210.622C337.693 203.718 335.161 196.625 329.89 191.933Z" fill="#171717"/>
<path fill-rule="evenodd" clip-rule="evenodd" d="M347.675 172.832C345.213 184.588 345.692 196.739 350.647 207.678C355.602 218.616 364.424 227.839 375.333 232.862C386.242 237.885 399.162 238.562 410.388 234.289L410.5 234.348C414.254 226.872 417.608 219.202 420.548 211.37C425.542 198.052 436.368 165.779 429.81 151.348C426.585 145.55 420.3 143.186 413.951 142.967C407.111 142.731 400.163 144.453 393.688 146.504C386.918 148.692 380.374 151.524 374.145 154.962C364.776 160.067 356.062 166.24 347.665 172.817L347.675 172.832ZM426.088 154.124C426.03 153.724 425.659 153.448 425.26 153.505C424.86 153.563 424.584 153.934 424.641 154.333C426.443 166.779 424.493 179.57 420.717 191.644C416.938 203.724 411.386 215.17 405.826 226.621C405.65 226.984 405.801 227.421 406.164 227.598C406.527 227.774 406.964 227.622 407.141 227.26C412.693 215.825 418.296 204.281 422.111 192.081C425.929 179.874 427.93 166.853 426.088 154.124Z" fill="url(#paint0_linear_10_439)"/>
<path fill-rule="evenodd" clip-rule="evenodd" d="M313.151 372.184C317.716 360.428 319.007 347.589 318.403 334.981C315.657 336.734 312.883 338.436 310.083 340.086C297.63 347.427 284.647 353.829 271.242 359.239C264.947 361.787 258.534 364.365 251.943 366.084C251.69 366.353 251.441 366.621 251.193 366.889C252.016 378.933 245.941 391.216 235.86 397.861C235.582 398.045 235.301 398.225 235.019 398.406C233.845 399.158 232.667 399.912 231.719 400.93C230.545 402.192 229.77 403.991 230.233 405.652C230.808 407.727 233.02 408.861 235.076 409.515C242.763 411.975 251.08 411.206 259.075 410.09C259.164 410.078 259.251 410.065 259.338 410.053C259.433 410.039 259.529 410.025 259.626 410.012C269.93 408.545 280.361 406.421 289.36 401.207C300.391 394.815 308.537 384.072 313.151 372.184ZM309.896 367.261C310.041 366.884 309.852 366.461 309.475 366.317C309.097 366.173 308.675 366.362 308.531 366.739C301.046 386.326 282.336 401.176 261.56 404.019C261.161 404.074 260.881 404.443 260.935 404.842C260.99 405.242 261.358 405.522 261.758 405.467C283.063 402.552 302.221 387.347 309.896 367.261Z" fill="url(#paint1_linear_10_439)"/>
<path fill-rule="evenodd" clip-rule="evenodd" d="M215.547 353.337C210.724 360.129 206.129 367.279 203.971 375.323C203.338 377.696 203.279 380.878 205.517 381.884C206.844 382.484 208.382 381.982 209.712 381.392C215.612 378.762 220.601 374.481 225.493 370.255C227.261 368.737 229.025 367.211 230.784 365.676C243.792 354.363 256.547 342.611 266.204 328.38C268.158 325.491 270.014 322.436 270.735 319.025C271.388 315.962 271.1 310.437 267.836 308.761C264.494 307.037 258.384 309.365 255.32 310.798C249.912 313.311 245.546 317.59 241.439 321.911C233.47 330.288 226.017 339.141 219.119 348.421C217.912 350.046 216.721 351.685 215.547 353.337ZM259.066 332.088C259.316 331.772 259.262 331.312 258.945 331.062C258.629 330.811 258.17 330.865 257.919 331.181C247.466 344.396 235.094 355.973 221.216 365.528C220.883 365.757 220.799 366.213 221.028 366.545C221.257 366.877 221.712 366.961 222.045 366.732C236.043 357.094 248.522 345.417 259.066 332.088Z" fill="url(#paint2_linear_10_439)"/>
<path d="M311.11 181.678C310.598 180.719 310.081 179.729 309.57 178.721L310.073 178.47C311.922 175.841 314.318 173.642 317.096 172.025C319.874 170.408 322.968 169.41 326.167 169.099C329.367 168.788 332.595 169.173 335.632 170.226C338.67 171.278 341.443 172.975 343.764 175.199L344.116 175.637C342.25 177.133 340.397 178.644 338.557 180.169C335.814 182.439 333.085 184.724 330.372 187.024L330.245 187.199C324.837 183.321 317.884 181.484 311.112 181.699L311.11 181.678Z" fill="#171717"/>
<path d="M256.543 162.274C255.101 161.72 254.575 159.921 254.263 158.372L254.268 158.299C255.467 158.338 256.649 158.013 257.659 157.368C259.009 156.603 260.412 156.126 260.792 154.761H260.831C261.12 155.591 261.487 156.392 261.927 157.154C262.145 157.536 262.284 157.958 262.335 158.395C262.387 158.832 262.351 159.274 262.229 159.697C262.045 160.133 261.745 160.51 261.362 160.788C260.97 161.077 260.553 161.332 260.116 161.548C259.048 162.113 257.831 162.693 256.681 162.328C256.633 162.315 256.587 162.297 256.543 162.274Z" fill="url(#paint3_linear_10_439)"/>
<path d="M260.157 148.861C260.358 150.484 261.121 152.856 260.853 154.474C260.838 154.571 260.816 154.667 260.79 154.761C260.41 156.126 259.007 156.603 257.657 157.368C256.647 158.013 255.465 158.338 254.266 158.299C254.055 158.279 253.847 158.24 253.643 158.182C252.41 157.821 251.509 156.793 250.681 155.814C250.159 155.255 249.724 154.621 249.39 153.933C249.223 153.588 249.135 153.212 249.13 152.83C249.124 152.447 249.203 152.068 249.36 151.719C249.757 151.112 250.314 150.627 250.97 150.317C252.821 149.23 254.67 148.145 256.514 147.062C257.284 146.609 258.225 146.146 259.03 146.541C259.835 146.936 260.045 147.969 260.157 148.861Z" fill="url(#paint4_linear_10_439)"/>
<path d="M247.309 84.9044C248.249 84.4953 249.39 84.2614 250.261 84.7972C251.421 85.5137 251.504 87.18 251.148 88.4901C249.96 92.895 245.794 95.6476 241.76 97.9036C241.491 98.0545 241.224 98.2005 240.955 98.3469L224.204 107.526C222.231 108.608 220.058 109.947 219.59 112.145C219.238 113.801 219.975 115.477 220.706 117.007C223.074 121.938 225.599 126.787 228.282 131.555L227.771 131.843C227.514 132.841 227.054 133.776 226.421 134.59C225.734 135.356 224.599 135.819 223.654 135.419C223.334 135.267 223.069 135.019 222.895 134.71C222.722 134.401 222.648 134.046 222.684 133.694C222.839 133.442 222.979 133.182 223.103 132.915C222.867 133.109 222.716 133.389 222.684 133.694C222.1 134.65 221.275 135.482 220.253 135.239C219.88 135.112 219.549 134.884 219.299 134.579C219.05 134.274 218.89 133.905 218.84 133.514C218.753 132.73 218.757 131.939 218.854 131.156C219.056 127.219 217.115 123.531 215.395 119.984C213.676 116.437 212.075 112.481 212.993 108.646C213.787 105.314 216.385 102.673 219.283 100.851C222.181 99.0286 225.441 97.8694 228.515 96.354C230.167 95.5404 231.994 94.2202 231.848 92.3879C231.687 90.4005 229.202 88.9827 229.543 87.019C229.86 85.2078 232.534 84.7585 234.006 85.8694C235.478 86.9803 235.999 88.9193 236.437 90.7119C237.242 89.6644 237.187 88.2225 237.393 86.9169C237.599 85.6113 238.406 84.1346 239.727 84.1301C241.028 84.12 241.866 85.567 241.978 86.863C242.09 88.1591 241.783 89.4939 242.119 90.7512C242.516 89.4622 243.185 88.2733 244.08 87.265C244.976 86.2563 246.076 85.4513 247.309 84.9044Z" fill="#171717"/>
<path d="M239.002 128.311C238.686 128.869 238.49 129.487 238.427 130.126C238.364 130.764 238.435 131.409 238.636 132.018C238.837 132.627 239.163 133.188 239.594 133.664C240.024 134.139 240.55 134.52 241.136 134.781L241.155 134.824C240.059 135.369 238.831 135.59 237.613 135.463C235.085 135.161 232.814 132.954 232.775 130.406C232.756 129.119 233.462 127.682 234.729 127.434C235.523 127.278 236.317 127.619 237.102 127.818C237.719 127.974 238.356 128.038 238.992 128.009L239.002 128.311Z" fill="#171717"/>
<path d="M187.303 345.53C184.361 338.383 185.028 330.261 186.69 322.709C187.503 319.006 188.559 315.36 189.852 311.796C192.74 303.644 197.068 296.078 202.631 289.457C210.7 280.019 221.735 272.94 233.92 270.557C240.2 269.33 246.958 269.4 252.707 272.19C252.366 272.813 252.025 273.447 251.684 274.08C242.072 292 231.669 308.741 223.304 327.118L222.437 326.719C216.451 327.678 210.738 329.893 205.671 333.221C200.605 336.548 196.301 340.911 193.043 346.022C192.405 347.035 191.64 348.195 190.446 348.322C188.946 348.478 187.878 346.924 187.303 345.53Z" fill="url(#paint5_linear_10_439)"/>
<path d="M249.896 221.471C248.97 222.645 248.037 223.809 247.095 224.964C238.856 235.079 230.142 244.779 220.955 254.066L220.917 254.07C215.699 254.939 210.434 255.492 205.15 255.727C205.876 250.431 206.604 245.137 207.333 239.844L207.685 239.659C217.926 232.034 227.357 223.805 235.763 214.197C238.491 211.083 241.118 207.853 243.539 204.491C246.805 200.038 249.611 195.265 251.915 190.245C255.839 181.509 257.868 171.755 256.543 162.271C256.588 162.295 256.636 162.313 256.685 162.325C257.835 162.691 259.053 162.111 260.12 161.546C260.555 161.33 260.971 161.075 261.362 160.786H261.781C268.661 170.408 269.041 183.544 265.396 194.797C262.208 204.638 256.312 213.315 249.896 221.471Z" fill="url(#paint6_linear_10_439)"/>
<path d="M148.858 213.602C150.088 221.765 148.282 230.097 143.781 237.018L143.698 236.964C143.469 237.203 143.24 237.437 143.011 237.676C138.134 233.573 130.29 233.583 125.423 237.69C123.907 238.967 122.684 240.57 121.115 241.783C119.547 242.996 117.461 243.814 115.585 243.166C114.884 242.883 114.248 242.457 113.72 241.915C113.192 241.373 112.782 240.728 112.516 240.019C111.994 238.6 111.671 237.117 111.557 235.61L110.494 235.462C111.887 235.169 113.197 234.569 114.329 233.707C115.461 232.845 116.387 231.741 117.041 230.478C117.695 229.214 118.059 227.82 118.108 226.398C118.157 224.975 117.89 223.56 117.325 222.254H116.954C113.924 218.025 105.617 222.883 102.703 228.241L102.012 227.749C100.472 226.04 99.3274 224.013 98.6588 221.812C97.9906 219.611 97.8145 217.29 98.1431 215.013C98.3494 213.287 99.0125 211.648 100.063 210.263C100.594 209.576 101.274 209.019 102.052 208.635C102.831 208.25 103.687 208.049 104.555 208.046C108.087 208.178 110.362 212.104 113.802 212.933C114.154 213.051 114.529 213.083 114.896 213.028C115.263 212.972 115.612 212.829 115.912 212.611C116.643 211.953 116.516 210.804 116.399 209.824C116.102 207.366 116.234 204.876 116.789 202.463C116.998 201.546 117.339 200.558 118.168 200.114C119.708 199.286 121.378 200.933 122.363 202.378C125.345 206.787 128.328 211.197 131.313 215.606C131.841 216.518 132.555 217.31 133.408 217.93C134.3 218.484 135.551 218.612 136.355 217.935C137.481 216.995 137.164 215.211 137.651 213.828C138.343 211.859 140.716 210.904 142.791 211.148C144.867 211.391 146.709 212.537 148.473 213.653L148.858 213.602Z" fill="url(#paint7_linear_10_439)"/>
<path d="M97.8608 199.098C95.5218 200.813 97.5393 205.178 95.3855 207.117C93.8459 208.506 90.958 207.8 89.8008 209.519C88.953 210.781 89.6498 212.496 89.3329 213.982C88.9238 215.868 86.8726 217.027 84.9431 217.071C83.072 217.122 81.299 216.36 79.5838 215.595C79.4973 212.11 79.9556 208.633 80.9422 205.29C83.3391 197.276 89.3857 190.518 96.8913 186.825C100.793 184.93 105.019 183.789 109.345 183.464L109.374 183.873C110.119 186.952 110.87 190.162 110.173 193.252C109.476 196.341 106.852 199.245 103.682 199.138C101.69 199.073 99.4678 197.914 97.8608 199.098Z" fill="url(#paint8_linear_10_439)"/>
<path d="M222.683 133.694C222.647 134.046 222.721 134.401 222.894 134.71C223.068 135.019 223.333 135.267 223.653 135.419C224.598 135.819 225.733 135.356 226.42 134.59C227.053 133.776 227.512 132.841 227.77 131.843" stroke="#171717" stroke-width="2.905" stroke-linecap="round" stroke-linejoin="round"/>
<path d="M222.683 133.694C222.838 133.442 222.977 133.182 223.102 132.915C222.865 133.109 222.714 133.389 222.683 133.694Z" stroke="#171717" stroke-width="2.905" stroke-linecap="round" stroke-linejoin="round"/>
<path d="M239.572 149.777C239.543 149.733 239.509 149.685 239.479 149.64C235.494 143.775 231.762 137.746 228.283 131.555C225.603 126.791 223.078 121.941 220.707 117.007C219.976 115.477 219.24 113.801 219.591 112.145C220.059 109.947 222.232 108.608 224.205 107.526L240.956 98.3469C241.224 98.2005 241.491 98.0545 241.761 97.9036C245.795 95.6476 249.962 92.895 251.149 88.4901C251.505 87.182 251.422 85.5137 250.262 84.7972C249.391 84.2614 248.25 84.4953 247.31 84.9044C246.078 85.4513 244.977 86.2563 244.082 87.265C243.186 88.2738 242.518 89.4622 242.121 90.7512C241.785 89.4934 242.097 88.1591 241.98 86.863C241.863 85.567 241.03 84.12 239.729 84.1301C238.408 84.1346 237.605 85.6108 237.395 86.9169C237.185 88.223 237.244 89.6644 236.439 90.7119C236.001 88.9193 235.475 86.9848 234.008 85.8694C232.541 84.7539 229.862 85.2067 229.545 87.019C229.204 88.9812 231.689 90.4005 231.85 92.3879C231.996 94.2202 230.169 95.5404 228.517 96.354C225.443 97.8694 222.183 99.0286 219.285 100.851C216.386 102.673 213.788 105.314 212.995 108.646C212.079 112.481 213.673 116.437 215.397 119.984C217.122 123.53 219.056 127.219 218.856 131.156C218.759 131.939 218.755 132.73 218.842 133.514C218.892 133.905 219.052 134.274 219.301 134.579C219.551 134.884 219.882 135.112 220.255 135.239C221.278 135.482 222.102 134.649 222.686 133.694" stroke="#171717" stroke-width="2.905" stroke-linecap="round" stroke-linejoin="round"/>
<path d="M239.674 123.253C240.795 123.354 241.667 122.128 241.633 121.007C241.599 119.887 240.951 118.888 240.322 117.957C238.1 114.669 235.879 111.381 233.657 108.096C235.772 106.2 238.292 104.812 241.024 104.037" stroke="#171717" stroke-width="2.905" stroke-linecap="round" stroke-linejoin="round"/>
<path d="M241.876 111.438C241.589 110.511 240.982 109.716 240.166 109.192" stroke="#171717" stroke-width="2.905" stroke-linecap="round" stroke-linejoin="round"/>
<path d="M231.25 116.574C230.739 115.828 230.225 115.081 229.711 114.333" stroke="#171717" stroke-width="2.905" stroke-linecap="round" stroke-linejoin="round"/>
<path d="M243.694 125.962C242.443 127.217 240.762 127.948 238.992 128.009C238.356 128.038 237.719 127.974 237.102 127.818C236.317 127.617 235.523 127.278 234.729 127.434C233.462 127.682 232.756 129.119 232.775 130.406C232.814 132.954 235.085 135.161 237.613 135.463C238.831 135.59 240.059 135.369 241.155 134.824C242.354 134.243 243.382 133.36 244.137 132.262" stroke="#171717" stroke-width="2.905" stroke-linecap="round" stroke-linejoin="round"/>
<path d="M241.136 134.781C240.549 134.52 240.024 134.139 239.594 133.664C239.163 133.188 238.837 132.627 238.636 132.018C238.435 131.409 238.364 130.764 238.427 130.125C238.49 129.487 238.686 128.869 239.002 128.31" stroke="#171717" stroke-width="2.905" stroke-linecap="round" stroke-linejoin="round"/>
<path d="M255.762 141.899C254.237 139.999 252.687 138.054 251.835 135.774C250.983 133.494 250.934 130.766 252.308 128.754C253.136 127.55 254.437 126.62 254.817 125.212C255.197 123.803 254.539 122.337 253.896 121.027C250.14 113.377 246.383 105.73 242.626 98.0842" stroke="#171717" stroke-width="2.905" stroke-linecap="round" stroke-linejoin="round"/>
<path d="M236.663 157.753C234.773 157.329 234.188 154.674 235.133 152.983C236.039 151.361 237.793 150.444 239.479 149.64L239.699 149.54C245.059 147.01 250.422 144.481 255.789 141.952C256.271 141.723 256.749 141.499 257.231 141.27C258.8 140.53 260.476 139.77 262.201 139.984C263.925 140.198 265.592 141.801 265.187 143.492C265.226 143.409 265.261 143.326 265.299 143.248C265.406 143.019 265.514 142.79 265.616 142.561" stroke="#171717" stroke-width="2.905" stroke-linecap="round" stroke-linejoin="round"/>
<path d="M265.404 143.297C280.215 139.58 291.192 125.645 293.818 110.6C296.445 95.5546 291.66 79.8863 283.222 67.1602C281.896 65.1578 280.464 63.1855 279.689 60.9094C278.914 58.6332 278.9 55.9591 280.293 54.0055C280.625 53.5507 281.012 53.1396 281.448 52.7824C282.442 52.0187 283.521 51.3711 284.663 50.8529C288.2 49.0943 291.734 47.3356 295.265 45.5767C297.082 44.671 298.9 43.7664 300.717 42.8628C302.183 42.1318 303.806 41.3766 305.404 41.7519C307.528 42.249 308.692 44.4753 309.56 46.4777C317.861 65.6695 323.767 86.3252 322.919 107.214C322.13 126.63 314.929 146.307 300.975 159.682C299.913 160.696 298.811 161.68 297.672 162.62" stroke="#171717" stroke-width="2.905" stroke-linecap="round" stroke-linejoin="round"/>
<path d="M301.093 159.804C303.436 165.879 306.486 172.684 309.57 178.722C310.081 179.728 310.598 180.719 311.11 181.679" stroke="#171717" stroke-width="2.905" stroke-linecap="round" stroke-linejoin="round"/>
<path d="M278.544 20.5145C281.579 18.502 290.798 33.6788 295.115 45.2682" stroke="#171717" stroke-width="2.905" stroke-linecap="round" stroke-linejoin="round"/>
<path d="M271.66 25.44C275.416 23.4275 282.135 34.3997 285.433 38.0881C282.53 32.4118 276.467 22.1375 278.544 20.5144" stroke="#171717" stroke-width="2.905" stroke-linecap="round" stroke-linejoin="round"/>
<path d="M265.65 30.4391C267.411 29.1813 276.828 36.9641 281.063 41.5471C277.167 36.6609 269.172 26.9172 271.66 25.4401" stroke="#171717" stroke-width="2.905" stroke-linecap="round" stroke-linejoin="round"/>
<path d="M281.526 52.1978C281.472 52.2073 281.414 52.2174 281.36 52.2219C276.342 53.0551 267.338 50.4439 267.786 47.4232C267.662 46.036 275.498 46.3398 279.246 47.399C274.064 43.3599 262.671 34.1512 265.282 30.6777C265.321 30.6273 265.36 30.5801 265.404 30.5312" stroke="#171717" stroke-width="2.905" stroke-linecap="round" stroke-linejoin="round"/>
<path d="M151.381 120.369C153.53 116.476 156.278 112.325 157.368 108.013C157.637 106.936 157.602 105.392 156.513 105.182C155.748 105.031 155.11 105.728 154.642 106.347L146.661 112.952C145.312 104.508 144.725 88.9973 140.447 90.0886C136.85 90.5625 140.906 106.347 140.906 113.65C139.668 109.48 137.314 105.022 135.341 101.149C133.367 97.2757 130.197 90.4589 127.999 91.7011C124.775 93.5234 132.326 108.189 136.52 115.672C132.64 109.745 127.924 104.411 122.518 99.8326C121.695 99.1363 120.574 98.4239 119.624 98.927C118.874 99.322 118.645 100.34 118.883 101.149C119.185 101.942 119.657 102.659 120.267 103.249C126.584 110.372 131.992 118.252 136.367 126.708" stroke="#171717" stroke-width="2.905" stroke-linecap="round" stroke-linejoin="round"/>
<path d="M236.951 157.967C236.912 157.991 236.868 158.017 236.829 158.036C225.443 164.777 213.038 171.512 199.849 170.523C189.485 169.743 179.834 164.047 173.096 156.133C166.358 148.219 162.353 138.243 160.385 128.036C159.722 124.581 158.553 120.303 155.084 119.704C153.812 119.561 152.525 119.791 151.381 120.367V120.372C150.972 120.547 150.568 120.742 150.174 120.932C145.696 123.1 141.216 125.271 136.732 127.446C135.748 127.919 134.77 128.396 133.784 128.873C137.151 141.064 140.532 153.298 145.516 164.922C150.252 175.958 156.678 186.676 166.369 193.765C177.214 201.693 191.358 204.324 204.693 202.706C216.635 201.259 227.992 196.626 238.389 190.526C239.603 189.814 240.801 189.083 241.985 188.333" stroke="#171717" stroke-width="2.905" stroke-linecap="round" stroke-linejoin="round"/>
<path d="M249.886 221.447C249.891 221.456 249.891 221.461 249.896 221.471C251.959 226.351 254.685 231.951 256.951 236.73" stroke="#171717" stroke-width="2.905" stroke-linecap="round" stroke-linejoin="round"/>
<path d="M238.5 190.718C240.015 195.459 241.633 199.678 243.343 204.352" stroke="#171717" stroke-width="2.905" stroke-linecap="round" stroke-linejoin="round"/>
<path d="M260.79 154.761C260.816 154.667 260.838 154.571 260.853 154.474C261.121 152.856 260.357 150.484 260.157 148.861C260.045 147.97 259.835 146.937 259.026 146.542C258.217 146.148 257.282 146.61 256.511 147.063C254.666 148.149 252.818 149.234 250.966 150.318C250.311 150.628 249.753 151.114 249.356 151.721C249.2 152.07 249.121 152.448 249.126 152.831C249.131 153.213 249.22 153.59 249.386 153.935C249.721 154.622 250.156 155.256 250.677 155.815C251.505 156.794 252.407 157.823 253.639 158.183C253.843 158.241 254.052 158.28 254.263 158.3C255.461 158.34 256.644 158.015 257.654 157.37C259.009 156.603 260.41 156.126 260.79 154.761Z" stroke="#171717" stroke-width="2.905" stroke-linecap="round" stroke-linejoin="round"/>
<path d="M254.261 158.372C254.573 159.921 255.099 161.719 256.541 162.274C256.587 162.297 256.634 162.315 256.683 162.328C257.833 162.693 259.051 162.113 260.118 161.548C260.553 161.332 260.969 161.077 261.36 160.788C261.743 160.51 262.043 160.133 262.227 159.697C262.35 159.274 262.385 158.832 262.333 158.395C262.282 157.958 262.143 157.536 261.925 157.154C261.485 156.392 261.118 155.591 260.829 154.761" stroke="#171717" stroke-width="2.905" stroke-linecap="round" stroke-linejoin="round"/>
<path d="M256.508 162.016C256.522 162.104 256.532 162.186 256.541 162.274C257.867 171.755 255.84 181.509 251.913 190.248C249.61 195.267 246.803 200.041 243.537 204.494C241.116 207.856 238.49 211.085 235.761 214.199C227.359 223.809 217.925 232.036 207.683 239.661" stroke="#171717" stroke-width="2.905" stroke-linecap="round" stroke-linejoin="round"/>
<path d="M261.779 160.788C268.659 170.41 269.039 183.546 265.394 194.799C262.208 204.637 256.312 213.314 249.898 221.47C248.972 222.643 248.039 223.808 247.097 224.963C238.858 235.078 230.144 244.778 220.957 254.065" stroke="#171717" stroke-width="2.905" stroke-linecap="round" stroke-linejoin="round"/>
<path d="M207.333 239.844C206.607 245.14 205.879 250.434 205.15 255.727C210.434 255.492 215.699 254.939 220.917 254.07" stroke="#171717" stroke-width="2.905" stroke-linecap="round" stroke-linejoin="round"/>
<path d="M108.243 248.268C108.264 248.278 108.285 248.286 108.307 248.292C119.332 252.779 132.926 249.378 140.974 240.603C142.002 239.483 142.94 238.285 143.781 237.018C148.282 230.097 150.088 221.765 148.858 213.602C148.529 211.404 147.979 209.244 147.215 207.156C143.09 195.96 132.95 187.346 121.374 184.462C117.446 183.483 113.385 183.146 109.349 183.463C105.023 183.789 100.798 184.929 96.8958 186.825C89.3882 190.518 83.3416 197.276 80.9468 205.29C79.9606 208.633 79.5023 212.11 79.5883 215.595C79.85 223.409 82.3661 230.981 86.8333 237.398V237.402" stroke="#171717" stroke-width="2.905" stroke-linecap="round" stroke-linejoin="round"/>
<path d="M262.339 255.502C262.232 255.327 262.125 255.15 262.023 254.972C258.869 249.417 257.253 243.122 257.34 236.735C257.36 231.564 258.295 226.436 260.103 221.591C264.191 210.605 272.191 201.411 281.423 194.181C289.394 187.93 298.676 182.887 308.752 181.855C309.531 181.772 310.32 181.718 311.11 181.699C317.882 181.484 324.835 183.321 330.243 187.199V187.204C332.344 188.695 334.19 190.516 335.709 192.596C339.948 198.423 341.307 205.879 341.439 213.073C341.663 225.245 338.701 237.327 334.062 248.582C329.424 259.837 323.129 270.331 316.479 280.524C313.921 284.441 311.003 288.563 306.579 290.078C305.306 290.502 303.974 290.719 302.632 290.721C299.728 290.765 296.746 289.995 293.906 289.225C289.68 288.075 284.976 286.531 282.622 283.013C282.33 282.576 282.078 282.113 281.868 281.63C280.409 278.248 281.365 274.361 282.433 270.838C283.583 267.037 284.849 263.275 286.233 259.549C290.75 247.352 296.471 235.635 303.31 224.572" stroke="#171717" stroke-width="2.905" stroke-linecap="round" stroke-linejoin="round"/>
<path d="M262.339 255.502C264.688 258.913 264.961 260.574 267.67 261.9C270.378 263.225 273.541 263.435 276.525 262.952C279.509 262.47 283.502 260.828 286.235 259.547" stroke="#171717" stroke-width="2.905" stroke-linecap="round" stroke-linejoin="round"/>
<path d="M310.072 178.469C311.921 175.84 314.317 173.642 317.095 172.025C319.873 170.407 322.967 169.409 326.166 169.099C329.366 168.788 332.594 169.172 335.631 170.225C338.669 171.278 341.442 172.974 343.763 175.199" stroke="#171717" stroke-width="2.905" stroke-linecap="round" stroke-linejoin="round"/>
<path d="M429.81 151.346C426.585 145.548 420.301 143.185 413.951 142.966C407.109 142.727 400.165 144.452 393.688 146.503C386.918 148.691 380.374 151.523 374.145 154.963C364.776 160.069 356.06 166.242 347.665 172.819C346.476 173.75 345.293 174.69 344.113 175.64C342.248 177.136 340.395 178.646 338.554 180.171C335.811 182.442 333.083 184.726 330.369 187.026" stroke="#171717" stroke-width="2.905" stroke-linecap="round" stroke-linejoin="round"/>
<path d="M231.007 365.935C237.311 368.717 244.546 367.942 251.046 366.32C251.348 366.247 251.645 366.169 251.942 366.086C258.533 364.366 264.946 361.789 271.241 359.24C284.646 353.831 297.629 347.429 310.082 340.088C312.883 338.437 315.657 336.735 318.404 334.982C327.795 329.002 336.816 322.459 345.415 315.386C350.916 310.855 356.228 306.106 361.352 301.14C366.593 296.063 371.612 290.763 376.406 285.237C381.717 279.108 386.721 272.731 391.418 266.104C395.057 260.972 398.497 255.706 401.737 250.306C404.86 245.098 407.782 239.779 410.502 234.35C414.255 226.874 417.608 219.205 420.548 211.373C425.542 198.052 436.368 165.779 429.81 151.35" stroke="#171717" stroke-width="2.905" stroke-linecap="round" stroke-linejoin="round"/>
<path d="M261.643 255.103C258.822 261.218 255.777 266.563 252.707 272.19C252.366 272.814 252.025 273.447 251.684 274.08C242.072 292 231.669 308.741 223.304 327.118C222.339 329.228 221.405 331.362 220.502 333.521C218.553 338.392 219.043 343.265 219.085 348.395" stroke="#171717" stroke-width="2.905" stroke-linecap="round" stroke-linejoin="round"/>
<path d="M252.81 272.241C252.776 272.226 252.741 272.207 252.709 272.191C246.96 269.404 240.202 269.331 233.922 270.559C221.737 272.941 210.702 280.02 202.633 289.458C197.07 296.079 192.742 303.646 189.854 311.797C188.561 315.361 187.505 319.007 186.692 322.71C185.031 330.262 184.363 338.384 187.305 345.531C187.88 346.925 188.948 348.479 190.448 348.323C191.642 348.196 192.407 347.037 193.045 346.023C196.303 340.912 200.607 336.549 205.673 333.222C210.74 329.895 216.454 327.679 222.439 326.72" stroke="#171717" stroke-width="2.905" stroke-linecap="round" stroke-linejoin="round"/>
<path d="M318.384 334.583C318.389 334.714 318.398 334.85 318.403 334.982C319.007 347.591 317.716 360.429 313.151 372.186C308.537 384.074 300.391 394.817 289.36 401.209C280.361 406.422 269.93 408.547 259.626 410.014C259.44 410.038 259.26 410.067 259.075 410.092C251.08 411.207 242.763 411.977 235.076 409.517C233.02 408.863 230.808 407.729 230.233 405.653C229.77 403.993 230.545 402.194 231.719 400.932C232.894 399.67 234.423 398.813 235.86 397.863C245.941 391.217 252.016 378.935 251.193 366.891C251.441 366.623 251.69 366.355 251.943 366.086C251.973 366.057 252.002 366.022 252.031 365.993" stroke="#171717" stroke-width="2.905" stroke-linecap="round" stroke-linejoin="round"/>
<path d="M230.783 365.677C243.792 354.364 256.547 342.612 266.203 328.38C268.157 325.491 270.014 322.436 270.735 319.026C271.389 315.961 271.1 310.436 267.836 308.762C264.493 307.037 258.384 309.366 255.319 310.798C249.911 313.314 245.546 317.591 241.439 321.911C233.47 330.289 226.016 339.141 219.119 348.421C217.911 350.048 216.721 351.687 215.547 353.337C210.723 360.129 206.129 367.281 203.97 375.324C203.337 377.696 203.279 380.878 205.515 381.886C206.84 382.486 208.38 381.984 209.71 381.394C215.61 378.764 220.599 374.481 225.491 370.257C227.255 368.737 229.019 367.21 230.783 365.677Z" stroke="#171717" stroke-width="2.905" stroke-linecap="round" stroke-linejoin="round"/>
<path d="M347.675 172.832C345.215 184.589 345.692 196.74 350.647 207.678C355.602 218.616 364.425 227.839 375.334 232.862C386.243 237.885 399.164 238.562 410.389 234.289" stroke="#171717" stroke-width="2.905" stroke-linecap="round" stroke-linejoin="round"/>
<path d="M391.695 266.061L391.417 266.104C378.949 268.131 365.541 262.432 358.364 252.038C358.326 251.988 358.296 251.946 358.264 251.897" stroke="#171717" stroke-width="2.905" stroke-linecap="round" stroke-linejoin="round"/>
<path d="M361.58 301.174C361.502 301.165 361.429 301.155 361.351 301.14C355.738 300.348 350.339 298.444 345.471 295.54C340.603 292.635 336.363 288.788 333 284.224" stroke="#171717" stroke-width="2.905" stroke-linecap="round" stroke-linejoin="round"/>
<path d="M333.029 284.127C343.501 275.389 352.01 264.542 358.004 252.292" stroke="#171717" stroke-width="2.905" stroke-linecap="round" stroke-linejoin="round"/>
<path d="M358.472 264.653C358.7 263.923 358.872 263.177 358.983 262.421C359.11 261.624 359.168 260.817 359.159 260.01" stroke="#171717" stroke-width="2.905" stroke-linecap="round" stroke-linejoin="round"/>
<path d="M356.581 262.207C357.38 262.28 358.184 262.353 358.983 262.421C359.446 262.465 359.904 262.509 360.367 262.548" stroke="#171717" stroke-width="2.905" stroke-linecap="round" stroke-linejoin="round"/>
<path d="M342.136 287.693C342.085 287.172 342.043 286.645 341.999 286.119C341.931 285.325 341.858 284.531 341.789 283.737" stroke="#171717" stroke-width="2.905" stroke-linecap="round" stroke-linejoin="round"/>
<path d="M339.904 286.358C340.601 286.28 341.302 286.202 341.999 286.119C342.847 286.027 343.696 285.93 344.547 285.832" stroke="#171717" stroke-width="2.905" stroke-linecap="round" stroke-linejoin="round"/>
<path d="M282.53 283.074C279.27 286.319 275.826 289.934 275.324 294.504C274.993 297.491 275.991 300.448 276.99 303.279C279.397 310.124 281.893 316.937 284.478 323.718C285.375 326.076 286.408 328.585 288.537 329.939C291.085 331.557 294.389 331.026 297.351 330.442C299.806 329.955 302.54 329.285 303.869 327.164C304.888 325.531 304.791 323.471 304.664 321.556C303.993 311.554 303.32 301.549 302.647 291.543" stroke="#171717" stroke-width="2.905" stroke-linecap="round" stroke-linejoin="round"/>
<path d="M189.652 311.722C180.341 309.106 170.085 314.066 164.297 321.813C158.51 329.56 156.502 339.523 156.122 349.183C154.914 342.625 147.352 338.683 140.741 339.594C134.13 340.505 128.575 345.066 124.302 350.187C127.191 344.661 124.263 337.217 118.791 334.226C113.32 331.234 106.213 332.291 101.105 335.877C103.448 333.178 104.971 329.868 105.498 326.333C106.024 322.799 105.531 319.188 104.078 315.924C102.624 312.66 100.27 309.878 97.2908 307.905C94.3118 305.932 90.8317 304.849 87.259 304.784C89.7565 302.782 91.7187 300.191 92.9689 297.244C94.2197 294.298 94.7203 291.087 94.426 287.899C94.1317 284.712 93.0515 281.647 91.282 278.979C89.5125 276.312 87.109 274.125 84.287 272.613C88.8151 275.22 95.1077 272.029 96.8958 267.122C98.6839 262.216 96.8012 256.575 93.4514 252.569C97.9579 255.127 104.263 253.836 107.405 249.719C107.75 249.272 108.052 248.794 108.307 248.291C110.42 244.228 109.729 238.776 106.47 235.506C107.8 235.777 109.172 235.762 110.495 235.463C111.887 235.169 113.197 234.569 114.329 233.707C115.462 232.845 116.388 231.741 117.041 230.478C117.695 229.214 118.06 227.82 118.109 226.398C118.158 224.975 117.89 223.56 117.325 222.254" stroke="#171717" stroke-width="2.905" stroke-linecap="round" stroke-linejoin="round"/>
<path d="M65.4364 369.55C56.8763 377.866 53.4022 391.099 56.8617 402.539C60.4183 414.286 71.1077 423.558 83.2395 425.409C95.3714 427.261 108.345 421.604 115.244 411.451C109.749 422.419 118.406 437.136 130.489 439.241C142.572 441.346 154.947 432.201 158.265 420.396C158.177 433.336 170.134 445.112 183.074 444.829C196.014 444.547 207.439 432.259 206.787 419.329C210.826 431.548 224.497 439.733 237.176 437.536C249.854 435.338 259.958 423.012 259.646 410.155" stroke="#171717" stroke-width="2.905" stroke-linecap="round" stroke-linejoin="round"/>
<path d="M65.4364 369.55C65.6799 369.341 65.9189 369.116 66.1408 368.882C65.9043 369.102 65.6654 369.321 65.4364 369.55Z" stroke="#171717" stroke-width="2.905" stroke-linecap="round" stroke-linejoin="round"/>
<path d="M116.954 222.255C113.924 218.026 105.617 222.884 102.703 228.242C102.321 228.932 102.031 229.669 101.841 230.434C96.0823 228.33 89.3293 231.979 86.8303 237.397C86.058 239.019 85.7239 240.814 85.8608 242.605C83.3804 241.895 80.738 242.001 78.3215 242.905C75.9055 243.809 73.8427 245.464 72.4374 247.628C71.0322 249.792 70.358 252.349 70.5145 254.924C70.6704 257.499 71.649 259.956 73.3053 261.934C68.3847 259.81 62.0353 261.89 59.3184 266.512C56.6016 271.135 57.8815 277.689 62.1359 280.958C54.9543 280.885 48.1089 286.386 46.6277 293.406C45.1465 300.427 49.1856 308.227 55.7845 311.063C38.1667 319.136 30.0352 343.117 39.1171 360.233C41.7041 365.113 45.6215 369.51 50.7563 371.553C55.5863 373.478 61.5629 372.942 65.441 369.551" stroke="#171717" stroke-width="2.905" stroke-linecap="round" stroke-linejoin="round"/>
<path d="M134.952 322.105C134.133 322.522 133.437 323.147 132.935 323.917C132.433 324.688 132.142 325.576 132.091 326.494C132.04 327.412 132.23 328.328 132.644 329.149C133.057 329.97 133.679 330.668 134.448 331.174C135.216 331.679 136.103 331.974 137.021 332.029C137.938 332.084 138.854 331.897 139.678 331.487C140.501 331.077 141.202 330.458 141.71 329.693C142.219 328.927 142.518 328.041 142.577 327.123C142.625 326.202 142.432 325.283 142.016 324.459C141.599 323.636 140.975 322.935 140.203 322.428C139.433 321.92 138.542 321.624 137.621 321.567C136.7 321.51 135.779 321.696 134.952 322.105Z" stroke="#171717" stroke-width="2.905" stroke-linecap="round" stroke-linejoin="round"/>
<path d="M203.026 449.448C202.08 451 201.607 452.795 201.664 454.612C201.721 456.428 202.306 458.19 203.348 459.68C205.506 462.588 209.662 463.889 213.033 462.564C216.405 461.239 218.583 457.322 217.769 453.794C217.112 450.944 214.147 446.384 211.274 445.273C208.229 444.094 204.526 447.022 203.026 449.448Z" stroke="#171717" stroke-width="2.905" stroke-linecap="round" stroke-linejoin="round"/>
<path d="M148.024 449.526C147.738 450.199 147.601 450.926 147.623 451.657C147.645 452.388 147.825 453.105 148.151 453.76C148.637 454.59 149.374 455.245 150.255 455.629C151.137 456.013 152.118 456.108 153.057 455.899C157.15 454.949 157.585 450.028 155.562 446.997C153.194 443.446 149.247 446.473 148.024 449.526Z" stroke="#171717" stroke-width="2.905" stroke-linecap="round" stroke-linejoin="round"/>
<path d="M148.472 213.656C146.708 212.54 144.867 211.392 142.791 211.151C140.715 210.911 138.343 211.863 137.651 213.831C137.164 215.215 137.48 217.001 136.355 217.939C135.55 218.616 134.299 218.489 133.407 217.934C132.554 217.314 131.841 216.522 131.312 215.61C128.327 211.2 125.344 206.791 122.362 202.381C121.378 200.935 119.707 199.288 118.167 200.117C117.339 200.561 116.998 201.55 116.788 202.466C116.233 204.879 116.102 207.37 116.398 209.828C116.516 210.807 116.642 211.957 115.911 212.615C115.611 212.832 115.263 212.975 114.896 213.031C114.529 213.087 114.154 213.055 113.802 212.936C110.362 212.108 108.087 208.181 104.554 208.05C103.687 208.053 102.831 208.254 102.052 208.638C101.274 209.023 100.593 209.58 100.063 210.266C99.012 211.651 98.3489 213.291 98.1426 215.016C97.814 217.293 97.9901 219.615 98.6583 221.815C99.3269 224.016 100.472 226.043 102.011 227.753" stroke="#171717" stroke-width="2.905" stroke-linecap="round" stroke-linejoin="round"/>
<path d="M111.556 235.61C111.671 237.117 111.993 238.601 112.516 240.019C112.781 240.728 113.191 241.374 113.719 241.916C114.248 242.458 114.883 242.883 115.585 243.166C117.461 243.814 119.551 243.001 121.115 241.783C122.678 240.565 123.907 238.965 125.422 237.69C130.289 233.583 138.133 233.573 143.01 237.676C143.239 237.437 143.468 237.203 143.698 236.964" stroke="#171717" stroke-width="2.905" stroke-linecap="round" stroke-linejoin="round"/>
<path d="M79.4198 215.522C79.4731 215.546 79.5315 215.572 79.5853 215.595C81.3005 216.36 83.0735 217.12 84.9446 217.071C86.8741 217.028 88.9253 215.868 89.3344 213.982C89.6508 212.496 88.9545 210.781 89.8023 209.519C90.957 207.8 93.8459 208.506 95.387 207.117C97.5408 205.178 95.5233 200.813 97.8623 199.098C99.4698 197.914 101.692 199.073 103.689 199.137C106.859 199.244 109.477 196.34 110.179 193.25C110.881 190.161 110.126 186.951 109.38 183.872" stroke="#171717" stroke-width="2.905" stroke-linecap="round" stroke-linejoin="round"/>
<path d="M277.904 288.622L285.423 316.978C286.118 319.6 286.888 322.355 288.818 324.26C290.707 326.125 293.47 326.886 296.125 326.876C298.78 326.867 301.379 326.172 303.942 325.478" stroke="#171717" stroke-width="2.905" stroke-linecap="round" stroke-linejoin="round"/>
<path d="M302.751 298.902C297.901 299.078 293.075 298.127 288.654 296.124" stroke="#171717" stroke-width="2.905" stroke-linecap="round" stroke-linejoin="round"/>
<path d="M303.445 306.105C298.803 306.197 294.204 305.204 290.015 303.204" stroke="#171717" stroke-width="2.905" stroke-linecap="round" stroke-linejoin="round"/>
<path d="M303.793 312.31C299.316 313.117 294.697 312.435 290.644 310.367" stroke="#171717" stroke-width="2.905" stroke-linecap="round" stroke-linejoin="round"/>
<path d="M137.411 141.076L161.074 133.136" stroke="#171717" stroke-width="2.905" stroke-linecap="round" stroke-linejoin="round"/>
<path d="M284.43 69.2079L312.118 53.7479" stroke="#171717" stroke-width="2.905" stroke-linecap="round" stroke-linejoin="round"/>
<path d="M179.813 210.759C174.841 210.859 169.92 209.748 165.474 207.522C161.028 205.295 157.19 202.02 154.292 197.98" stroke="#171717" stroke-width="2.905" stroke-linecap="round" stroke-linejoin="round"/>
<path d="M200.576 227.323L202.825 221.481" stroke="#171717" stroke-width="2.905" stroke-linecap="round" stroke-linejoin="round"/>
<path d="M198.73 223.86L205.091 225.244" stroke="#171717" stroke-width="2.905" stroke-linecap="round" stroke-linejoin="round"/>
<path d="M191.026 122.039L192.033 113.997" stroke="#171717" stroke-width="2.905" stroke-linecap="round" stroke-linejoin="round"/>
<path d="M187.389 117.344L196.496 118.692" stroke="#171717" stroke-width="2.905" stroke-linecap="round" stroke-linejoin="round"/>
<path d="M200.998 95.9113L201.829 85.5867" stroke="#171717" stroke-width="2.905" stroke-linecap="round" stroke-linejoin="round"/>
<path d="M197.002 89.9436C200.431 90.4493 203.92 90.3954 207.333 89.7852" stroke="#171717" stroke-width="2.905" stroke-linecap="round" stroke-linejoin="round"/>
<path d="M119.039 116.357C117.467 115.984 116.06 115.103 115.038 113.852C114.015 112.599 113.433 111.046 113.382 109.43" stroke="#171717" stroke-width="2.905" stroke-linecap="round" stroke-linejoin="round"/>
<path d="M162.314 113.276C163.41 111.837 164.064 110.111 164.194 108.307C164.324 106.504 163.926 104.701 163.048 103.12" stroke="#171717" stroke-width="2.905" stroke-linecap="round" stroke-linejoin="round"/>
<path d="M333.977 105.103C334.877 101.73 334.965 98.1924 334.23 94.7797C333.495 91.3675 331.961 88.1782 329.753 85.4744" stroke="#171717" stroke-width="2.905" stroke-linecap="round" stroke-linejoin="round"/>
<path d="M443.957 224.937C438.621 231.672 435.36 239.782 432.335 247.825C430.783 251.95 429.257 256.166 428.994 260.566C428.73 264.966 429.899 269.65 433.059 272.722C436.219 275.795 441.612 276.715 445.126 274.056C448.64 271.397 448.784 265.063 444.951 262.886C441.465 260.909 436.789 263.129 434.763 266.587C432.737 270.045 432.683 274.278 432.825 278.283C432.991 282.946 433.346 287.598 433.889 292.24C434.387 296.478 435.034 300.847 433.869 304.952C432.705 309.058 429.136 312.843 424.871 312.7C420.606 312.558 417.21 306.87 420.041 303.677" stroke="#171717" stroke-width="2.905" stroke-linecap="round" stroke-linejoin="round"/>
<path d="M399.397 299.561L397.334 290.275" stroke="#171717" stroke-width="2.905" stroke-linecap="round" stroke-linejoin="round"/>
<path d="M392.72 297.577L402.516 293.948" stroke="#171717" stroke-width="2.905" stroke-linecap="round" stroke-linejoin="round"/>
<path d="M184.274 261.368C182.795 260.254 181.084 259.486 179.267 259.126C177.451 258.764 175.576 258.818 173.783 259.283C171.991 259.748 170.326 260.612 168.914 261.81C167.502 263.009 166.379 264.51 165.629 266.203C163.591 270.801 164.535 276.088 165.115 281.083C165.695 286.079 165.674 291.704 162.281 295.416C159.706 298.234 155.732 299.291 151.938 299.724C149.591 299.99 147.097 300.044 145 298.956C142.903 297.869 141.407 295.305 142.247 293.097C143.086 290.889 146.755 290.27 147.8 292.389C148.14 293.078 147.963 294.159 147.203 294.274C146.443 294.39 146.518 292.744 147.173 293.146" stroke="#171717" stroke-width="2.905" stroke-linecap="round" stroke-linejoin="round"/>
<path d="M383.016 134.462L381.956 126.728" stroke="#171717" stroke-width="2.905" stroke-linecap="round" stroke-linejoin="round"/>
<path d="M377.727 131.869L387.013 130.845" stroke="#171717" stroke-width="2.905" stroke-linecap="round" stroke-linejoin="round"/>
<path d="M410.303 105.153L412.679 109.43C412.751 109.559 412.781 109.707 412.766 109.854C412.752 110.001 412.692 110.14 412.596 110.252C412.499 110.364 412.371 110.444 412.228 110.481C412.085 110.517 411.934 110.509 411.795 110.458L407.209 108.752C407.075 108.702 406.93 108.693 406.791 108.725C406.652 108.759 406.526 108.832 406.428 108.936L403.093 112.517C402.992 112.626 402.861 112.7 402.716 112.731C402.572 112.762 402.422 112.749 402.285 112.692C402.149 112.635 402.034 112.538 401.954 112.413C401.875 112.288 401.836 112.142 401.842 111.995L402.048 107.105C402.054 106.962 402.017 106.821 401.944 106.699C401.869 106.577 401.76 106.48 401.631 106.42L397.195 104.357C397.061 104.295 396.949 104.193 396.875 104.065C396.8 103.938 396.767 103.79 396.779 103.643C396.791 103.495 396.848 103.355 396.942 103.241C397.036 103.128 397.163 103.045 397.305 103.006L402.019 101.691C402.156 101.652 402.279 101.574 402.372 101.466C402.466 101.358 402.525 101.224 402.542 101.082L403.135 96.2247C403.153 96.0778 403.215 95.9404 403.314 95.8303C403.412 95.7201 403.542 95.6431 403.686 95.6089C403.83 95.5752 403.981 95.5857 404.118 95.6401C404.255 95.6944 404.373 95.7895 404.454 95.9128L407.161 99.9881C407.24 100.107 407.353 100.2 407.485 100.255C407.617 100.31 407.762 100.325 407.902 100.297L412.705 99.3607C412.85 99.3325 413 99.3496 413.135 99.409C413.269 99.4688 413.383 99.568 413.46 99.6942C413.537 99.82 413.573 99.9664 413.564 100.114C413.555 100.261 413.501 100.402 413.409 100.518L410.369 104.352C410.281 104.464 410.227 104.6 410.215 104.743C410.203 104.885 410.234 105.028 410.303 105.153Z" fill="#171717"/>
<path d="M179.697 82.5901L180.78 85.6204C180.813 85.7119 180.817 85.8111 180.791 85.9046C180.766 85.9982 180.712 86.0822 180.638 86.1441C180.564 86.2065 180.471 86.2448 180.375 86.2533C180.278 86.2619 180.181 86.2407 180.097 86.1924L177.304 84.5945C177.223 84.5477 177.129 84.5261 177.036 84.5326C176.942 84.5392 176.852 84.5734 176.778 84.6307L174.231 86.5969C174.154 86.6558 174.061 86.69 173.964 86.6951C173.867 86.6996 173.771 86.6744 173.689 86.6231C173.606 86.5713 173.542 86.4958 173.504 86.4068C173.466 86.3177 173.456 86.2191 173.476 86.124L174.133 82.9739C174.152 82.8819 174.143 82.7863 174.108 82.6992C174.073 82.6122 174.013 82.5377 173.935 82.4849L171.278 80.6701C171.198 80.6153 171.136 80.5373 171.102 80.4462C171.068 80.3557 171.062 80.2566 171.086 80.1625C171.109 80.0684 171.161 79.9834 171.234 79.9195C171.307 79.8556 171.398 79.8158 171.495 79.8053L174.694 79.4566C174.787 79.446 174.874 79.4083 174.946 79.3479C175.018 79.2881 175.069 79.2076 175.096 79.118L176.002 76.0303C176.029 75.9372 176.084 75.8547 176.16 75.7938C176.236 75.733 176.328 75.6967 176.425 75.6902C176.522 75.6832 176.619 75.7063 176.702 75.7566C176.785 75.8064 176.851 75.8804 176.891 75.9689L178.211 78.9032C178.249 78.9887 178.313 79.0611 178.392 79.1109C178.472 79.1608 178.564 79.1854 178.658 79.1829L181.875 79.0893C181.972 79.0863 182.067 79.1135 182.148 79.1668C182.229 79.2201 182.293 79.2966 182.329 79.3872C182.365 79.4772 182.373 79.5758 182.351 79.6709C182.329 79.7655 182.28 79.851 182.208 79.9164L179.825 82.0799C179.755 82.1428 179.707 82.2248 179.684 82.3159C179.661 82.4064 179.666 82.502 179.697 82.5901Z" fill="#171717"/>
<path d="M80.822 155.188L83.9585 157.845C84.0531 157.925 84.121 158.032 84.1527 158.152C84.1849 158.272 84.1793 158.399 84.1366 158.516C84.0943 158.632 84.0173 158.733 83.9157 158.804C83.8146 158.876 83.6933 158.915 83.5696 158.915L79.4595 158.936C79.3393 158.936 79.2221 158.972 79.1224 159.04C79.0233 159.107 78.9458 159.202 78.9006 159.313L77.3439 163.117C77.2966 163.231 77.2156 163.329 77.1114 163.397C77.0073 163.464 76.885 163.498 76.7608 163.494C76.637 163.489 76.5173 163.447 76.4176 163.373C76.3185 163.298 76.2446 163.195 76.2058 163.077L74.9158 159.175C74.8781 159.061 74.8071 158.961 74.7131 158.887C74.6185 158.813 74.5038 158.769 74.3845 158.76L70.2855 158.455C70.1618 158.446 70.0435 158.399 69.9475 158.32C69.8514 158.242 69.7814 158.136 69.7472 158.017C69.713 157.898 69.716 157.771 69.7563 157.653C69.7965 157.536 69.8715 157.434 69.9716 157.36L73.2842 154.927C73.3808 154.856 73.4542 154.758 73.495 154.646C73.5362 154.533 73.5428 154.411 73.5146 154.294L72.5385 150.302C72.5089 150.181 72.5169 150.055 72.5617 149.938C72.6065 149.823 72.6855 149.723 72.7881 149.654C72.8912 149.585 73.013 149.548 73.1368 149.55C73.261 149.552 73.3813 149.592 73.4824 149.665L76.8196 152.063C76.9167 152.133 77.033 152.173 77.1527 152.177C77.2724 152.181 77.3912 152.15 77.4933 152.087L80.989 149.923C81.0942 149.858 81.2174 149.826 81.3412 149.833C81.465 149.84 81.5837 149.884 81.6818 149.96C81.7794 150.037 81.8514 150.141 81.8881 150.26C81.9243 150.379 81.9238 150.505 81.8861 150.624L80.6363 154.539C80.5991 154.654 80.5966 154.777 80.6298 154.892C80.663 155.008 80.7299 155.111 80.822 155.188Z" fill="#171717"/>
<path d="M395.7 333.434L396.783 336.463C396.816 336.555 396.82 336.654 396.795 336.748C396.769 336.842 396.716 336.926 396.642 336.988C396.567 337.05 396.475 337.088 396.378 337.097C396.282 337.106 396.185 337.084 396.1 337.036L393.307 335.438C393.226 335.391 393.132 335.37 393.039 335.377C392.945 335.383 392.856 335.417 392.781 335.474L390.234 337.44C390.157 337.5 390.064 337.534 389.967 337.539C389.87 337.543 389.774 337.518 389.692 337.467C389.61 337.415 389.546 337.34 389.507 337.25C389.469 337.161 389.459 337.063 389.479 336.968L390.133 333.817C390.152 333.725 390.144 333.63 390.109 333.543C390.074 333.456 390.013 333.381 389.936 333.328L387.279 331.514C387.199 331.459 387.138 331.381 387.103 331.29C387.069 331.199 387.063 331.1 387.086 331.006C387.11 330.912 387.162 330.827 387.235 330.763C387.308 330.7 387.399 330.659 387.495 330.649L390.694 330.3C390.787 330.29 390.875 330.252 390.946 330.191C391.018 330.132 391.071 330.052 391.097 329.961L392.002 326.873C392.03 326.78 392.085 326.698 392.161 326.637C392.236 326.576 392.329 326.54 392.426 326.533C392.523 326.527 392.619 326.55 392.703 326.6C392.786 326.649 392.852 326.723 392.892 326.812L394.212 329.747C394.25 329.832 394.314 329.905 394.393 329.954C394.473 330.004 394.565 330.029 394.659 330.026L397.875 329.933C397.972 329.93 398.068 329.957 398.149 330.01C398.23 330.063 398.294 330.14 398.33 330.23C398.366 330.32 398.374 330.419 398.352 330.514C398.331 330.608 398.28 330.694 398.208 330.759L395.826 332.923C395.757 332.986 395.708 333.068 395.686 333.159C395.664 333.25 395.669 333.345 395.7 333.434Z" fill="#171717"/>
<path d="M311.434 83.0659C311.522 80.5432 312.034 78.0538 312.948 75.7012" stroke="#171717" stroke-width="2.905" stroke-linecap="round" stroke-linejoin="round"/>
<path d="M299.97 79.7956L296.551 78.5881" stroke="#171717" stroke-width="2.905" stroke-linecap="round" stroke-linejoin="round"/>
<path d="M314.572 100.359L309.529 97.8352" stroke="#171717" stroke-width="2.905" stroke-linecap="round" stroke-linejoin="round"/>
<path d="M298.811 119.986L302.213 116.055" stroke="#171717" stroke-width="2.905" stroke-linecap="round" stroke-linejoin="round"/>
<path d="M310.295 130.733C309.236 129.228 308.441 127.554 307.945 125.781" stroke="#171717" stroke-width="2.905" stroke-linecap="round" stroke-linejoin="round"/>
<path d="M292.382 137.404L296.508 136.028" stroke="#171717" stroke-width="2.905" stroke-linecap="round" stroke-linejoin="round"/>
<path d="M295.179 154.588C294.797 152.929 294.696 151.218 294.881 149.526" stroke="#171717" stroke-width="2.905" stroke-linecap="round" stroke-linejoin="round"/>
<path d="M274.494 149.742L278.627 149.34" stroke="#171717" stroke-width="2.905" stroke-linecap="round" stroke-linejoin="round"/>
<path d="M281.371 173.399L281.237 167.9" stroke="#171717" stroke-width="2.905" stroke-linecap="round" stroke-linejoin="round"/>
<path d="M293.299 174.087C294.43 174.355 295.608 174.355 296.738 174.087" stroke="#171717" stroke-width="2.905" stroke-linecap="round" stroke-linejoin="round"/>
<path d="M273.75 193.347L273.681 188.992" stroke="#171717" stroke-width="2.905" stroke-linecap="round" stroke-linejoin="round"/>
<path d="M254.078 220.796L257.064 220.129" stroke="#171717" stroke-width="2.905" stroke-linecap="round" stroke-linejoin="round"/>
<path d="M246.756 191.283V187.385" stroke="#171717" stroke-width="2.905" stroke-linecap="round" stroke-linejoin="round"/>
<path d="M244.238 175.495L249.052 174.797" stroke="#171717" stroke-width="2.905" stroke-linecap="round" stroke-linejoin="round"/>
<path d="M238.256 167.893L238.704 163.994" stroke="#171717" stroke-width="2.905" stroke-linecap="round" stroke-linejoin="round"/>
<path d="M228.412 177.971C226.924 178.139 225.42 177.917 224.045 177.325" stroke="#171717" stroke-width="2.905" stroke-linecap="round" stroke-linejoin="round"/>
<path d="M217.47 191.993L219.449 186.916" stroke="#171717" stroke-width="2.905" stroke-linecap="round" stroke-linejoin="round"/>
<path d="M207.317 179.628C205.706 179.493 204.143 179.007 202.741 178.202" stroke="#171717" stroke-width="2.905" stroke-linecap="round" stroke-linejoin="round"/>
<path d="M189.067 191.099L191.474 186.455" stroke="#171717" stroke-width="2.905" stroke-linecap="round" stroke-linejoin="round"/>
<path d="M183.398 179.202L179.772 175.265" stroke="#171717" stroke-width="2.905" stroke-linecap="round" stroke-linejoin="round"/>
<path d="M162.84 174.775L163.299 170.189" stroke="#171717" stroke-width="2.905" stroke-linecap="round" stroke-linejoin="round"/>
<path d="M166.981 158.449L162.392 157.084" stroke="#171717" stroke-width="2.905" stroke-linecap="round" stroke-linejoin="round"/>
<path d="M149.542 159.871C149.723 158.176 149.568 156.462 149.083 154.828" stroke="#171717" stroke-width="2.905" stroke-linecap="round" stroke-linejoin="round"/>
<path d="M159.603 142.26L155.022 139.272" stroke="#171717" stroke-width="2.905" stroke-linecap="round" stroke-linejoin="round"/>
<path fill-rule="evenodd" clip-rule="evenodd" d="M97.2903 307.905C94.3113 305.932 90.8317 304.85 87.259 304.785V304.784C89.756 302.781 91.7182 300.191 92.9689 297.244C94.2197 294.297 94.7198 291.086 94.4255 287.899C94.1312 284.711 93.051 281.646 91.2815 278.979C89.5708 276.4 87.268 274.27 84.5668 272.765C89.0682 275.09 95.1394 271.923 96.8958 267.122C98.689 262.22 96.8033 256.574 93.4514 252.569C97.9584 255.128 104.263 253.837 107.405 249.719C107.75 249.272 108.052 248.794 108.306 248.291C110.42 244.227 109.729 238.777 106.469 235.506C107.799 235.777 109.171 235.762 110.494 235.463C111.886 235.168 113.196 234.569 114.327 233.707C115.459 232.845 116.385 231.742 117.039 230.479C117.693 229.215 118.057 227.822 118.107 226.4C118.156 224.978 117.889 223.563 117.325 222.257H116.954C113.923 218.027 105.617 222.885 102.703 228.244C102.321 228.934 102.031 229.671 101.841 230.436C96.0823 228.332 89.3293 231.981 86.8303 237.399C86.0575 239.02 85.7234 240.816 85.8608 242.607C83.3799 241.895 80.736 241.998 78.3184 242.901C75.9004 243.804 73.8366 245.46 72.4299 247.624C71.0231 249.788 70.3484 252.346 70.5044 254.922C70.6604 257.498 71.6395 259.957 73.2973 261.935C68.3777 259.809 62.0232 261.895 59.3104 266.513C56.5975 271.132 57.8745 277.689 62.1279 280.959C54.9463 280.886 48.0985 286.382 46.6194 293.407C45.1402 300.433 49.1793 308.229 55.7764 311.064C38.1583 319.137 30.0268 343.118 39.1087 360.234C41.6958 365.118 45.6131 369.513 50.7482 371.554C55.5767 373.476 61.5548 372.943 65.4329 369.552C56.8727 377.869 53.3987 391.101 56.8582 402.541C60.4147 414.288 71.0996 423.56 83.236 425.411C95.3724 427.262 108.342 421.606 115.241 411.453C109.745 422.42 118.402 437.134 130.485 439.243C142.569 441.353 154.943 432.203 158.261 420.398C158.174 433.338 170.13 445.114 183.071 444.831C196.011 444.549 207.437 432.261 206.783 419.331C210.824 431.551 224.494 439.74 237.172 437.538C249.85 435.336 259.955 423.014 259.643 410.157L259.623 410.015C259.587 410.02 259.552 410.025 259.516 410.029C259.48 410.035 259.444 410.04 259.408 410.045L259.335 410.055C259.248 410.069 259.161 410.081 259.073 410.093C251.079 411.209 242.762 411.978 235.074 409.518C233.017 408.865 230.806 407.73 230.231 405.655C229.768 403.993 230.547 402.195 231.717 400.933C232.657 399.919 233.833 399.166 235.006 398.415C235.291 398.233 235.577 398.05 235.858 397.864C245.938 391.219 252.014 378.936 251.191 366.892C251.419 366.643 251.651 366.396 251.883 366.148L251.941 366.087C251.644 366.17 251.346 366.248 251.044 366.321C244.545 367.943 237.31 368.718 231.005 365.936L230.781 365.678C229.017 367.211 227.253 368.737 225.49 370.257C220.598 374.481 215.609 378.764 209.709 381.394C208.379 381.984 206.839 382.486 205.514 381.887C203.278 380.878 203.336 377.696 203.969 375.324C206.128 367.281 210.722 360.129 215.546 353.337C216.72 351.687 217.91 350.048 219.118 348.421L219.084 348.397C219.078 347.592 219.06 346.795 219.043 346.002V346.001C218.949 341.738 218.858 337.63 220.502 333.522C221.404 331.363 222.338 329.229 223.303 327.12L222.436 326.72C216.451 327.679 210.737 329.895 205.67 333.222C200.605 336.549 196.3 340.913 193.043 346.024C192.404 347.037 191.639 348.197 190.445 348.324C188.945 348.48 187.878 346.925 187.303 345.532C184.36 338.384 185.029 330.262 186.689 322.71C187.502 319.007 188.559 315.361 189.851 311.797L189.65 311.724C180.339 309.107 170.084 314.069 164.295 321.814C158.507 329.56 156.5 339.524 156.12 349.184C154.912 342.628 147.348 338.684 140.741 339.595C134.134 340.506 128.575 345.066 124.302 350.187C127.194 344.662 124.263 337.223 118.791 334.226C113.32 331.229 106.212 332.291 101.105 335.878C103.447 333.179 104.971 329.868 105.497 326.334C106.024 322.8 105.531 319.189 104.077 315.924C102.624 312.66 100.27 309.878 97.2903 307.905ZM65.4329 369.552C65.6543 369.328 65.8877 369.113 66.1212 368.899L66.1217 368.898L66.1373 368.884C65.9154 369.118 65.6764 369.343 65.4329 369.552ZM187.076 370.56C183.505 366.79 178.361 364.045 173.043 364.554C168.253 365.013 163.612 368.68 162.741 373.439C161.109 372.041 159.141 371.074 157.019 370.641C154.383 370.102 151.644 370.415 149.196 371.533C146.749 372.652 144.719 374.518 143.401 376.864C142.083 379.209 141.543 381.913 141.86 384.585C141.907 384.986 142.271 385.273 142.672 385.225C143.073 385.177 143.359 384.814 143.311 384.413C143.031 382.049 143.508 379.656 144.675 377.58C145.842 375.504 147.638 373.852 149.803 372.862C151.969 371.873 154.394 371.596 156.727 372.073C159.06 372.55 161.182 373.755 162.786 375.514C162.989 375.737 163.308 375.812 163.589 375.704C163.87 375.595 164.056 375.325 164.057 375.024C164.068 370.436 168.44 366.463 173.182 366.009C177.914 365.557 182.643 368.005 186.015 371.565C186.293 371.858 186.755 371.871 187.048 371.594C187.341 371.316 187.354 370.854 187.076 370.56ZM81.5052 358.637C81.7608 358.949 81.7155 359.409 81.4036 359.665C79.6935 361.068 78.3979 362.911 77.6558 364.994C76.9137 367.078 76.7532 369.324 77.1909 371.492C77.6287 373.661 78.649 375.669 80.1413 377.302C81.634 378.934 83.5434 380.129 85.6636 380.759C86.6326 381.046 87.7329 381.141 88.6818 380.957C89.6257 380.774 90.3482 380.334 90.7336 379.611C90.8915 379.316 91.2296 379.166 91.5542 379.246C91.8792 379.327 92.1081 379.618 92.1091 379.953C92.1217 383.087 93.0278 386.153 94.7223 388.79C96.4164 391.427 98.8273 393.526 101.673 394.84C104.518 396.155 107.68 396.631 110.786 396.211C113.892 395.791 116.814 394.494 119.208 392.472C119.517 392.211 119.978 392.25 120.238 392.558C120.499 392.867 120.46 393.328 120.152 393.588C117.545 395.79 114.363 397.202 110.982 397.66C107.6 398.116 104.158 397.599 101.06 396.168C97.962 394.736 95.3367 392.451 93.4922 389.58C91.9627 387.199 91.0224 384.496 90.7386 381.695C90.2008 382.047 89.5869 382.27 88.9605 382.392C87.7379 382.629 86.3966 382.501 85.2475 382.16C82.8727 381.454 80.7345 380.116 79.0631 378.288C77.3912 376.459 76.2486 374.21 75.758 371.782C75.268 369.354 75.4476 366.838 76.2793 364.504C77.1104 362.17 78.5615 360.107 80.4764 358.535C80.7883 358.279 81.2491 358.325 81.5052 358.637ZM77.684 309.523C77.2865 309.45 76.9062 309.713 76.8337 310.11C76.7613 310.507 77.0244 310.888 77.4214 310.96C78.6183 311.179 79.7332 311.719 80.6474 312.522C81.5616 313.325 82.2403 314.361 82.6111 315.52C82.9819 316.679 83.0307 317.917 82.7525 319.102C82.4748 320.286 81.8801 321.373 81.0323 322.246C80.8336 322.45 80.7717 322.752 80.8748 323.018C80.9775 323.284 81.226 323.466 81.5108 323.484C83.235 323.592 84.8908 324.202 86.2734 325.238C87.6565 326.274 88.7065 327.691 89.2951 329.315C89.8838 330.94 89.9854 332.702 89.5869 334.382C89.1885 336.064 88.308 337.592 87.0527 338.78C86.7599 339.057 86.7468 339.52 87.0245 339.813C87.3017 340.107 87.7641 340.119 88.0574 339.842C89.519 338.458 90.5449 336.678 91.0093 334.72C91.4732 332.761 91.3549 330.71 90.6697 328.818C89.9839 326.926 88.7603 325.274 87.1498 324.068C85.9041 323.135 84.4686 322.499 82.9527 322.2C83.5263 321.366 83.9424 320.429 84.1758 319.436C84.5144 317.993 84.4546 316.486 84.0033 315.075C83.5514 313.664 82.7253 312.401 81.6119 311.424C80.499 310.446 79.1411 309.789 77.684 309.523Z" fill="#171717"/>
</g>
<defs>
<linearGradient id="paint0_linear_10_439" x1="389.044" y1="142.945" x2="389.044" y2="237.106" gradientUnits="userSpaceOnUse">
<stop stop-color="#FF6900"/>
</linearGradient>
<linearGradient id="paint1_linear_10_439" x1="274.32" y1="334.981" x2="274.32" y2="411.144" gradientUnits="userSpaceOnUse">
<stop offset="1" stop-color="#FF6900"/>
</linearGradient>
<linearGradient id="paint2_linear_10_439" x1="237.304" y1="308.15" x2="237.304" y2="382.155" gradientUnits="userSpaceOnUse">
<stop offset="1" stop-color="#FF6900"/>
</linearGradient>
<linearGradient id="paint3_linear_10_439" x1="258.311" y1="154.761" x2="258.311" y2="162.442" gradientUnits="userSpaceOnUse">
<stop stop-color="#FF9A34"/>
<stop offset="1" stop-color="#EB6421"/>
</linearGradient>
<linearGradient id="paint4_linear_10_439" x1="255.019" y1="146.391" x2="255.019" y2="158.302" gradientUnits="userSpaceOnUse">
<stop stop-color="#FF9A34"/>
<stop offset="1" stop-color="#EB6421"/>
</linearGradient>
<linearGradient id="paint5_linear_10_439" x1="218.989" y1="269.798" x2="218.989" y2="348.333" gradientUnits="userSpaceOnUse">
<stop offset="1" stop-color="#FF6900"/>
</linearGradient>
<linearGradient id="paint6_linear_10_439" x1="236.415" y1="160.786" x2="236.415" y2="255.727" gradientUnits="userSpaceOnUse">
<stop offset="1" stop-color="#FF6900"/>
</linearGradient>
<linearGradient id="paint7_linear_10_439" x1="123.608" y1="199.892" x2="123.608" y2="243.394" gradientUnits="userSpaceOnUse">
<stop stop-color="#FF6900"/>
</linearGradient>
<linearGradient id="paint8_linear_10_439" x1="95.0116" y1="183.464" x2="95.0116" y2="217.074" gradientUnits="userSpaceOnUse">
<stop offset="1" stop-color="#FF6900"/>
</linearGradient>
</defs>
</svg>
