<svg width="430" height="454" viewBox="0 0 430 454" fill="none" xmlns="http://www.w3.org/2000/svg">
<mask id="mask0_10_923" style="mask-type:luminance" maskUnits="userSpaceOnUse" x="0" y="0" width="430" height="454">
<path d="M429.139 0H0V454H429.139V0Z" fill="white"/>
</mask>
<g mask="url(#mask0_10_923)">
<path fill-rule="evenodd" clip-rule="evenodd" d="M231.463 157.608C231.164 157.727 230.848 157.797 230.527 157.816C229.689 157.795 228.866 157.581 228.124 157.188C227.515 156.922 226.911 156.644 226.307 156.354C225.762 156.093 225.141 155.702 225.123 155.099C225.135 154.85 225.201 154.607 225.319 154.388C225.819 153.064 226.508 151.82 227.367 150.695C228.224 149.7 229.325 148.944 230.561 148.502C231.798 148.06 233.128 147.947 234.422 148.173C233.801 147.475 233.286 146.689 232.895 145.841C232.466 144.604 232.356 143.279 232.575 141.988C232.629 141.405 232.752 140.83 232.942 140.277C233.724 138.217 236.032 137.016 238.234 137.033C238.77 137.017 239.303 137.124 239.791 137.347C240.499 137.8 241.072 138.436 241.448 139.188C241.829 139.728 242.095 140.34 242.23 140.987L242.336 140.981C242.455 138.697 242.987 136.353 244.372 134.524C244.857 133.89 245.431 133.329 246.077 132.86C246.816 132.296 247.693 131.938 248.616 131.824C249.076 131.769 249.542 131.817 249.981 131.963C250.42 132.109 250.821 132.351 251.156 132.671C251.943 133.47 252.121 134.678 252.156 135.802C252.196 136.852 252.152 137.902 252.026 138.945C252.39 138.144 252.859 137.396 253.423 136.72C254.362 135.43 255.487 134.288 256.761 133.328C258.045 132.363 259.619 131.864 261.224 131.913C261.545 131.92 261.861 131.999 262.148 132.144C262.893 132.57 263.035 133.582 263 134.441C262.935 135.829 262.621 137.195 262.071 138.472C264.717 136.4 268.375 135.796 271.672 136.495C272.601 136.65 273.482 137.023 274.24 137.584C274.614 137.869 274.91 138.243 275.102 138.672C275.295 139.101 275.377 139.571 275.341 140.04C275.199 141.112 274.311 141.911 273.447 142.556C271.512 144.007 269.419 145.234 267.208 146.214C269.101 145.717 271.054 145.491 273.009 145.539C274.649 145.581 276.632 146.096 277.07 147.682C277.466 149.108 276.312 150.517 275.034 151.281C272.056 153.062 268.351 152.861 264.882 152.559L264.876 152.63C264.9 154.607 264.9 156.59 264.87 158.567C271.275 158.261 277.68 157.958 284.084 157.656C286.535 157.537 289.34 157.567 291.039 159.278C291.53 156.697 291.738 154.072 291.661 151.447C291.281 141.964 287.244 132.996 280.396 126.426C277.321 123.564 273.899 121.1 270.209 119.092C265.628 116.523 260.68 114.422 255.459 113.854C251.94 113.519 248.39 113.74 244.94 114.511C231.989 117.204 220.329 125.834 214.25 137.584C210.188 145.536 208.687 154.551 209.952 163.391C210.248 163.291 210.55 163.202 210.852 163.113C216.315 161.518 221.982 160.724 227.674 160.757L227.881 160.941C228.935 159.693 230.161 158.601 231.522 157.697L231.463 157.608ZM259.865 121.494C259.056 121.377 258.305 121.938 258.188 122.746C258.071 123.555 258.632 124.306 259.441 124.423C264.476 125.152 269.225 127.216 273.194 130.4C277.163 133.584 280.208 137.771 282.013 142.529C282.302 143.293 283.157 143.678 283.921 143.388C284.685 143.098 285.07 142.243 284.78 141.479C282.788 136.228 279.427 131.605 275.046 128.091C270.665 124.577 265.423 122.299 259.865 121.494Z" fill="url(#paint0_linear_10_923)"/>
<path fill-rule="evenodd" clip-rule="evenodd" d="M131.602 177.865C134.285 173.822 135.71 169.073 135.696 164.22C135.686 160.998 135.042 157.809 133.799 154.835C132.557 151.862 130.742 149.162 128.457 146.891C126.171 144.619 123.46 142.819 120.479 141.595C117.499 140.371 114.306 139.746 111.084 139.756C106.231 139.77 101.491 141.224 97.4639 143.933C93.4365 146.641 90.3035 150.483 88.4597 154.972C86.6159 159.461 86.1447 164.397 87.106 169.154C88.0672 173.91 90.4171 178.276 93.8591 181.697C97.3011 185.118 101.681 187.442 106.443 188.374C111.206 189.307 116.138 188.806 120.616 186.936C125.095 185.064 128.917 181.908 131.602 177.865ZM120.652 145.223C119.965 144.781 119.049 144.979 118.607 145.667C118.164 146.354 118.363 147.269 119.05 147.712C122.381 149.857 125.363 152.443 127.289 155.68C129.213 158.917 129.956 162.841 128.853 166.225C128.6 167.002 129.025 167.837 129.802 168.091C130.579 168.343 131.414 167.919 131.668 167.142C133.095 162.761 132.082 157.951 129.832 154.168C127.584 150.385 124.187 147.499 120.652 145.223Z" fill="url(#paint1_linear_10_923)"/>
<path fill-rule="evenodd" clip-rule="evenodd" d="M159.431 105.585L159.881 105.461C146.859 57.5805 127.124 26.3095 111.734 26.3569C94.9594 26.4101 73.242 63.7187 60.8118 119.14C68.1338 113.286 76.8468 109.373 85.7847 106.52C109.702 98.9377 135.329 98.6121 159.431 105.585ZM128.705 43.0217C128.209 42.3718 127.28 42.2475 126.631 42.7441C125.981 43.2401 125.856 44.1688 126.353 44.8181C135.098 56.2664 141.299 69.4484 144.543 83.4845C144.727 84.2806 145.522 84.7773 146.318 84.5932C147.114 84.4091 147.61 83.6147 147.426 82.818C144.088 68.3717 137.705 54.8044 128.705 43.0217Z" fill="url(#paint2_linear_10_923)"/>
<path d="M381.696 1.42542L382.099 1.71545C380.856 31.8261 380.086 62.1027 379.299 92.397L378.441 92.3733C366.111 103.572 349.774 109.935 333.183 111.457C316.591 112.978 299.769 109.853 284.231 103.833C283.88 103.777 283.544 103.645 283.249 103.446C282.953 103.247 282.705 102.986 282.521 102.681C282.337 102.376 282.221 102.035 282.182 101.681C282.143 101.327 282.182 100.968 282.296 100.631C285.196 72.4612 286.982 44.209 287.653 15.874C306.295 23.4422 326.739 25.4127 346.483 21.5445C360.08 18.8513 373.807 12.8197 381.696 1.42542Z" fill="url(#paint3_linear_10_923)"/>
<path d="M353.545 189.295V189.319C352.265 198.88 352.102 208.558 353.06 218.157L353.071 218.328C351.325 218.476 349.585 218.624 347.839 218.778L347.792 218.263C346.462 208.781 346.7 199.144 348.496 189.739L353.545 189.295Z" fill="url(#paint4_linear_10_923)"/>
<path d="M327.583 191.679C327.631 195.615 327.676 199.555 327.719 203.5C327.762 203.703 327.752 203.913 327.691 204.111C327.629 204.309 327.519 204.489 327.369 204.633C327.219 204.776 327.035 204.879 326.834 204.931C326.633 204.984 326.423 204.984 326.221 204.932L314.91 205.589C314.713 202.849 314.52 200.108 314.33 197.367C314.338 197.254 314.302 197.141 314.23 197.054C314.162 196.989 314.075 196.95 313.981 196.941C312.543 196.651 311.063 196.977 309.63 197.308C308.559 197.551 307.488 197.795 306.416 198.042L306.357 198.036C306.464 196.497 306.622 194.96 306.831 193.425C313.744 192.81 320.66 192.198 327.577 191.59L327.583 191.679Z" fill="url(#paint5_linear_10_923)"/>
<path d="M303.628 412.671C304.113 414.127 304.318 415.662 304.232 417.193C304.203 420.097 303.924 422.992 303.398 425.847C303.096 427.487 302.652 429.227 301.391 430.322C300.13 431.417 298.372 431.612 296.721 431.766C289.588 432.435 282.438 433.069 275.282 432.79C272.89 432.702 270.446 432.489 268.261 431.506C266.712 430.736 265.278 429.754 264 428.588C260.469 425.578 257.22 422.254 254.292 418.655C253.475 417.743 252.815 416.7 252.339 415.572C251.97 414.374 251.788 413.126 251.801 411.872L251.339 400.312C256.174 404.953 263.467 406.497 270.18 405.769C277.235 405.012 283.847 402.094 290.334 399.211L290.588 399.016C291.421 400.117 292.337 401.152 293.329 402.111C295.661 404.402 298.266 406.397 300.621 408.658C301.9 409.765 302.926 411.133 303.628 412.671Z" fill="#171717"/>
<path d="M293.962 222.731C294.667 231.48 294.648 240.27 294.566 249.048C294.471 260.051 294.27 271.138 291.914 281.887C291.784 282.706 291.501 283.493 291.08 284.208C289.831 286.054 287.256 286.25 285.019 286.22C283.527 265.272 281.929 244.324 280.336 223.376L280.703 223.347C285.125 223.145 289.545 222.94 293.962 222.731Z" fill="#171717"/>
<path d="M292.915 194.177L292.956 194.651C283.787 195.462 274.62 196.271 265.456 197.077C265.485 196.947 265.509 196.811 265.527 196.681C265.692 195.568 265.811 194.451 265.882 193.331C265.991 192.561 265.9 191.776 265.615 191.052C265.61 191.046 265.61 191.034 265.604 191.028C272.985 187.228 279.602 181.83 284.344 175.023C287.653 170.301 289.934 164.937 291.038 159.278C291.109 159.349 291.18 159.426 291.245 159.503C292.53 161 292.613 163.155 292.631 165.126C292.725 174.81 292.82 184.493 292.915 194.177Z" fill="#171717"/>
<path d="M290.724 381.531C290.872 384.656 291.002 387.775 291.132 390.895C291.073 391.564 290.44 392.09 289.854 392.487C289.173 392.943 288.481 393.375 287.776 393.789C279.637 398.492 270.079 400.114 260.844 398.359C259.589 398.11 258.347 397.802 257.115 397.459C255.005 396.927 252.989 396.075 251.137 394.932C249.878 394.138 248.823 393.059 248.059 391.783C248.201 389.036 248.327 386.288 248.438 383.537L248.621 383.543C261.489 390.634 278.317 389.829 290.452 381.542L290.724 381.531Z" fill="url(#paint6_linear_10_923)"/>
<path d="M231.522 157.697L231.463 157.608C231.164 157.727 230.848 157.798 230.527 157.816C229.688 157.795 228.866 157.581 228.124 157.188C227.514 156.922 226.911 156.644 226.307 156.354C225.762 156.093 225.141 155.702 225.123 155.099C225.134 154.851 225.201 154.608 225.319 154.388C225.819 153.065 226.508 151.821 227.367 150.695C228.224 149.7 229.325 148.945 230.561 148.502C231.798 148.061 233.128 147.947 234.422 148.173C233.801 147.475 233.286 146.689 232.895 145.841C232.465 144.604 232.356 143.279 232.575 141.988C232.628 141.405 232.752 140.831 232.942 140.277C233.724 138.217 236.032 137.016 238.234 137.033C238.77 137.017 239.303 137.125 239.791 137.347C240.499 137.8 241.072 138.436 241.448 139.188C241.829 139.728 242.095 140.34 242.23 140.987L242.336 140.981C242.455 138.697 242.987 136.353 244.372 134.524C244.857 133.89 245.431 133.33 246.077 132.86C246.816 132.296 247.693 131.938 248.616 131.825C249.076 131.77 249.542 131.817 249.98 131.964C250.419 132.11 250.82 132.351 251.155 132.671C251.943 133.47 252.12 134.678 252.155 135.802C252.195 136.852 252.152 137.903 252.026 138.945C252.389 138.144 252.859 137.396 253.423 136.72C254.362 135.431 255.487 134.288 256.761 133.328C258.044 132.363 259.619 131.864 261.224 131.913C261.545 131.92 261.861 131.999 262.147 132.144C262.893 132.57 263.035 133.582 263 134.441C262.935 135.829 262.62 137.195 262.07 138.472C264.716 136.4 268.375 135.796 271.671 136.495C272.601 136.651 273.481 137.024 274.24 137.584C274.613 137.869 274.909 138.244 275.102 138.672C275.294 139.102 275.376 139.572 275.341 140.04C275.199 141.112 274.311 141.911 273.447 142.556C271.512 144.007 269.419 145.234 267.208 146.214C267.06 146.25 266.912 146.291 266.764 146.332C266.746 146.362 266.728 146.397 266.711 146.433C266.876 146.362 267.042 146.291 267.208 146.214C269.1 145.718 271.053 145.491 273.009 145.539C274.648 145.581 276.631 146.096 277.069 147.682C277.466 149.108 276.312 150.517 275.033 151.281C272.056 153.062 268.35 152.861 264.882 152.559C264.781 152.548 264.68 152.542 264.58 152.53C260.803 152.186 257.027 151.846 253.251 151.506C251.247 151.251 249.222 151.223 247.213 151.423C245.188 151.634 243.296 152.53 241.85 153.962C239.483 156.513 239.477 160.39 239.607 163.865C239.804 168.926 239.999 173.989 240.193 179.054L239.82 179.065C239.34 180.166 238.867 181.273 238.387 182.374C237.772 183.795 237.002 185.357 235.534 185.849C235.147 186 234.721 186.023 234.319 185.917C233.917 185.811 233.559 185.579 233.297 185.257C233.158 185.036 233.056 184.795 232.995 184.541C232.556 182.632 232.617 180.642 233.173 178.763C233.617 176.97 234.256 175.23 234.652 173.424L234.404 173.371C233.688 175.165 232.975 176.958 232.267 178.752C231.776 179.983 231.255 181.261 230.278 182.149C230.078 182.387 229.818 182.568 229.526 182.673C229.234 182.778 228.919 182.806 228.613 182.751C228.307 182.696 228.021 182.562 227.783 182.362C227.546 182.162 227.365 181.903 227.259 181.611C226.005 179.462 226.762 176.727 227.763 174.448C228.946 171.757 230.423 169.204 232.166 166.836L232.03 166.736C230.545 168.369 228.289 169.53 226.153 168.991C225.757 168.913 225.391 168.725 225.099 168.446C224.4 167.724 224.655 166.529 225.04 165.599C226.369 162.381 228.625 159.63 231.522 157.697Z" fill="#171717"/>
<path d="M235.327 270.92C236.316 255.595 235.865 240.21 233.977 224.97C233.705 222.809 233.409 220.613 233.717 218.453C235.015 218.053 236.356 217.81 237.712 217.73C239.843 217.571 242.021 217.659 244.17 217.559C244.395 217.547 244.62 217.535 244.845 217.517C246.567 217.399 248.284 217.121 249.994 216.86C252.474 216.482 254.959 216.136 257.446 215.824C260.519 215.434 263.596 215.098 266.68 214.818C267.988 214.694 269.303 214.581 270.611 214.481L271.251 214.931C273.505 232.95 274.194 251.131 273.31 269.269C273.097 269.275 272.89 269.28 272.676 269.292C260.217 269.707 247.765 270.296 235.321 271.062C235.326 271.015 235.328 270.967 235.327 270.92ZM267.681 223.91C267.715 223.541 267.675 223.168 267.562 222.815C267.442 222.172 267.218 221.552 266.899 220.98C266.74 220.695 266.515 220.451 266.244 220.269C265.972 220.087 265.661 219.972 265.337 219.932L265.183 220.175C264.275 220.311 263.435 220.734 262.786 221.383C262.466 221.709 262.229 222.106 262.095 222.543C261.961 222.98 261.934 223.442 262.016 223.892C262.142 224.369 262.395 224.802 262.748 225.145C263.102 225.488 263.543 225.728 264.023 225.84C264.506 225.941 265.005 225.936 265.485 225.824C265.965 225.713 266.416 225.498 266.805 225.195C267.253 224.896 267.568 224.435 267.681 223.909V223.91ZM258.382 225.538C258.835 225.055 259.139 224.453 259.26 223.802C259.381 223.152 259.312 222.481 259.063 221.868C258.954 221.572 258.76 221.315 258.507 221.128C258.264 220.974 257.968 220.921 257.731 220.773C257.465 220.607 257.287 220.329 257.033 220.145C256.918 220.041 256.77 219.982 256.615 219.979C256.46 219.977 256.309 220.032 256.192 220.134L255.636 220.24C255.21 220.262 254.798 220.398 254.441 220.631C254.084 220.865 253.796 221.19 253.606 221.572C253.216 222.398 253.098 223.326 253.268 224.224C253.309 224.804 253.53 225.356 253.901 225.804C254.136 226.042 254.421 226.224 254.736 226.337C255.357 226.565 256.03 226.611 256.676 226.469C257.322 226.327 257.914 226.004 258.382 225.537V225.538Z" fill="#171717"/>
<path d="M263.65 189.909C261.926 189.46 260.171 189.136 258.4 188.939C257.287 188.802 256.168 188.72 255.043 188.672C254.913 186.537 254.968 184.393 255.21 182.268C258.282 182.54 261.176 180.332 262.615 177.586C264.077 174.804 264.349 171.56 264.526 168.423C264.71 165.144 264.828 161.852 264.87 158.567C271.274 158.265 277.679 157.961 284.083 157.656C286.534 157.537 289.34 157.567 291.038 159.278C289.934 164.936 287.654 170.301 284.344 175.023C279.603 181.83 272.985 187.228 265.604 191.028C265.45 190.677 265.18 190.391 264.84 190.215C264.499 190.039 264.109 189.986 263.733 190.063L263.65 189.909Z" fill="url(#paint7_linear_10_923)"/>
<path d="M233.268 193.325C233.226 194.893 233.179 196.456 233.138 198.025C233.123 198.279 233.145 198.534 233.203 198.782C227.213 199.143 221.501 201.292 216.019 203.772C215.445 204.032 214.871 204.299 214.303 204.565C210.589 206.224 207.015 208.178 203.613 210.407L203.512 210.259C202.015 197.444 201.227 184.387 203.548 171.69C203.962 169.405 204.56 166.996 206.241 165.386C207.311 164.449 208.58 163.766 209.952 163.391C210.556 167.716 211.854 171.916 213.793 175.828C217.712 183.694 224.619 190.448 233.197 192.378L233.333 192.401C233.291 192.703 233.279 193.024 233.268 193.325Z" fill="#171717"/>
<path d="M210.851 163.113C216.315 161.518 221.982 160.724 227.674 160.757L227.88 160.941C226.695 162.334 225.736 163.906 225.039 165.599C224.655 166.529 224.4 167.724 225.098 168.446C225.391 168.724 225.757 168.913 226.153 168.991C228.289 169.53 230.544 168.369 232.03 166.736L232.166 166.836C230.422 169.204 228.945 171.756 227.762 174.448C226.762 176.727 226.005 179.462 227.259 181.611C227.365 181.902 227.546 182.162 227.783 182.362C228.021 182.562 228.307 182.696 228.613 182.751C228.919 182.805 229.234 182.779 229.526 182.673C229.818 182.567 230.078 182.387 230.278 182.149C231.254 181.261 231.776 179.983 232.267 178.752C232.977 176.958 233.69 175.165 234.403 173.371L234.652 173.424C234.255 175.23 233.616 176.97 233.172 178.764C232.618 180.642 232.557 182.632 232.995 184.541C233.056 184.794 233.157 185.036 233.297 185.257C233.559 185.579 233.917 185.81 234.319 185.917C234.721 186.023 235.146 185.999 235.534 185.849C237.002 185.358 237.772 183.795 238.387 182.374C238.866 181.273 239.34 180.166 239.819 179.065L240.192 179.054L240.601 189.584C239.63 189.708 238.665 189.844 237.706 189.986C237.12 190.069 236.534 190.158 235.954 190.241C235.199 190.269 234.474 190.548 233.894 191.034C233.571 191.421 233.375 191.898 233.332 192.401L233.196 192.378C224.619 190.448 217.711 183.694 213.793 175.828C211.853 171.915 210.556 167.716 209.951 163.391C210.248 163.291 210.549 163.202 210.851 163.113Z" fill="url(#paint8_linear_10_923)"/>
<path d="M231.29 274.198C232.64 273.103 233.977 272.008 235.327 270.919C235.328 270.966 235.327 271.014 235.321 271.061C247.763 270.298 260.215 269.708 272.677 269.291C271.66 271.369 269.552 272.748 267.332 273.411C265.083 274.08 262.697 274.109 260.347 274.133C250.658 274.228 240.968 274.325 231.278 274.423V274.198H231.29Z" fill="#171717"/>
<path d="M223.832 372.782C221.311 380.21 218.085 387.414 213.746 393.854C210.739 398.323 205.921 402.171 200.398 402.632C194.639 403.112 190.572 399.88 188.424 394.778C187.287 391.999 186.332 389.15 185.565 386.248L186.003 386.124C191.934 381.649 198.445 378.689 204.956 373.954C206.14 372.77 207.916 372.178 207.424 370.254L207.241 369.698C214.409 367.362 221.098 363.756 226.987 359.049C227.307 358.789 227.621 358.529 227.934 358.262C226.786 363.104 225.454 367.987 223.832 372.782Z" fill="url(#paint9_linear_10_923)"/>
<path d="M223.566 234.754L224.502 234.796C223.632 253.465 222.537 272.187 219.536 290.584L219.358 290.554L211.912 290.785C211.533 290.832 211.149 290.776 210.799 290.625C210.201 290.294 210.065 289.512 210 288.832C208.982 278.319 209.437 267.718 209.218 257.158C209.136 252.962 208.94 248.777 208.508 244.604L208.425 244.521C212.58 240.055 217.785 236.697 223.566 234.754Z" fill="#171717"/>
<path d="M216.049 203.837C216.582 205.453 217.115 207.063 217.654 208.679L217.387 208.768C214.7 209.712 212.169 211.051 209.875 212.74C209.821 212.773 209.778 212.823 209.751 212.882C209.733 212.948 209.74 213.02 209.769 213.083C210.58 215.628 211.393 218.171 212.207 220.713L212.231 220.76C209.059 222.334 205.827 223.77 202.536 225.069C201.328 221.529 200.121 217.992 198.913 214.456L198.724 214.255C199.996 213.099 201.335 212.019 202.731 211.017C203.021 210.81 203.317 210.603 203.613 210.407C207.015 208.178 210.59 206.224 214.303 204.565C214.871 204.299 215.445 204.032 216.019 203.772L216.049 203.837Z" fill="url(#paint10_linear_10_923)"/>
<path d="M170.057 331.182C169.406 331.62 168.773 332.088 168.151 332.579L166.784 332.828C165.348 333.031 163.886 332.93 162.492 332.532C161.528 332.301 160.569 331.999 159.61 331.733C166.594 306.428 171.371 275.353 173.058 241.175L174.029 241.223C176.486 241.467 178.924 241.873 181.327 242.436L181.629 242.531C180.339 246.455 179.286 250.468 178.368 254.499C178.052 255.879 177.756 257.264 177.48 258.655C177.089 260.572 176.74 262.502 176.433 264.432C174.916 273.249 174.512 282.222 175.231 291.139C175.456 293.649 175.852 296.289 177.468 298.218C180.026 301.284 184.589 301.462 188.578 301.385C190.674 301.35 192.852 301.29 194.729 300.355C195.506 299.959 196.209 299.433 196.806 298.798C202.642 305.357 207.94 311.838 212.078 319.314L212.137 319.344C211.499 320.604 210.758 321.809 209.923 322.949C205.596 328.82 198.624 332.431 191.42 333.556C186.477 334.266 181.447 334.07 176.575 332.976C174.369 332.509 172.192 331.911 170.057 331.182Z" fill="url(#paint11_linear_10_923)"/>
<path d="M198.889 270.824L198.794 270.83C198.788 270.718 198.782 270.605 198.782 270.493C198.701 268.306 198.821 266.117 199.143 263.952C199.715 260.053 200.91 256.272 202.683 252.753L203.73 252.824C205.588 254.177 207.375 255.623 209.087 257.157H209.217C209.436 267.717 208.98 278.318 209.999 288.83C210.064 289.511 210.2 290.293 210.798 290.624C211.148 290.776 211.532 290.831 211.911 290.784L219.357 290.553L219.534 290.583C218.617 296.176 217.522 301.746 216.208 307.269C215.219 311.406 214.071 315.585 212.135 319.344L212.076 319.314C207.939 311.838 202.641 305.357 196.805 298.798C198.138 297.335 199.043 295.533 199.421 293.589C200.007 290.813 199.741 287.931 199.48 285.107L199.498 284.965C201.285 285.167 203.091 283.645 203.553 281.84C204.061 279.851 203.321 277.738 202.267 275.974C201.214 274.21 199.841 272.648 198.889 270.824Z" fill="url(#paint12_linear_10_923)"/>
<path d="M198.752 270.493C191.887 266.989 184.373 264.94 176.68 264.474L176.431 264.432C176.739 262.503 177.088 260.573 177.479 258.655L177.52 258.661C182.664 258.474 187.795 259.309 192.614 261.118C194.763 261.928 196.834 262.923 198.9 263.917L199.143 263.953C198.821 266.117 198.701 268.306 198.782 270.493H198.752Z" fill="url(#paint13_linear_10_923)"/>
<path d="M182.209 373.469C190.704 373.619 199.166 372.345 207.241 369.698L207.424 370.255C207.916 372.178 206.14 372.77 204.956 373.954C198.445 378.689 191.934 381.649 186.003 386.124L185.565 386.248C184.505 382.454 183.606 378.606 182.428 374.86L182.196 374.132L182.209 373.469Z" fill="url(#paint14_linear_10_923)"/>
<path d="M176.851 373.184C173.815 372.923 170.832 372.231 167.99 371.13C166.593 370.569 165.26 369.861 164.013 369.017C161.41 367.327 159.329 364.946 158.005 362.139C156.886 359.474 156.389 356.59 156.549 353.704C156.798 345.548 161.663 337.705 168.151 332.579C168.772 332.088 169.405 331.62 170.057 331.182C172.191 331.91 174.368 332.509 176.574 332.976L176.55 333.1C172.15 337.817 169.407 343.84 168.738 350.257C168.068 356.672 169.508 363.132 172.839 368.656C173.864 370.349 175.118 371.995 176.882 372.9L176.851 373.184Z" fill="url(#paint15_linear_10_923)"/>
<path d="M130.303 383.165C129.006 381.437 127.927 379.556 127.089 377.565C125.562 373.617 125.769 369.154 126.965 365.099C127.662 362.824 128.592 360.625 129.741 358.541L129.747 358.535C130.617 356.907 131.594 355.321 132.6 353.77C136.694 347.46 141.371 341.549 146.569 336.113C147.717 334.851 148.994 333.714 150.381 332.722C152.938 331.36 155.738 330.756 158.745 331.721C159.014 331.814 159.27 331.939 159.509 332.094C159.544 331.976 159.574 331.857 159.609 331.733C160.568 332 161.527 332.301 162.492 332.532L162.462 332.645C159.547 334.415 157.277 337.075 155.987 340.233C155.351 341.911 154.898 343.654 154.637 345.43C153.868 350.065 153.678 354.848 154.661 359.441C155.643 364.034 157.857 368.444 161.35 371.587L161.409 371.646C160.485 372.546 159.562 373.451 158.639 374.351C156.336 376.6 154.033 378.851 151.731 381.105C149.334 383.443 146.877 385.834 143.847 387.267C140.816 388.699 137.051 389.037 134.198 387.279C132.576 386.278 131.398 384.722 130.303 383.165Z" fill="#171717"/>
<path d="M135.973 326.032C124.047 326.636 111.942 327.27 100.618 331.046C100.577 330.857 100.547 330.661 100.512 330.472C97.7771 315.094 96.0191 299.559 95.2496 283.959C94.9596 278.158 94.8234 272.239 96.4926 266.675C98.1618 261.111 101.926 255.89 107.372 253.884C109.869 253.054 112.497 252.685 115.126 252.795C118.169 252.83 121.366 253.227 123.851 254.985C126.379 256.778 127.823 259.744 128.758 262.703C130.167 267.166 130.64 271.86 131.108 276.513C132.748 292.909 134.39 309.307 136.033 325.707C136.045 325.813 136.057 325.914 136.062 326.021L135.973 326.032Z" fill="#171717"/>
<path d="M61.7293 369.29L62.2147 369.497C58.0299 379.222 55.8694 390.025 54.4014 400.644C54.3132 401.265 54.2303 401.892 54.1475 402.514L54.1054 402.508C46.4401 398.134 38.6623 393.968 30.7721 390.013C34.2496 378.714 38.7677 367.762 44.2678 357.297C50.4977 360.664 56.3512 364.684 61.7293 369.29Z" fill="url(#paint16_linear_10_923)"/>
<path d="M42.9134 305.315C33.4214 316.939 25.5667 329.809 19.5682 343.565C14.0089 337.143 7.85357 331.263 1.18326 326.003H1.02344C1.06487 314.68 2.84714 303.504 7.49368 293.228C11.6371 284.176 17.8422 276.22 25.6122 269.996L25.6708 270.067C30.9442 282.04 36.6917 293.79 42.9134 305.315Z" fill="url(#paint17_linear_10_923)"/>
<path d="M1.18326 326.003C7.85357 331.263 14.0089 337.143 19.5682 343.565C25.5667 329.809 33.4214 316.939 42.9134 305.315C36.6982 293.803 30.9507 282.053 25.6708 270.067L25.6123 269.996C33.3983 263.665 42.5659 259.257 52.3728 257.127L52.8345 257.086C56.0723 295.164 63.1806 328.589 72.8052 353.296L72.0949 353.574C67.9739 358.321 64.6391 363.697 62.2158 369.497L61.731 369.29C56.3522 364.684 50.4988 360.664 44.2689 357.297C38.7694 367.762 34.2513 378.714 30.7738 390.013C38.6581 393.967 46.4359 398.132 54.1071 402.508L54.1485 402.514C54.1308 402.668 54.1071 402.828 54.0894 402.982C53.3731 408.528 52.4136 414.737 47.9269 418.069C43.7598 421.159 37.7045 420.585 33.2592 417.916C28.8139 415.246 25.6768 410.872 22.9658 406.45C12.8026 389.865 6.85382 370.959 3.46806 351.799C1.8906 343.29 1.07257 334.657 1.02344 326.003H1.18326Z" fill="url(#paint18_linear_10_923)"/>
<path d="M129.748 358.535C130.366 356.937 131.079 355.377 131.884 353.864C134.768 348.535 138.358 343.619 142.556 339.25L142.888 338.901C145.036 336.657 147.552 334.23 150.381 332.721C152.938 331.36 155.738 330.756 158.745 331.721C159.014 331.814 159.271 331.939 159.509 332.094C159.545 331.975 159.574 331.857 159.61 331.733C166.594 306.428 171.371 275.353 173.058 241.175C173.532 231.634 173.763 221.849 173.733 211.887C173.673 191.616 172.191 171.375 169.299 151.31C167.796 140.922 165.955 130.949 163.842 121.496C163.238 118.791 162.615 116.131 161.972 113.517C161.297 110.782 160.6 108.097 159.882 105.461C146.86 57.5805 127.125 26.3095 111.736 26.3569C94.9607 26.4101 73.2432 63.7187 60.813 119.14C60.2388 121.691 59.6884 124.289 59.1497 126.918C55.3561 145.833 52.8701 164.988 51.7093 184.245C51.147 193.384 50.8629 202.742 50.8925 212.266C50.9102 218.262 51.0209 224.187 51.224 230.041C51.5436 239.269 52.0822 248.302 52.834 257.086C56.0717 295.164 63.1807 328.589 72.8052 353.296C77.5702 365.525 82.9507 375.617 88.7811 383.081L89.3138 383.756" stroke="#171717" stroke-width="3" stroke-linecap="round" stroke-linejoin="round"/>
<path d="M134.014 386.397C133.962 386.349 133.908 386.302 133.855 386.249C126.03 378.429 126.054 368.029 129.741 358.541" stroke="#171717" stroke-width="3" stroke-linecap="round" stroke-linejoin="round"/>
<path d="M142.142 164.25C142.16 170.406 140.353 176.43 136.948 181.56C133.543 186.689 128.693 190.694 123.013 193.067C117.332 195.441 111.075 196.076 105.033 194.893C98.9909 193.711 93.4352 190.763 89.0686 186.422C84.7015 182.082 81.72 176.545 80.5006 170.51C79.2813 164.475 79.8785 158.215 82.2172 152.519C84.5558 146.824 88.5312 141.95 93.64 138.514C98.7482 135.078 104.762 133.235 110.918 133.216C119.173 133.192 127.1 136.448 132.956 142.268C138.811 148.087 142.115 155.994 142.142 164.25Z" stroke="#171717" stroke-width="3" stroke-linecap="round" stroke-linejoin="round"/>
<path d="M135.696 164.22C135.71 169.073 134.285 173.822 131.602 177.865C128.917 181.908 125.095 185.064 120.616 186.936C116.138 188.806 111.206 189.307 106.443 188.374C101.681 187.442 97.3011 185.118 93.8591 181.697C90.4171 178.276 88.0672 173.91 87.106 169.153C86.1447 164.397 86.6159 159.461 88.4597 154.972C90.3035 150.483 93.4365 146.641 97.4639 143.933C101.491 141.224 106.231 139.77 111.084 139.756C114.306 139.746 117.499 140.371 120.479 141.595C123.46 142.819 126.171 144.619 128.457 146.891C130.742 149.162 132.557 151.862 133.799 154.835C135.042 157.808 135.686 160.998 135.696 164.22Z" stroke="#171717" stroke-width="3" stroke-linecap="round" stroke-linejoin="round"/>
<path d="M60.5634 119.335L60.812 119.14C68.134 113.286 76.847 109.373 85.7849 106.52C109.702 98.9376 135.33 98.612 159.431 105.585" stroke="#171717" stroke-width="3" stroke-linecap="round" stroke-linejoin="round"/>
<path d="M58.3383 127.521C58.6046 127.32 58.8769 127.113 59.1492 126.918C73.2605 116.512 90.7043 111.202 108.184 109.675C125.994 108.118 143.941 110.297 161.509 113.635" stroke="#171717" stroke-width="3" stroke-linecap="round" stroke-linejoin="round"/>
<path d="M163.711 121.526L145.533 121.828C146.734 131.476 147.936 141.12 149.138 150.761C149.148 150.933 149.196 151.1 149.28 151.252C149.487 151.577 149.943 151.607 150.327 151.601C156.649 151.506 162.973 151.409 169.298 151.311H169.357" stroke="#171717" stroke-width="3" stroke-linecap="round" stroke-linejoin="round"/>
<path d="M51.8803 184.257C57.5864 181.972 63.2884 179.691 68.9867 177.415C68.7145 180.723 69.1229 184.044 69.5254 187.341C70.9637 199.025 72.4003 210.712 73.8345 222.4C66.551 224.012 59.4794 226.465 52.7623 229.71C52.3598 229.906 51.9987 230.338 51.5726 230.213C51.5305 230.206 51.4926 230.185 51.4654 230.152C51.4388 230.119 51.424 230.078 51.4246 230.036C51.4246 229.793 51.7797 229.45 51.7738 229.781" stroke="#171717" stroke-width="3" stroke-linecap="round" stroke-linejoin="round"/>
<path d="M141.981 338.261C140.087 334.088 138.213 329.91 136.358 325.725C136.305 325.612 136.257 325.494 136.204 325.381" stroke="#171717" stroke-width="3" stroke-linecap="round" stroke-linejoin="round"/>
<path d="M100.353 330.993C100.353 331.005 100.346 331.01 100.346 331.022C97.1797 348.519 93.3246 365.873 88.7804 383.081C87.9991 386.065 87.1923 389.04 86.3595 392.007C85.294 395.831 84.1948 399.644 83.0625 403.444C81.0441 410.227 78.9173 416.977 76.6816 423.693C101.649 416.146 127.492 412.05 153.317 408.736C160.538 407.812 167.772 406.942 174.999 406.078C170.056 396.566 165.222 387.002 160.497 377.387C160.118 376.629 159.745 375.866 159.372 375.102" stroke="#171717" stroke-width="3" stroke-linecap="round" stroke-linejoin="round"/>
<path d="M100.566 331.064L100.619 331.046C111.943 327.269 124.048 326.636 135.975 326.032" stroke="#171717" stroke-width="3" stroke-linecap="round" stroke-linejoin="round"/>
<path d="M136.069 326.056C136.069 326.044 136.068 326.032 136.063 326.021C136.057 325.914 136.045 325.813 136.034 325.707C134.394 309.311 132.752 292.913 131.108 276.513C130.641 271.86 130.167 267.166 128.759 262.703C127.824 259.744 126.38 256.778 123.852 254.985C121.365 253.227 118.169 252.83 115.127 252.795C112.497 252.685 109.87 253.054 107.373 253.884C101.927 255.89 98.1564 261.117 96.4931 266.675C94.8299 272.233 94.9601 278.158 95.2501 283.959C96.0196 299.559 97.777 315.094 100.512 330.472C100.548 330.661 100.577 330.857 100.619 331.046C100.66 331.295 100.702 331.543 100.749 331.792" stroke="#171717" stroke-width="3" stroke-linecap="round" stroke-linejoin="round"/>
<path d="M100.98 330.389C100.827 330.418 100.667 330.448 100.513 330.472C98.8951 330.774 97.2833 331.071 95.6769 331.365L94.3983 321.066L93.1198 310.838C92.9008 309.068 92.6818 307.304 92.4628 305.534C91.5039 297.78 90.539 290.002 90.2017 282.207C90.0773 279.271 90.0418 276.335 90.1247 273.393C90.1365 272.991 90.1484 272.588 90.172 272.192C90.2206 270.77 90.349 269.354 90.5568 267.948C91.8413 259.678 97.2987 252.007 104.994 248.722C112.689 245.437 122.414 247.029 128.185 253.09C130.675 255.839 132.541 259.094 133.654 262.632C134.541 265.306 135.264 268.032 135.821 270.795C135.939 271.345 136.052 271.896 136.164 272.452C138.662 284.58 140.224 296.883 140.834 309.251C140.992 312.43 141.085 315.612 141.112 318.799C141.142 321.173 141.133 323.546 141.083 325.92C139.502 325.855 137.934 325.784 136.359 325.725L136.034 325.707C135.975 325.707 135.915 325.701 135.856 325.701" stroke="#171717" stroke-width="3" stroke-linecap="round" stroke-linejoin="round"/>
<path d="M90.1249 272.192C87.7495 272.536 85.4085 273.084 83.1278 273.831C83.5717 276.524 84.0192 279.219 84.4715 281.917C84.478 282.049 84.5354 282.174 84.6313 282.266C84.7313 282.329 84.8509 282.354 84.9687 282.337L89.7395 282.231" stroke="#171717" stroke-width="3" stroke-linecap="round" stroke-linejoin="round"/>
<path d="M92.9772 310.856C91.231 310.981 89.5127 311.358 87.8749 311.974C87.6908 312.03 87.5215 312.125 87.3777 312.253C87.2457 312.45 87.1634 312.676 87.1391 312.912C87.1143 313.149 87.1474 313.387 87.2356 313.608C87.8559 316.405 88.1773 319.26 88.1945 322.126C90.1537 321.788 92.1112 321.449 94.0669 321.108" stroke="#171717" stroke-width="3" stroke-linecap="round" stroke-linejoin="round"/>
<path d="M141.272 318.799C142.907 318.497 144.576 318.426 146.232 318.586C145.912 315.437 145.595 312.286 145.279 309.133C145.278 309.011 145.248 308.892 145.191 308.784C145.025 308.518 144.628 308.541 144.321 308.6C143.161 308.82 141.995 309.033 140.834 309.252L140.638 309.287" stroke="#171717" stroke-width="3" stroke-linecap="round" stroke-linejoin="round"/>
<path d="M136.133 272.464C136.145 272.458 136.151 272.452 136.163 272.452C137.533 271.802 138.987 271.345 140.484 271.097C139.412 267.759 138.755 264.302 138.53 260.803C137.031 261.371 135.534 261.938 134.038 262.502" stroke="#171717" stroke-width="3" stroke-linecap="round" stroke-linejoin="round"/>
<path d="M52.3717 257.129C42.6152 259.282 33.4884 263.66 25.7035 269.923C17.9186 276.185 11.6857 284.161 7.4926 293.23C2.84606 303.505 1.06438 314.681 1.02295 326.004C1.07149 334.658 1.88952 343.291 3.46757 351.8C6.85333 370.96 12.8021 389.866 22.9653 406.451C25.6763 410.873 28.8134 415.247 33.2587 417.917C37.704 420.586 43.7593 421.161 47.9264 418.071C52.4132 414.738 53.3721 408.529 54.0883 402.983C54.106 402.829 54.1297 402.669 54.1475 402.515C54.2303 401.894 54.3132 401.266 54.402 400.645C55.8699 390.026 58.0304 379.223 62.2153 369.498C64.638 363.698 67.9729 358.323 72.0944 353.576" stroke="#171717" stroke-width="3" stroke-linecap="round" stroke-linejoin="round"/>
<path d="M25.6704 270.067C30.9443 282.041 36.6919 293.791 42.9129 305.315C33.4209 316.939 25.5662 329.809 19.5677 343.565C14.009 337.143 7.85308 331.262 1.18396 326.003" stroke="#171717" stroke-width="3" stroke-linecap="round" stroke-linejoin="round"/>
<path d="M61.7293 369.29C56.3512 364.684 50.4977 360.664 44.2678 357.297C38.7683 367.762 34.2502 378.714 30.7721 390.013C38.6564 393.967 46.4342 398.132 54.1054 402.508" stroke="#171717" stroke-width="3" stroke-linecap="round" stroke-linejoin="round"/>
<path d="M228.106 357.528C228.047 357.771 227.994 358.019 227.935 358.262C226.787 363.104 225.455 367.987 223.833 372.782C221.311 380.21 218.085 387.414 213.747 393.854C210.74 398.323 205.922 402.17 200.399 402.632C194.64 403.112 190.573 399.88 188.424 394.777C187.287 391.999 186.333 389.15 185.566 386.248C184.506 382.454 183.606 378.606 182.428 374.859L182.198 374.131" stroke="#171717" stroke-width="3" stroke-linecap="round" stroke-linejoin="round"/>
<path d="M203.731 252.824C205.588 254.177 207.376 255.623 209.087 257.157" stroke="#171717" stroke-width="3" stroke-linecap="round" stroke-linejoin="round"/>
<path d="M174.029 241.223C176.486 241.467 178.923 241.872 181.327 242.436" stroke="#171717" stroke-width="3" stroke-linecap="round" stroke-linejoin="round"/>
<path d="M196.717 298.698C196.746 298.733 196.776 298.763 196.805 298.798C202.642 305.357 207.939 311.838 212.077 319.314" stroke="#171717" stroke-width="3" stroke-linecap="round" stroke-linejoin="round"/>
<path d="M207.424 370.255C207.915 372.178 206.139 372.77 204.955 373.954C198.444 378.689 191.933 381.649 186.002 386.124" stroke="#171717" stroke-width="3" stroke-linecap="round" stroke-linejoin="round"/>
<path d="M291.068 376.755C300.255 376.915 309.133 379.874 319.196 381.65C333.402 384.018 346.424 386.977 360.038 390.529C363.288 391.423 366.517 392.352 369.727 393.317C389.876 399.372 409.161 406.86 427.718 416.467" stroke="#171717" stroke-width="3" stroke-linecap="round" stroke-linejoin="round"/>
<path d="M223.602 372.782H223.833C231.853 372.699 239.875 372.814 247.9 373.125" stroke="#171717" stroke-width="3" stroke-linecap="round" stroke-linejoin="round"/>
<path d="M160.864 377.204C168.032 376.286 175.22 375.505 182.428 374.86C182.451 374.86 182.469 374.854 182.493 374.854" stroke="#171717" stroke-width="3" stroke-linecap="round" stroke-linejoin="round"/>
<path d="M54.6973 400.685C64.9374 397.471 75.251 394.511 85.6367 391.806" stroke="#171717" stroke-width="3" stroke-linecap="round" stroke-linejoin="round"/>
<path d="M4.14355 418.608C11.1223 415.826 18.1465 413.159 25.2158 410.605" stroke="#171717" stroke-width="3" stroke-linecap="round" stroke-linejoin="round"/>
<path d="M64.9441 446.399C87.3902 444.019 110.557 450.583 132.429 444.984C134.785 444.38 137.312 443.486 138.555 441.397C137.171 440.56 135.627 440.021 134.023 439.816C132.419 439.61 130.789 439.741 129.239 440.201" stroke="#171717" stroke-width="3" stroke-linecap="round" stroke-linejoin="round"/>
<path d="M115.843 439.321C113.127 440.245 110.193 440.318 107.434 439.531C104.676 438.743 102.224 437.13 100.406 434.911C102.454 433.366 105.082 432.875 107.615 432.472C124.563 429.76 141.735 428.702 158.887 429.311" stroke="#171717" stroke-width="3" stroke-linecap="round" stroke-linejoin="round"/>
<path d="M174.833 429.18C179.923 428.469 185.108 428.86 190.24 428.564C195.372 428.268 200.7 427.179 204.713 423.959C198.687 420.236 190.791 423.154 183.848 421.739C183.861 421.841 183.897 421.938 183.954 422.024C184.011 422.108 184.087 422.179 184.176 422.23C184.265 422.281 184.364 422.311 184.466 422.317C184.568 422.324 184.671 422.306 184.765 422.266" stroke="#171717" stroke-width="3" stroke-linecap="round" stroke-linejoin="round"/>
<path d="M239.157 426.747C235.924 426.871 232.755 427.689 229.867 429.147C226.978 430.604 224.438 432.667 222.418 435.194C222.335 436.567 224.128 437.135 225.501 437.242C245.887 438.859 266.314 439.457 286.783 439.035" stroke="#171717" stroke-width="3" stroke-linecap="round" stroke-linejoin="round"/>
<path d="M303.498 439.1C311.667 438.815 319.807 440.221 327.406 443.232C323.381 447.861 316.639 448.731 310.53 449.293C298.739 450.376 286.946 451.458 275.151 452.537" stroke="#171717" stroke-width="3" stroke-linecap="round" stroke-linejoin="round"/>
<path d="M327.779 407.078C326.346 406.774 324.858 406.847 323.461 407.289C322.064 407.73 320.805 408.527 319.806 409.599C319.658 409.726 319.541 409.886 319.464 410.066C319.387 410.245 319.352 410.44 319.362 410.635C319.451 411.109 319.99 411.339 320.451 411.487C330.97 414.743 342.193 414.666 353.202 414.565" stroke="#171717" stroke-width="3" stroke-linecap="round" stroke-linejoin="round"/>
<path d="M350.278 431.791C365.465 432.483 380.654 433.178 395.843 433.874" stroke="#171717" stroke-width="3" stroke-linecap="round" stroke-linejoin="round"/>
<path d="M375.091 223.773V223.779C373.44 280.425 371.569 336.793 369.728 393.316C369.302 406.314 368.882 419.324 368.467 432.346" stroke="#171717" stroke-width="3" stroke-linecap="round" stroke-linejoin="round"/>
<path d="M382.098 1.71667C380.855 31.8272 380.086 62.1038 379.299 92.3981C378.482 123.959 377.648 155.544 376.256 186.992" stroke="#171717" stroke-width="3" stroke-linecap="round" stroke-linejoin="round"/>
<path d="M381.744 1.35437C381.726 1.37663 381.71 1.40042 381.696 1.4254C373.806 12.8197 360.08 18.8514 346.483 21.5446C326.739 25.4128 306.295 23.4423 287.653 15.874C286.982 44.1795 285.196 72.4317 282.296 100.631C282.182 100.968 282.143 101.327 282.182 101.681C282.221 102.035 282.337 102.376 282.521 102.681C282.705 102.986 282.953 103.246 283.249 103.446C283.544 103.645 283.88 103.777 284.231 103.833C299.769 109.853 316.591 112.978 333.183 111.457C349.774 109.935 366.111 103.572 378.441 92.3733" stroke="#171717" stroke-width="3" stroke-linecap="round" stroke-linejoin="round"/>
<path d="M240.607 189.738C240.607 189.685 240.601 189.637 240.601 189.584L240.193 179.054C239.996 173.993 239.8 168.93 239.607 163.865C239.477 160.391 239.482 156.514 241.85 153.962C243.296 152.53 245.188 151.634 247.213 151.423C249.222 151.223 251.247 151.251 253.25 151.506C257.027 151.849 260.803 152.191 264.58 152.53C264.68 152.542 264.782 152.548 264.882 152.56C268.35 152.861 272.056 153.063 275.034 151.281C276.312 150.517 277.466 149.109 277.07 147.682C276.632 146.096 274.648 145.581 273.009 145.539C271.054 145.491 269.101 145.718 267.208 146.214C267.06 146.25 266.912 146.291 266.764 146.333C266.54 146.392 266.321 146.463 266.096 146.534" stroke="#171717" stroke-width="3" stroke-linecap="round" stroke-linejoin="round"/>
<path d="M239.82 179.066C239.34 180.167 238.867 181.273 238.387 182.374C237.772 183.795 237.002 185.358 235.534 185.849C235.147 186 234.721 186.024 234.319 185.918C233.917 185.811 233.559 185.58 233.297 185.257C233.158 185.036 233.056 184.794 232.995 184.541C232.556 182.632 232.618 180.642 233.173 178.764C233.617 176.97 234.256 175.23 234.652 173.425C234.676 173.33 234.7 173.229 234.717 173.135" stroke="#171717" stroke-width="3" stroke-linecap="round" stroke-linejoin="round"/>
<path d="M234.404 173.372C233.687 175.166 232.975 176.959 232.267 178.753C231.776 179.984 231.254 181.263 230.278 182.15C230.078 182.388 229.819 182.568 229.526 182.674C229.235 182.78 228.92 182.806 228.614 182.752C228.308 182.697 228.022 182.563 227.784 182.363C227.546 182.163 227.365 181.904 227.259 181.612C226.004 179.463 226.762 176.728 227.762 174.45C228.946 171.757 230.423 169.205 232.166 166.837C232.196 166.796 232.231 166.749 232.261 166.707" stroke="#171717" stroke-width="3" stroke-linecap="round" stroke-linejoin="round"/>
<path d="M232.032 166.736C230.546 168.37 228.291 169.53 226.154 168.991C225.758 168.913 225.393 168.725 225.1 168.447C224.402 167.725 224.656 166.529 225.041 165.6C226.37 162.381 228.626 159.63 231.523 157.698C231.653 157.609 231.783 157.52 231.919 157.437" stroke="#171717" stroke-width="3" stroke-linecap="round" stroke-linejoin="round"/>
<path d="M231.461 157.608C231.163 157.727 230.847 157.798 230.526 157.816C229.688 157.795 228.865 157.581 228.123 157.188C227.513 156.922 226.91 156.644 226.306 156.354C225.761 156.093 225.14 155.702 225.122 155.099C225.134 154.851 225.201 154.608 225.317 154.388C225.818 153.065 226.508 151.821 227.365 150.695C228.223 149.7 229.324 148.944 230.561 148.503C231.797 148.061 233.128 147.947 234.421 148.173C234.599 148.203 234.776 148.238 234.954 148.286" stroke="#171717" stroke-width="3" stroke-linecap="round" stroke-linejoin="round"/>
<path d="M234.44 148.191L234.421 148.173C233.801 147.475 233.286 146.689 232.894 145.841C232.465 144.604 232.356 143.279 232.575 141.988C232.628 141.405 232.751 140.831 232.942 140.277C233.723 138.217 236.031 137.016 238.233 137.033C238.77 137.017 239.302 137.124 239.79 137.347C240.499 137.8 241.071 138.436 241.448 139.188C241.829 139.728 242.095 140.34 242.229 140.987C242.241 141.076 242.247 141.164 242.247 141.254" stroke="#171717" stroke-width="3" stroke-linecap="round" stroke-linejoin="round"/>
<path d="M242.335 140.981C242.453 138.697 242.986 136.353 244.371 134.524C244.856 133.89 245.43 133.33 246.076 132.86C246.816 132.296 247.692 131.939 248.615 131.825C249.074 131.77 249.541 131.817 249.979 131.964C250.419 132.11 250.82 132.351 251.154 132.671C251.942 133.47 252.119 134.678 252.155 135.802C252.194 136.852 252.151 137.903 252.025 138.945C251.977 139.354 251.912 139.762 251.841 140.165" stroke="#171717" stroke-width="3" stroke-linecap="round" stroke-linejoin="round"/>
<path d="M251.776 139.721C251.834 139.455 251.918 139.196 252.024 138.945C252.389 138.145 252.859 137.396 253.421 136.72C254.361 135.431 255.487 134.288 256.76 133.328C258.044 132.363 259.618 131.864 261.223 131.913C261.544 131.921 261.86 131.999 262.146 132.144C262.892 132.57 263.034 133.583 262.999 134.441C262.934 135.83 262.62 137.195 262.069 138.472C261.969 138.715 261.856 138.951 261.738 139.182C261.821 139.04 261.909 138.898 261.992 138.756" stroke="#171717" stroke-width="3" stroke-linecap="round" stroke-linejoin="round"/>
<path d="M261.572 138.88C261.732 138.738 261.898 138.596 262.069 138.472C264.715 136.4 268.374 135.796 271.67 136.495C272.601 136.651 273.48 137.024 274.239 137.584C274.613 137.87 274.909 138.244 275.102 138.672C275.293 139.101 275.376 139.571 275.34 140.04C275.198 141.112 274.31 141.911 273.446 142.556C271.512 144.007 269.419 145.234 267.207 146.214C267.042 146.291 266.876 146.362 266.71 146.433C266.728 146.397 266.746 146.362 266.763 146.332C266.799 146.267 266.834 146.202 266.864 146.137" stroke="#171717" stroke-width="3" stroke-linecap="round" stroke-linejoin="round"/>
<path d="M249.598 160.758C249.366 160.417 249.047 160.144 248.674 159.968C248.301 159.793 247.888 159.72 247.478 159.757C247.067 159.794 246.674 159.941 246.339 160.182C246.004 160.422 245.74 160.747 245.573 161.125" stroke="#171717" stroke-width="3" stroke-linecap="round" stroke-linejoin="round"/>
<path d="M244.141 172.821C243.832 172.921 243.857 173.359 243.945 173.667C244.255 174.934 244.92 176.086 245.863 176.988C246.34 177.429 246.934 177.724 247.575 177.838C248.214 177.951 248.874 177.878 249.473 177.627" stroke="#171717" stroke-width="3" stroke-linecap="round" stroke-linejoin="round"/>
<path d="M252.108 171.802C252.771 171.714 253.422 171.553 254.05 171.323C254.294 171.254 254.516 171.124 254.695 170.944C254.915 170.602 254.998 170.19 254.926 169.79C254.612 165.392 253.032 161.148 252.831 156.744C252.807 156.593 252.83 156.438 252.896 156.3C252.963 156.22 253.047 156.154 253.14 156.106C253.234 156.058 253.336 156.03 253.44 156.022C255.745 155.53 258.088 155.242 260.443 155.164" stroke="#171717" stroke-width="3" stroke-linecap="round" stroke-linejoin="round"/>
<path d="M256.832 160.757C257 160.443 257.256 160.184 257.57 160.013C257.883 159.843 258.24 159.768 258.595 159.799C258.951 159.829 259.289 159.963 259.569 160.184C259.849 160.405 260.058 160.703 260.17 161.042" stroke="#171717" stroke-width="3" stroke-linecap="round" stroke-linejoin="round"/>
<path d="M255.057 188.892C255.051 188.821 255.044 188.744 255.044 188.673C254.913 186.537 254.969 184.394 255.21 182.268C255.21 182.244 255.216 182.221 255.216 182.197" stroke="#171717" stroke-width="3" stroke-linecap="round" stroke-linejoin="round"/>
<path d="M255.061 182.256C255.11 182.263 255.16 182.267 255.209 182.268C258.281 182.54 261.176 180.332 262.614 177.586C264.076 174.804 264.348 171.56 264.526 168.423C264.709 165.144 264.828 161.853 264.869 158.567C264.899 156.59 264.899 154.607 264.875 152.63" stroke="#171717" stroke-width="3" stroke-linecap="round" stroke-linejoin="round"/>
<path d="M263.65 189.909C261.926 189.461 260.17 189.136 258.399 188.939C257.287 188.802 256.168 188.72 255.043 188.672C253.747 188.613 252.445 188.607 251.137 188.643C248.84 188.702 246.531 188.885 244.229 189.14C243.016 189.27 241.806 189.418 240.601 189.584C239.63 189.708 238.665 189.844 237.706 189.986C237.12 190.069 236.534 190.158 235.953 190.241C235.198 190.27 234.474 190.549 233.894 191.034C233.571 191.421 233.374 191.899 233.332 192.401C233.29 192.703 233.278 193.023 233.267 193.325C233.225 194.893 233.177 196.456 233.136 198.024C233.123 198.279 233.145 198.534 233.202 198.782C233.223 198.898 233.268 199.008 233.334 199.105C233.4 199.201 233.486 199.283 233.586 199.344C233.849 199.458 234.141 199.487 234.421 199.427C235.415 199.315 236.41 199.214 237.404 199.12C239.606 198.901 241.81 198.723 244.015 198.587C246.247 198.433 248.473 198.32 250.704 198.255C253.078 198.167 255.452 198.131 257.825 198.131C259.66 198.131 261.489 198.155 263.324 198.202C264.01 198.22 264.809 198.19 265.212 197.64C265.331 197.472 265.414 197.28 265.455 197.077C265.484 196.947 265.508 196.811 265.526 196.681C265.691 195.568 265.81 194.452 265.881 193.331C265.99 192.561 265.898 191.776 265.614 191.052C265.608 191.046 265.608 191.034 265.603 191.028C265.448 190.678 265.179 190.391 264.838 190.215C264.497 190.04 264.107 189.986 263.732 190.063" stroke="#171717" stroke-width="3" stroke-linecap="round" stroke-linejoin="round"/>
<path d="M257.826 197.947C258.015 194.976 258.203 192.005 258.388 189.033" stroke="#171717" stroke-width="3" stroke-linecap="round" stroke-linejoin="round"/>
<path d="M250.688 197.805C250.99 194.844 251.143 191.869 251.144 188.891" stroke="#171717" stroke-width="3" stroke-linecap="round" stroke-linejoin="round"/>
<path d="M244.005 198.362C243.987 195.355 244.07 192.352 244.253 189.353L244.307 189.726" stroke="#171717" stroke-width="3" stroke-linecap="round" stroke-linejoin="round"/>
<path d="M237.387 198.918C237.243 195.99 237.358 193.055 237.73 190.146" stroke="#171717" stroke-width="3" stroke-linecap="round" stroke-linejoin="round"/>
<path d="M265.409 191.13C265.473 191.094 265.539 191.065 265.604 191.029C272.985 187.229 279.603 181.831 284.344 175.024C287.653 170.302 289.934 164.938 291.038 159.279C291.529 156.699 291.737 154.073 291.66 151.448C291.28 141.965 287.243 132.998 280.396 126.427C277.321 123.565 273.899 121.101 270.21 119.094C265.629 116.525 260.68 114.423 255.459 113.855C251.94 113.52 248.391 113.741 244.941 114.512C231.99 117.205 220.329 125.835 214.25 137.585C210.188 145.537 208.687 154.552 209.953 163.393C210.557 167.717 211.854 171.917 213.794 175.829C217.713 183.695 224.621 190.449 233.197 192.379" stroke="#171717" stroke-width="3" stroke-linecap="round" stroke-linejoin="round"/>
<path d="M233.29 198.776C233.261 198.776 233.231 198.782 233.202 198.782C227.211 199.143 221.499 201.292 216.018 203.772C215.444 204.032 214.87 204.299 214.302 204.565C210.589 206.225 207.014 208.178 203.612 210.407C203.316 210.603 203.02 210.81 202.73 211.017C201.333 212.019 199.996 213.1 198.723 214.255C193.742 218.88 189.633 224.363 186.595 230.444C184.624 234.336 182.964 238.378 181.628 242.531C180.338 246.455 179.285 250.468 178.367 254.499C178.051 255.878 177.755 257.264 177.479 258.655C177.088 260.572 176.739 262.502 176.432 264.432C174.914 273.249 174.511 282.222 175.23 291.139C175.455 293.649 175.851 296.289 177.467 298.218C180.024 301.284 184.588 301.462 188.577 301.385C190.672 301.349 192.851 301.29 194.728 300.355C195.505 299.96 196.207 299.433 196.805 298.798C198.139 297.335 199.044 295.533 199.422 293.589C200.008 290.813 199.741 287.931 199.481 285.107" stroke="#171717" stroke-width="3" stroke-linecap="round" stroke-linejoin="round"/>
<path d="M192.532 276.721C193.698 278.603 194.909 280.456 196.166 282.279C196.895 283.339 197.723 284.451 198.948 284.848C199.126 284.907 199.311 284.947 199.498 284.966C201.285 285.168 203.091 283.647 203.553 281.841C204.062 279.852 203.322 277.739 202.268 275.975C201.214 274.211 199.841 272.649 198.889 270.826" stroke="#171717" stroke-width="3" stroke-linecap="round" stroke-linejoin="round"/>
<path d="M198.794 270.861V270.831C198.788 270.719 198.783 270.607 198.783 270.494C198.701 268.307 198.822 266.117 199.143 263.953C199.937 258.461 201.98 253.225 205.116 248.646C206.116 247.192 207.221 245.812 208.425 244.521C212.58 240.055 217.785 236.697 223.567 234.754" stroke="#171717" stroke-width="3" stroke-linecap="round" stroke-linejoin="round"/>
<path d="M265.219 197.101C265.296 197.095 265.379 197.089 265.456 197.077C274.625 196.272 283.792 195.464 292.956 194.651L306.831 193.425C313.744 192.81 320.66 192.198 327.578 191.59C334.55 190.975 341.523 190.357 348.496 189.738L353.545 189.294C362.945 188.465 372.344 187.635 381.744 186.802C383.484 186.648 385.366 186.524 386.87 187.423C387.395 187.743 387.842 188.176 388.178 188.69C388.653 189.447 388.939 190.307 389.011 191.197C389.083 192.087 388.94 192.981 388.592 193.804C387.645 196.018 385.479 197.515 383.182 198.238C380.886 198.96 378.447 199.007 376.044 199.049C374.57 199.072 373.096 199.102 371.622 199.126C369.807 199.155 367.99 199.187 366.17 199.22" stroke="#171717" stroke-width="3" stroke-linecap="round" stroke-linejoin="round"/>
<path d="M388.728 188.678C391.191 188.678 393.482 190.152 394.985 192.099C396.488 194.047 397.305 196.438 397.921 198.818C398.739 202.007 399.232 205.271 399.395 208.561C399.655 213.894 398.655 219.949 394.269 222.992C392.269 224.272 389.965 224.999 387.592 225.099C383.425 225.424 379.264 224.607 375.162 223.791C375.138 223.783 375.114 223.78 375.09 223.779C372.705 223.305 370.184 222.749 368.438 221.062C367.378 219.981 366.637 218.63 366.295 217.155C366.042 216.158 365.885 215.14 365.828 214.113C365.472 208.643 367.183 202.683 371.628 199.481" stroke="#171717" stroke-width="3" stroke-linecap="round" stroke-linejoin="round"/>
<path d="M280.704 223.347C285.125 223.145 289.544 222.941 293.963 222.731C295.348 222.672 296.733 222.609 298.118 222.542C301.942 222.37 305.765 222.192 309.583 221.95C314.887 221.618 320.179 221.163 325.471 220.707C332.929 220.062 340.385 219.419 347.839 218.777C349.585 218.623 351.326 218.475 353.072 218.327C357.434 217.948 361.794 217.572 366.153 217.197" stroke="#171717" stroke-width="3" stroke-linecap="round" stroke-linejoin="round"/>
<path d="M280.295 222.844C280.306 223.022 280.324 223.199 280.336 223.377C281.928 244.325 283.526 265.272 285.018 286.22C287.167 316.39 289.096 346.573 290.505 376.778C290.588 378.364 290.661 379.948 290.724 381.531C290.872 384.656 291.002 387.776 291.133 390.895" stroke="#171717" stroke-width="3" stroke-linecap="round" stroke-linejoin="round"/>
<path d="M224.815 227.888C224.708 230.19 224.608 232.493 224.501 234.795C223.631 253.465 222.536 272.187 219.535 290.584C218.617 296.177 217.522 301.747 216.208 307.27C215.22 311.407 214.071 315.586 212.136 319.345C211.497 320.604 210.757 321.81 209.922 322.95C205.595 328.821 198.622 332.432 191.419 333.557C186.476 334.267 181.446 334.071 176.574 332.977C174.367 332.51 172.191 331.911 170.057 331.183C169.997 331.165 169.944 331.142 169.885 331.124" stroke="#171717" stroke-width="3" stroke-linecap="round" stroke-linejoin="round"/>
<path d="M170.21 331.076C170.157 331.111 170.109 331.147 170.056 331.182C169.405 331.62 168.772 332.088 168.15 332.579C161.663 337.705 156.797 345.548 156.548 353.705C156.389 356.59 156.886 359.474 158.005 362.139C159.329 364.946 161.409 367.328 164.013 369.017C165.26 369.861 166.593 370.569 167.99 371.131C170.832 372.231 173.815 372.922 176.851 373.185C178.39 373.344 179.941 373.421 181.486 373.457C181.729 373.463 181.971 373.469 182.208 373.469C190.704 373.618 199.165 372.344 207.24 369.698C214.408 367.362 221.097 363.755 226.987 359.05C227.306 358.789 227.62 358.529 227.934 358.262C240.269 347.815 247.846 332.005 248.568 315.875C248.692 313.2 248.621 310.52 248.355 307.855" stroke="#171717" stroke-width="3" stroke-linecap="round" stroke-linejoin="round"/>
<path d="M248.249 308.109C248.368 310.696 248.48 313.288 248.568 315.875C249.286 334.958 249.363 354.05 248.8 373.149C248.705 376.612 248.585 380.074 248.439 383.537C248.326 386.289 248.2 389.038 248.06 391.782C248.06 391.836 248.054 391.895 248.054 391.948" stroke="#171717" stroke-width="3" stroke-linecap="round" stroke-linejoin="round"/>
<path d="M248.013 391.706C248.032 391.729 248.043 391.759 248.061 391.782C248.826 393.059 249.88 394.138 251.139 394.931C252.991 396.074 255.007 396.927 257.117 397.459C258.349 397.802 259.592 398.11 260.847 398.359C270.082 400.114 279.639 398.492 287.779 393.789C288.483 393.375 289.176 392.943 289.856 392.487C290.442 392.09 291.076 391.563 291.135 390.895C291.141 390.824 291.141 390.753 291.135 390.682" stroke="#171717" stroke-width="3" stroke-linecap="round" stroke-linejoin="round"/>
<path d="M251.126 394.943C251.196 396.731 251.267 398.52 251.338 400.312L251.801 411.872C251.789 413.126 251.97 414.374 252.339 415.572C252.815 416.7 253.475 417.742 254.292 418.655C257.22 422.254 260.469 425.578 264 428.588C265.277 429.754 266.712 430.736 268.261 431.506C270.446 432.489 272.89 432.702 275.282 432.79C282.438 433.069 289.588 432.435 296.72 431.766C298.372 431.613 300.136 431.411 301.39 430.322C302.645 429.233 303.095 427.487 303.398 425.847C303.924 422.992 304.203 420.097 304.232 417.193C304.318 415.662 304.113 414.127 303.628 412.671C302.925 411.133 301.899 409.764 300.621 408.658C298.265 406.397 295.661 404.402 293.328 402.111C292.336 401.152 291.42 400.117 290.588 399.016C289.423 397.522 288.522 395.841 287.924 394.044" stroke="#171717" stroke-width="3" stroke-linecap="round" stroke-linejoin="round"/>
<path d="M166.783 332.828C165.347 333.031 163.885 332.93 162.491 332.532C161.527 332.301 160.568 331.999 159.609 331.733C157.973 331.17 156.24 330.942 154.513 331.064C153.022 331.273 151.604 331.842 150.381 332.721C148.994 333.714 147.717 334.851 146.569 336.113C141.371 341.548 136.694 347.46 132.6 353.77C131.593 355.32 130.617 356.907 129.747 358.535L129.741 358.54C128.592 360.625 127.661 362.823 126.965 365.099C125.769 369.154 125.562 373.617 127.089 377.565C127.927 379.556 129.006 381.436 130.303 383.164C131.398 384.721 132.576 386.278 134.198 387.278C137.051 389.036 140.815 388.699 143.846 387.266C146.877 385.834 149.333 383.442 151.73 381.104C154.033 378.855 156.335 376.603 158.638 374.351C159.561 373.451 160.485 372.545 161.408 371.645C162.219 370.846 163.036 370.053 163.847 369.26" stroke="#171717" stroke-width="3" stroke-linecap="round" stroke-linejoin="round"/>
<path d="M162.462 332.645C159.546 334.415 157.276 337.075 155.987 340.232C155.35 341.911 154.897 343.654 154.637 345.429C153.868 350.064 153.678 354.847 154.661 359.44C155.644 364.033 157.858 368.443 161.35 371.586" stroke="#171717" stroke-width="3" stroke-linecap="round" stroke-linejoin="round"/>
<path d="M176.549 333.1C172.149 337.817 169.406 343.84 168.737 350.257C168.066 356.672 169.507 363.132 172.838 368.656C173.862 370.349 175.117 371.995 176.881 372.9" stroke="#171717" stroke-width="3" stroke-linecap="round" stroke-linejoin="round"/>
<path d="M248.621 383.543C261.489 390.634 278.318 389.829 290.452 381.542" stroke="#171717" stroke-width="3" stroke-linecap="round" stroke-linejoin="round"/>
<path d="M250.622 399.584C250.853 399.832 251.089 400.075 251.338 400.312C256.174 404.953 263.466 406.497 270.179 405.769C277.234 405.012 283.847 402.094 290.333 399.211" stroke="#171717" stroke-width="3" stroke-linecap="round" stroke-linejoin="round"/>
<path d="M198.912 214.456C200.12 217.996 201.327 221.534 202.535 225.069C205.826 223.767 209.058 222.33 212.231 220.76C214.947 219.422 217.613 217.988 220.227 216.457C219.369 213.864 218.505 211.272 217.653 208.679C217.114 207.063 216.581 205.453 216.048 203.837" stroke="#171717" stroke-width="3" stroke-linecap="round" stroke-linejoin="round"/>
<path d="M212.208 220.713C211.397 218.167 210.583 215.625 209.769 213.083C209.739 213.02 209.733 212.949 209.751 212.882C209.777 212.823 209.82 212.773 209.875 212.74C212.168 211.051 214.7 209.713 217.387 208.768" stroke="#171717" stroke-width="3" stroke-linecap="round" stroke-linejoin="round"/>
<path d="M203.512 210.259C202.014 197.444 201.227 184.387 203.547 171.69C203.961 169.405 204.559 166.996 206.24 165.386C207.309 164.448 208.579 163.766 209.951 163.391C210.247 163.291 210.549 163.202 210.851 163.113C216.315 161.518 221.981 160.724 227.673 160.757" stroke="#171717" stroke-width="3" stroke-linecap="round" stroke-linejoin="round"/>
<path d="M264.646 158.579C264.723 158.573 264.794 158.573 264.871 158.567C271.276 158.265 277.68 157.961 284.085 157.656C286.536 157.537 289.341 157.567 291.04 159.278C291.111 159.349 291.182 159.426 291.247 159.503C292.531 161 292.614 163.155 292.632 165.126C292.727 174.81 292.821 184.493 292.916 194.177" stroke="#171717" stroke-width="3" stroke-linecap="round" stroke-linejoin="round"/>
<path d="M208.508 244.602C208.94 248.775 209.135 252.96 209.218 257.157C209.437 267.717 208.982 278.318 210 288.83C210.065 289.511 210.201 290.292 210.799 290.624C211.149 290.775 211.533 290.831 211.912 290.784L219.358 290.553" stroke="#171717" stroke-width="3" stroke-linecap="round" stroke-linejoin="round"/>
<path d="M284.847 286.22H285.019C287.256 286.25 289.831 286.054 291.08 284.208C291.5 283.493 291.783 282.706 291.914 281.887C294.27 271.138 294.471 260.052 294.566 249.048C294.649 240.27 294.667 231.48 293.962 222.731C293.956 222.631 293.945 222.53 293.939 222.429" stroke="#171717" stroke-width="3" stroke-linecap="round" stroke-linejoin="round"/>
<path d="M198.752 270.493C191.887 266.989 184.373 264.94 176.679 264.474" stroke="#171717" stroke-width="3" stroke-linecap="round" stroke-linejoin="round"/>
<path d="M198.9 263.917C196.835 262.922 194.763 261.928 192.614 261.117C187.795 259.309 182.664 258.473 177.52 258.66" stroke="#171717" stroke-width="3" stroke-linecap="round" stroke-linejoin="round"/>
<path d="M353.545 189.317C352.265 198.879 352.102 208.556 353.059 218.156" stroke="#171717" stroke-width="3" stroke-linecap="round" stroke-linejoin="round"/>
<path d="M348.502 189.709C348.502 189.721 348.496 189.727 348.496 189.739C346.701 199.144 346.463 208.781 347.792 218.263" stroke="#171717" stroke-width="3" stroke-linecap="round" stroke-linejoin="round"/>
<path d="M306.843 193.348C306.837 193.372 306.837 193.402 306.831 193.425C306.624 194.958 306.466 196.496 306.357 198.036C306.154 200.719 306.097 203.41 306.185 206.098C309.098 205.927 312.006 205.757 314.91 205.589L326.221 204.932C326.422 204.984 326.633 204.984 326.834 204.932C327.035 204.879 327.219 204.776 327.368 204.633C327.519 204.489 327.629 204.31 327.69 204.112C327.752 203.914 327.761 203.703 327.719 203.5C327.671 199.558 327.626 195.617 327.583 191.679" stroke="#171717" stroke-width="3" stroke-linecap="round" stroke-linejoin="round"/>
<path d="M314.911 205.607V205.589C314.714 202.849 314.52 200.108 314.331 197.368C314.339 197.254 314.303 197.142 314.23 197.054C314.162 196.99 314.075 196.95 313.982 196.941C312.543 196.651 311.064 196.977 309.631 197.308C308.56 197.551 307.488 197.796 306.417 198.042" stroke="#171717" stroke-width="3" stroke-linecap="round" stroke-linejoin="round"/>
<path d="M270.611 214.48C269.303 214.58 267.988 214.693 266.68 214.817C263.596 215.101 260.519 215.436 257.446 215.823C254.96 216.131 252.477 216.476 249.994 216.859C248.284 217.12 246.567 217.398 244.845 217.516C244.62 217.534 244.395 217.546 244.17 217.558C242.021 217.658 239.843 217.57 237.712 217.729C236.356 217.81 235.015 218.052 233.717 218.452C233.409 220.612 233.705 222.808 233.977 224.968C235.864 240.209 236.316 255.594 235.327 270.919C235.328 270.966 235.326 271.014 235.321 271.061C247.763 270.297 260.215 269.707 272.676 269.291C272.89 269.279 273.097 269.273 273.31 269.268C274.194 251.129 273.505 232.949 271.251 214.93" stroke="#171717" stroke-width="3" stroke-linecap="round" stroke-linejoin="round"/>
<path d="M233.587 218.316C233.581 218.327 233.573 218.337 233.564 218.345C233.025 219.138 232.481 219.943 231.936 220.736C231.672 221.083 231.461 221.466 231.309 221.873C231.182 222.351 231.134 222.847 231.167 223.341C231.356 240.293 231.393 257.246 231.279 274.198V274.423C240.969 274.329 250.659 274.232 260.348 274.133C262.698 274.11 265.084 274.08 267.333 273.411C269.553 272.748 271.66 271.369 272.678 269.291C272.696 269.263 272.712 269.233 272.725 269.203" stroke="#171717" stroke-width="3" stroke-linecap="round" stroke-linejoin="round"/>
<path d="M231.29 274.198C232.64 273.103 233.977 272.008 235.327 270.919C235.41 270.848 235.498 270.783 235.581 270.712" stroke="#171717" stroke-width="3" stroke-linecap="round" stroke-linejoin="round"/>
<path d="M257.424 215.628L257.229 213.249C257.187 213.052 257.22 212.847 257.323 212.674C257.402 212.6 257.495 212.542 257.597 212.505C257.698 212.467 257.806 212.451 257.915 212.455L265.965 211.763C266.048 211.75 266.134 211.758 266.213 211.787C266.263 211.822 266.305 211.867 266.336 211.919C266.368 211.971 266.389 212.029 266.397 212.088C266.651 212.97 266.747 213.89 266.681 214.805" stroke="#171717" stroke-width="3" stroke-linecap="round" stroke-linejoin="round"/>
<path d="M244.165 217.445C244.2 216.66 244.16 215.874 244.047 215.095C244.046 215.007 244.026 214.92 243.989 214.84C243.953 214.759 243.9 214.687 243.834 214.628C243.735 214.57 243.624 214.537 243.509 214.533C241.747 214.374 239.97 214.586 238.294 215.155C238.065 215.216 237.851 215.325 237.667 215.474C237.116 215.989 237.388 216.889 237.702 217.576" stroke="#171717" stroke-width="3" stroke-linecap="round" stroke-linejoin="round"/>
<path d="M265.184 220.175C264.276 220.31 263.436 220.733 262.786 221.382C262.467 221.708 262.23 222.106 262.096 222.543C261.962 222.98 261.935 223.442 262.017 223.892C262.142 224.368 262.396 224.802 262.749 225.144C263.103 225.488 263.543 225.728 264.023 225.839C264.506 225.94 265.005 225.935 265.486 225.824C265.967 225.713 266.417 225.497 266.805 225.194C267.254 224.896 267.568 224.435 267.682 223.91C267.716 223.54 267.676 223.168 267.563 222.815C267.442 222.171 267.219 221.551 266.9 220.98C266.74 220.694 266.515 220.451 266.244 220.269C265.973 220.087 265.662 219.972 265.338 219.932" stroke="#171717" stroke-width="3" stroke-linecap="round" stroke-linejoin="round"/>
<path d="M256.157 220.517C256.174 220.352 255.967 220.263 255.802 220.245C255.746 220.24 255.691 220.238 255.635 220.239C255.21 220.262 254.797 220.397 254.441 220.63C254.084 220.864 253.796 221.189 253.606 221.571C253.217 222.397 253.098 223.325 253.268 224.223C253.308 224.803 253.53 225.356 253.901 225.803C254.136 226.041 254.421 226.223 254.735 226.336C255.355 226.577 256.031 226.629 256.68 226.488C257.329 226.346 257.922 226.016 258.383 225.539C258.846 225.062 259.157 224.458 259.277 223.805C259.398 223.152 259.323 222.478 259.062 221.867C258.953 221.572 258.76 221.314 258.506 221.127C258.264 220.973 257.968 220.92 257.731 220.772C257.464 220.606 257.287 220.328 257.032 220.144C256.918 220.04 256.769 219.98 256.615 219.979C256.46 219.976 256.309 220.031 256.192 220.133" stroke="#171717" stroke-width="3" stroke-linecap="round" stroke-linejoin="round"/>
<path d="M385.501 231.661C387.531 232.013 389.594 231.432 391.568 230.843C393.078 230.427 394.557 229.904 395.992 229.278C398.809 227.927 401.211 225.842 402.945 223.243C404.679 220.643 405.681 217.625 405.845 214.505" stroke="#171717" stroke-width="3" stroke-linecap="round" stroke-linejoin="round"/>
<path d="M410.648 242.263C412.661 241.828 414.537 240.902 416.106 239.568C417.676 238.233 418.891 236.531 419.645 234.613" stroke="#171717" stroke-width="3" stroke-linecap="round" stroke-linejoin="round"/>
<path d="M311.043 116.245C320.962 119.285 331.546 119.416 341.536 116.621" stroke="#171717" stroke-width="3" stroke-linecap="round" stroke-linejoin="round"/>
<path d="M179.867 231.668C182.566 223.838 187.29 216.863 193.559 211.451" stroke="#171717" stroke-width="0.5" stroke-miterlimit="10"/>
<path d="M154.837 325.371C150.768 325.675 146.855 327.061 143.501 329.386C140.148 331.711 137.477 334.889 135.764 338.593C135.654 338.841 135.573 339.19 135.802 339.339C136.031 339.487 136.183 338.905 135.938 339.024" stroke="#171717" stroke-width="3" stroke-miterlimit="10"/>
<path d="M126.043 388.906L131.138 391.037C131.98 391.418 132.855 391.723 133.751 391.945C135.513 392.235 137.315 392.163 139.049 391.735C141.463 391.263 143.838 390.608 146.152 389.776" stroke="#171717" stroke-width="3" stroke-miterlimit="10"/>
<path d="M145.288 336.183C141.087 340.251 137.469 344.881 134.536 349.941" stroke="#171717" stroke-width="0.5" stroke-miterlimit="10"/>
<path d="M128.367 363.006C127.501 364.428 127.051 366.064 127.07 367.727C127.092 369.382 127.269 371.032 127.6 372.653L128.036 375.204C128.32 376.858 128.757 378.736 130.235 379.531" stroke="#171717" stroke-width="0.5" stroke-miterlimit="10"/>
<path d="M274.082 114.174C275.575 111.522 277.167 108.929 278.857 106.395" stroke="#171717" stroke-width="6" stroke-linecap="round" stroke-linejoin="round"/>
<path d="M250.611 112.631C248.799 109.928 247.197 107.091 245.816 104.144" stroke="#171717" stroke-width="6" stroke-linecap="round" stroke-linejoin="round"/>
<path d="M237.069 119.034C235.393 118.175 234.129 116.704 232.909 115.269C228.784 110.415 224.658 105.562 220.531 100.708" stroke="#171717" stroke-width="6" stroke-linecap="round" stroke-linejoin="round"/>
<path d="M228.184 127.025C225.295 125.638 222.512 124.041 219.856 122.247" stroke="#171717" stroke-width="6" stroke-linecap="round" stroke-linejoin="round"/>
<path d="M263.006 111.425C263.804 103.592 264.452 95.746 264.949 87.8871" stroke="#171717" stroke-width="6" stroke-linecap="round" stroke-linejoin="round"/>
<path d="M293.613 181.794C294.264 181.074 295.526 181.387 296.292 180.793C296.576 180.549 296.789 180.232 296.908 179.877C297.224 178.914 297.368 177.903 297.335 176.89C297.384 174.46 297.352 172.031 297.239 169.601C297.265 169.001 297.122 168.406 296.825 167.885C296.603 167.608 296.316 167.391 295.989 167.253C295.661 167.116 295.305 167.063 294.952 167.099C294.247 167.178 293.565 167.404 292.952 167.763" stroke="#171717" stroke-width="3" stroke-linecap="round" stroke-linejoin="round"/>
<path d="M297.597 173.836C299.295 173.131 301.469 172.504 302.785 173.788C303.685 174.666 303.744 176.069 303.745 177.326L303.766 216.589C303.766 218.957 303.766 221.325 303.672 223.692C303.619 224.974 303.517 226.322 302.813 227.395C301.67 229.14 299.359 229.604 297.296 229.917C295.033 230.261 292.569 230.569 290.584 229.429C289.71 228.889 288.957 228.173 288.372 227.327C285.585 223.545 284.946 218.563 285.304 213.879C285.435 212.162 285.681 210.399 285.185 208.751C284.37 206.028 281.735 204.267 279.104 203.192C275.184 201.597 270.926 201.012 266.721 201.491C264.571 201.739 262.246 202.406 261.067 204.22C259.887 206.034 260.218 208.407 260.593 210.541" stroke="url(#paint19_linear_10_923)" stroke-width="3" stroke-linecap="round" stroke-linejoin="round"/>
<path d="M207.854 109.474C203.766 105.466 199.532 101.615 195.15 97.9208" stroke="#171717" stroke-width="3" stroke-linecap="round" stroke-linejoin="round"/>
<path d="M196.473 111.53L204.69 98.0557C204.849 97.7946 205.112 97.4934 205.4 97.5987C205.689 97.7041 205.282 98.2415 205.21 97.9444" stroke="#171717" stroke-width="3" stroke-linecap="round" stroke-linejoin="round"/>
<path d="M418.155 117.693L419.28 118.975L409.6 106.143" stroke="#171717" stroke-width="3" stroke-linecap="round" stroke-linejoin="round"/>
<path d="M420.694 104.772C416.301 108.876 412.098 113.17 408.086 117.654" stroke="#171717" stroke-width="3" stroke-linecap="round" stroke-linejoin="round"/>
<path d="M341.762 166.896L333.011 161.013" stroke="url(#paint20_linear_10_923)" stroke-width="3" stroke-linecap="round" stroke-linejoin="round"/>
<path d="M340.197 157.502C337.436 161.638 335.545 166.293 334.638 171.182" stroke="url(#paint21_linear_10_923)" stroke-width="3" stroke-linecap="round" stroke-linejoin="round"/>
<path d="M46.6112 129.478C46.7361 124.157 46.2229 117.703 41.4799 115.289C36.8357 112.925 31.2397 116.229 27.8948 120.224C25.0672 123.598 22.9121 127.692 22.5616 132.083C22.1639 137.075 24.1095 141.968 26.5701 146.331C29.8594 152.163 34.1017 157.4 37.7271 163.026C41.3526 168.652 44.4158 174.879 44.9219 181.553C45.428 188.227 42.9473 195.435 37.4004 199.185C34.6551 200.957 31.422 201.819 28.1588 201.649C24.8962 201.479 21.7697 200.286 19.2238 198.238C15.6131 195.205 13.8279 189.046 17.3658 185.926C18.6284 184.933 20.1295 184.286 21.7193 184.052C27.5793 182.873 34.9061 184.836 36.7671 190.518C37.9343 194.081 36.5693 198.01 34.545 201.167C32.5206 204.324 29.8464 207.039 27.9747 210.29C26.3493 213.113 25.3756 216.263 25.1252 219.511C24.8754 222.758 25.3543 226.021 26.5281 229.059C27.7018 232.098 29.5409 234.835 31.9092 237.072C34.278 239.308 37.1169 240.985 40.2179 241.983" stroke="#171717" stroke-width="3" stroke-linecap="round" stroke-linejoin="round"/>
<path d="M12.141 244.994C9.39153 241.797 7.14107 238.202 5.46594 234.333" stroke="#171717" stroke-width="3" stroke-linecap="round" stroke-linejoin="round"/>
<path d="M2.74011 243.535C6.74147 241.541 10.0621 238.408 12.2848 234.529" stroke="#171717" stroke-width="3" stroke-linecap="round" stroke-linejoin="round"/>
<path d="M38.0006 89.0006C35.8117 85.5728 33.5588 82.1865 31.2421 78.8422" stroke="url(#paint22_linear_10_923)" stroke-width="3" stroke-linecap="round" stroke-linejoin="round"/>
<path d="M30.0445 87.6326C30.18 87.6687 29.964 87.8753 29.8829 87.7611C29.8018 87.6468 29.8912 87.4917 29.9782 87.3816C32.0754 84.7304 34.4963 82.3533 37.1848 80.3047C37.215 80.2828 37.2469 80.2638 37.2813 80.2496" stroke="url(#paint23_linear_10_923)" stroke-width="3" stroke-linecap="round" stroke-linejoin="round"/>
<path d="M198.989 56.7872C198.282 56.2936 197.454 56.0018 196.593 55.9414C195.733 55.881 194.872 56.055 194.103 56.4451C192.57 57.2513 191.319 58.5062 190.518 60.0416C189.704 61.4622 189.132 63.1628 189.611 64.729C189.883 65.5293 190.344 66.2526 190.955 66.8374C193.341 69.2595 197.371 69.9745 200.329 68.2976C203.287 66.6207 204.737 62.5916 203.307 59.5071C202.944 58.7045 202.405 57.9947 201.729 57.4295C201.053 56.8648 200.259 56.4593 199.405 56.2439" stroke="#171717" stroke-width="3" stroke-linecap="round" stroke-linejoin="round"/>
<path d="M175.182 20.5638C174.39 17.6734 173.376 14.8488 172.15 12.1147L169.051 19.9417C166.52 20.0393 164.023 20.5679 161.669 21.5049L167.107 24.4911C167.234 24.5231 167.35 24.5864 167.446 24.6752C167.541 24.764 167.613 24.8753 167.654 24.9996C167.695 25.1233 167.705 25.2553 167.681 25.3837C167.658 25.5122 167.603 25.6323 167.521 25.7342L164.82 31.6362C167.155 30.4067 169.362 28.95 171.41 27.2873L175.845 32.5294C175.691 30.3588 175.537 28.1882 175.383 26.0183C176.669 26.4663 178.081 25.8585 179.213 25.1008C180.345 24.3432 181.412 23.402 182.735 23.0794C179.97 22.4745 177.351 21.3297 175.03 19.7108" stroke="#171717" stroke-width="3" stroke-linecap="round" stroke-linejoin="round"/>
<path d="M64.8646 16.8785C57.687 23.1344 50.0122 28.7961 41.916 33.8073C39.1873 32.4542 36.9155 30.3304 35.3812 27.6987C31.664 21.1521 33.4457 12.0011 39.3589 7.33678C41.349 5.77235 43.6752 4.6921 46.1541 4.18187C51.3275 3.12234 56.8382 4.93952 60.7271 8.46735C62.9213 10.4148 64.5355 12.9304 65.3914 15.7361L65.7288 16.1149C65.4447 16.3754 65.1547 16.6328 64.8646 16.8785Z" fill="url(#paint24_linear_10_923)" stroke="url(#paint25_linear_10_923)" stroke-width="3" stroke-miterlimit="10"/>
<path d="M64.8647 16.8785C66.2143 24.1295 61.8105 32.073 54.9146 34.7071C52.8039 35.4629 50.5587 35.7737 48.3213 35.6186C46.0844 35.4641 43.9032 34.8468 41.9161 33.8074C50.0124 28.7956 57.6872 23.1339 64.8647 16.8785Z" fill="url(#paint26_linear_10_923)" stroke="url(#paint27_linear_10_923)" stroke-width="3" stroke-miterlimit="10"/>
<path d="M65.3921 15.7361C64.5356 12.9304 62.9215 10.4148 60.7278 8.46735C56.8389 4.93952 51.3282 3.12234 46.1549 4.18187C43.6759 4.69329 41.3509 5.77413 39.3626 7.33975C33.4488 12.004 31.6677 21.1551 35.3849 27.7017C36.918 30.3333 39.1904 32.4571 41.9191 33.8103C43.9056 34.8502 46.0868 35.467 48.3242 35.6221C50.5617 35.7766 52.8068 35.4664 54.9182 34.71C61.8134 32.0759 66.2173 24.1324 64.8677 16.8814C64.8499 16.7394 64.8204 16.6032 64.7908 16.4612" stroke="#171717" stroke-width="3" stroke-miterlimit="10"/>
<path d="M60.7983 8.38456C63.7366 6.10686 67.114 4.46133 70.7188 3.55156C71.6777 3.31479 72.7432 3.14313 73.5955 3.63442C74.6847 4.26186 74.9688 5.78308 74.5722 6.97283C74.0785 8.13358 73.3179 9.16174 72.3525 9.97385C70.1979 12.0811 67.9901 14.1291 65.729 16.1179C65.4448 16.3784 65.1548 16.6329 64.8648 16.8815C57.6872 23.1375 50.0124 28.7992 41.9161 33.8103C41.2946 34.201 40.6672 34.5798 40.0398 34.9586C37.2163 36.6575 33.8483 38.3267 30.7644 37.1724C30.2885 37.0256 29.8706 36.7338 29.5688 36.3378C29.0834 35.6038 29.3261 34.6153 29.6812 33.8103C30.6952 31.535 32.4218 29.6509 34.6001 28.4417" stroke="#171717" stroke-width="3" stroke-miterlimit="10"/>
<path d="M349.015 277.225C348.938 277.569 348.861 277.914 348.783 278.258C348.872 274.512 348.847 270.765 348.707 267.018C346.805 269.591 344.759 272.055 342.579 274.397C340.247 273.399 337.819 272.637 335.334 272.123C336.525 274.533 337.84 276.88 339.275 279.153L331.785 284.86L341.06 284.283C341.179 284.253 341.304 284.246 341.426 284.266C341.548 284.284 341.665 284.329 341.768 284.396C341.873 284.463 341.961 284.55 342.029 284.653C342.098 284.756 342.144 284.872 342.165 284.994C343.23 287.574 344.298 290.155 345.365 292.735C346.442 289.948 347.205 287.049 347.643 284.093C350.765 284.082 353.883 283.932 356.995 283.645C353.989 281.959 351.177 279.949 348.609 277.649" stroke="#171717" stroke-width="3" stroke-linecap="round" stroke-linejoin="round"/>
<path d="M250.685 196.863C250.986 202.994 251.286 209.126 251.585 215.258" stroke="#171717" stroke-miterlimit="10"/>
<path d="M252.058 273.491C252.804 279.884 251.876 286.344 250.95 292.715C250.274 297.359 249.6 302.004 248.924 306.648" stroke="#171717" stroke-miterlimit="10"/>
<path d="M252.447 296.335C250.744 295.951 249.012 295.707 247.269 295.604L247.831 295.43" stroke="#171717" stroke-miterlimit="10"/>
<path d="M254.096 286.411C252.209 285.589 250.145 285.259 248.095 285.452L248.66 285.169" stroke="#171717" stroke-miterlimit="10"/>
<path d="M255.153 276.846C253.027 276.733 250.895 276.907 248.815 277.361C248.716 277.383 248.596 277.428 248.588 277.53C248.58 277.631 248.794 277.621 248.739 277.535" stroke="#171717" stroke-miterlimit="10"/>
<path d="M254.071 209.708L248.285 209.951C248.171 209.956 248.026 209.941 247.989 209.833C247.953 209.724 248.195 209.686 248.15 209.791" stroke="#171717" stroke-miterlimit="10"/>
<path d="M253.676 202.14C251.651 202.093 249.627 202.129 247.604 202.248" stroke="#171717" stroke-miterlimit="10"/>
<path d="M283.185 361.132C282.82 360.732 282.345 360.449 281.82 360.317C281.295 360.187 280.743 360.213 280.232 360.395C279.758 360.579 279.338 360.881 279.014 361.275C278.493 361.93 278.236 362.757 278.292 363.593C278.348 364.428 278.713 365.213 279.317 365.794C279.962 366.327 280.789 366.589 281.623 366.524C282.457 366.458 283.233 366.07 283.787 365.443C284.034 365.111 284.21 364.732 284.307 364.329C284.404 363.927 284.42 363.51 284.352 363.102C284.285 362.693 284.136 362.303 283.915 361.953C283.694 361.604 283.404 361.302 283.065 361.066" stroke="#171717" stroke-miterlimit="10"/>
<path d="M264.404 343.996L267.229 339.672L263.215 337.497C263.055 337.384 262.858 337.333 262.663 337.355C262.452 337.408 262.326 337.617 262.225 337.809C261.363 339.449 260.681 341.177 260.192 342.964L262.99 344.059C263.167 344.162 263.366 344.221 263.57 344.232C263.774 344.244 263.978 344.208 264.165 344.126" stroke="#171717" stroke-miterlimit="10"/>
<path d="M277.053 307.693C276.75 307.324 276.158 307.508 275.737 307.733C274.593 308.248 273.618 309.076 272.926 310.122C272.315 311.209 272.357 312.753 273.324 313.54C273.659 313.8 274.053 313.975 274.472 314.049C275.3 314.212 276.159 314.075 276.893 313.659C277.628 313.243 278.189 312.578 278.475 311.784C278.762 310.991 278.753 310.12 278.453 309.332C278.152 308.543 277.578 307.888 276.836 307.487" stroke="#171717" stroke-miterlimit="10"/>
<path d="M237.086 329.154L234.778 327.405C234.652 327.286 234.49 327.212 234.318 327.194C234.205 327.214 234.098 327.257 234.004 327.322C233.909 327.386 233.83 327.47 233.771 327.568C232.954 328.577 232.138 329.586 231.323 330.595C232.91 331.602 234.379 332.783 235.703 334.117L238.786 331.157C238.273 330.308 237.598 329.567 236.8 328.978" stroke="#171717" stroke-miterlimit="10"/>
<path d="M207.914 355.899C207.292 356.004 206.719 356.3 206.273 356.746C205.828 357.193 205.534 357.768 205.432 358.39C205.369 358.799 205.404 359.218 205.532 359.612C205.661 360.006 205.88 360.364 206.172 360.657C206.472 360.944 206.847 361.139 207.254 361.22C207.66 361.3 208.081 361.263 208.468 361.112C208.916 360.891 209.306 360.568 209.608 360.169C210.057 359.676 210.382 359.082 210.555 358.438C210.655 357.99 210.639 357.524 210.509 357.084C210.378 356.643 210.138 356.244 209.811 355.922C209.483 355.6 209.08 355.367 208.637 355.244C208.195 355.121 207.728 355.113 207.282 355.22" stroke="#171717" stroke-miterlimit="10"/>
<path d="M186.631 340.323C186.527 342.497 186.607 344.675 186.872 346.834C188.444 346.518 189.995 346.103 191.515 345.591C191.859 345.522 192.185 345.381 192.472 345.179C192.759 344.976 193.001 344.716 193.182 344.415C193.34 343.867 193.314 343.282 193.108 342.75L192.671 341.135C192.425 340.222 191.994 339.139 191.057 339.014C190.477 339.025 189.911 339.194 189.419 339.501C188.466 339.916 187.409 340.031 186.389 339.831" stroke="#171717" stroke-miterlimit="10"/>
<path d="M235.301 287.703C234.855 287.671 234.407 287.734 233.988 287.888C233.569 288.043 233.187 288.284 232.868 288.597C232.549 288.91 232.3 289.288 232.137 289.704C231.975 290.121 231.904 290.567 231.927 291.013C231.996 291.457 232.153 291.882 232.389 292.263C232.625 292.645 232.936 292.974 233.302 293.233C233.669 293.492 234.084 293.675 234.522 293.769C234.961 293.865 235.414 293.871 235.855 293.787C236.607 293.615 237.275 293.185 237.744 292.573C238.213 291.959 238.453 291.202 238.422 290.431C238.392 289.66 238.092 288.924 237.576 288.35C237.06 287.777 236.36 287.402 235.596 287.29C235.293 287.246 234.87 287.601 235.146 287.732" stroke="#171717" stroke-miterlimit="10"/>
<path d="M284.799 278.3C282.605 278.203 280.411 278.479 278.311 279.118L278.588 286.563L285.014 285.823" stroke="#171717" stroke-miterlimit="10"/>
<path d="M203.539 237.935C203.069 237.869 202.589 237.945 202.162 238.153C201.735 238.36 201.379 238.69 201.14 239.101C200.91 239.516 200.775 239.977 200.743 240.451C200.711 240.925 200.784 241.4 200.956 241.842C201.036 242.116 201.197 242.358 201.419 242.538C201.664 242.686 201.947 242.758 202.233 242.746C203.56 242.778 204.99 242.137 205.495 240.911C206 239.686 205.128 237.988 203.801 238.003C203.607 238.003 203.384 238.031 203.246 237.894C203.108 237.758 203.285 237.438 203.433 237.565" stroke="#171717" stroke-miterlimit="10"/>
<path d="M195.515 223.212C196.937 224.709 198.254 226.303 199.457 227.982C198.33 229.271 197.089 230.455 195.749 231.52C195.684 231.586 195.598 231.625 195.507 231.631C195.395 231.625 195.314 231.526 195.249 231.435L192.307 227.375C193.151 225.969 194.244 224.728 195.53 223.711" stroke="#171717" stroke-miterlimit="10"/>
<path d="M236.389 206.034C235.795 205.843 235.151 205.89 234.593 206.165C234.033 206.44 233.603 206.921 233.392 207.508C233.308 207.863 233.302 208.234 233.375 208.593C233.446 208.951 233.595 209.29 233.81 209.587C234.024 209.884 234.3 210.13 234.619 210.31C234.937 210.491 235.291 210.6 235.655 210.632C236.399 210.624 237.109 210.324 237.634 209.799C238.16 209.273 238.458 208.562 238.465 207.819C238.446 206.402 237.011 205.043 235.659 205.467" stroke="#171717" stroke-miterlimit="10"/>
<path d="M291.386 205.08C292.511 203.676 293.636 202.271 294.76 200.867L298.125 203.294C298.176 203.313 298.221 203.345 298.257 203.387C298.292 203.429 298.315 203.48 298.326 203.534C298.336 203.587 298.331 203.643 298.314 203.695C298.296 203.747 298.265 203.793 298.224 203.829L295.542 207.836C294.446 206.704 293.212 205.715 291.869 204.89C291.756 204.82 291.624 204.708 291.667 204.581C291.71 204.455 291.951 204.62 291.824 204.66" stroke="#171717" stroke-miterlimit="10"/>
<path d="M328.817 207.973C328.282 207.675 327.652 207.597 327.06 207.756C326.468 207.915 325.962 208.299 325.648 208.825C325.373 209.373 325.301 210.001 325.445 210.597C325.589 211.193 325.94 211.719 326.434 212.081C326.949 212.417 327.557 212.58 328.17 212.548C328.783 212.515 329.37 212.287 329.846 211.898C330.339 211.475 330.679 210.901 330.812 210.265C330.945 209.628 330.864 208.966 330.582 208.381C330.389 208.02 330.119 207.707 329.791 207.463C329.463 207.219 329.086 207.049 328.685 206.968" stroke="#171717" stroke-miterlimit="10"/>
<path d="M240.269 299.747C238.892 299.956 237.543 300.325 236.251 300.846C236.488 302.729 236.724 304.613 236.957 306.496L242.036 305.508C242.152 305.515 242.267 305.489 242.369 305.434C242.471 305.379 242.556 305.298 242.614 305.198C242.672 305.097 242.703 304.984 242.7 304.868C242.698 304.752 242.665 304.639 242.603 304.541L241.427 300.063C241.196 299.966 240.938 299.948 240.695 300.013C240.453 300.077 240.238 300.219 240.085 300.418" stroke="#171717" stroke-miterlimit="10"/>
<path d="M153.462 126.02C153.837 126.312 154.082 126.74 154.145 127.211C154.209 127.682 154.086 128.159 153.802 128.541C153.518 128.922 153.097 129.178 152.628 129.253C152.158 129.328 151.678 129.217 151.289 128.942C150.901 128.667 150.636 128.252 150.549 127.785C150.463 127.317 150.563 126.834 150.828 126.439C151.093 126.044 151.502 125.769 151.967 125.672C152.433 125.574 152.918 125.663 153.319 125.918" stroke="#171717" stroke-miterlimit="10"/>
<path d="M69.1502 216.326C68.7826 216.106 68.3558 216.008 67.9296 216.044C67.5035 216.08 67.0998 216.25 66.7754 216.528C66.4505 216.807 66.2214 217.18 66.1208 217.596C66.0195 218.011 66.0521 218.448 66.2125 218.845C66.3735 219.241 66.6547 219.576 67.0169 219.804C67.3786 220.032 67.803 220.14 68.2303 220.114C68.6571 220.087 69.0649 219.927 69.3958 219.656C69.7267 219.385 69.9641 219.017 70.0742 218.604C70.1689 218.12 70.1274 217.619 69.9552 217.158C69.7835 216.696 69.487 216.29 69.0993 215.986" stroke="#171717" stroke-miterlimit="10"/>
<path d="M34.1005 303.468C34.1597 303.69 33.8477 303.796 33.627 303.857C32.6379 304.125 32.3443 305.611 33.064 306.343C33.4523 306.678 33.9555 306.85 34.4681 306.822C34.9807 306.793 35.4625 306.567 35.8111 306.19C36.1095 305.868 36.2965 305.459 36.345 305.022C36.393 304.586 36.3001 304.146 36.0793 303.766C35.836 303.402 35.4619 303.144 35.0345 303.046C34.6072 302.949 34.1591 303.02 33.782 303.244" stroke="#171717" stroke-miterlimit="10"/>
<path d="M17.8305 333.937C17.496 334.104 17.2125 334.358 17.0095 334.671C16.8059 334.985 16.6904 335.348 16.675 335.721C16.6774 336.095 16.8183 336.454 17.0704 336.729C17.3226 337.004 17.6683 337.176 18.04 337.211C18.6118 337.162 19.1427 336.893 19.5198 336.46C20.0579 335.945 20.5462 335.144 20.1745 334.499C19.9696 334.21 19.6879 333.984 19.3618 333.847C19.0593 333.656 18.7154 333.538 18.3591 333.504C18.1809 333.491 18.0033 333.541 17.8571 333.643C17.7103 333.746 17.6038 333.895 17.554 334.067" stroke="#171717" stroke-miterlimit="10"/>
<path d="M55.2312 367.809C54.9696 367.623 54.6582 367.522 54.3374 367.518C54.0172 367.514 53.7029 367.608 53.4371 367.787C53.0547 368.033 52.773 368.408 52.6433 368.845C52.5137 369.281 52.5445 369.749 52.7309 370.164C52.9174 370.579 53.2459 370.913 53.6579 371.107C54.0699 371.3 54.5375 371.339 54.9755 371.217C55.4135 371.094 55.7935 370.819 56.0463 370.441C56.2984 370.063 56.4067 369.606 56.3517 369.155C56.296 368.703 56.0806 368.286 55.7444 367.98C55.4076 367.674 54.9725 367.499 54.5179 367.486" stroke="#171717" stroke-miterlimit="10"/>
<path d="M45.3266 392.287C45.1254 392.207 44.9105 392.168 44.6939 392.173C44.4772 392.178 44.2642 392.227 44.067 392.316C43.8699 392.406 43.693 392.535 43.5473 392.696C43.4017 392.856 43.2905 393.044 43.22 393.249C43.1099 393.674 43.1579 394.124 43.355 394.517C43.5521 394.908 43.8847 395.216 44.2914 395.38C44.7063 395.523 45.1562 395.53 45.5764 395.402C45.9961 395.274 46.3649 395.016 46.6294 394.666C46.8248 394.416 46.9515 394.121 46.997 393.807C47.042 393.494 47.0035 393.174 46.8863 392.88C46.7561 392.592 46.5259 392.36 46.2382 392.228C45.9511 392.096 45.6256 392.072 45.3219 392.16" stroke="#171717" stroke-miterlimit="10"/>
<path d="M188.445 377.812C188.227 377.738 187.996 377.716 187.768 377.746C187.541 377.777 187.323 377.859 187.132 377.987C186.941 378.116 186.783 378.286 186.669 378.486C186.555 378.685 186.488 378.908 186.474 379.137C186.487 379.368 186.548 379.594 186.651 379.801C186.756 380.008 186.901 380.191 187.078 380.339C187.256 380.488 187.462 380.598 187.684 380.664C187.906 380.73 188.138 380.749 188.368 380.722C188.829 380.627 189.239 380.37 189.525 379.998C189.811 379.625 189.954 379.162 189.926 378.694C189.914 378.443 189.84 378.199 189.712 377.983C189.522 377.704 189.229 377.511 188.898 377.446C188.566 377.381 188.223 377.449 187.941 377.636" stroke="#171717" stroke-miterlimit="10"/>
<path d="M341.153 243.754C332.231 236.737 318.196 238.997 310.223 247.076C302.251 255.155 299.831 267.556 301.733 278.743C303.635 289.931 309.334 300.118 315.78 309.46C319.607 315.006 324.347 320.744 330.976 321.956C337.604 323.167 345.447 316.688 342.869 310.461C340.615 305.016 332.096 304.737 328.045 309.019C323.994 313.302 323.757 320.029 325.369 325.701C326.982 331.373 330.131 336.474 332.176 342.003C334.221 347.533 335.061 354.009 332.11 359.11C329.16 364.211 321.316 366.532 317.163 362.349" stroke="url(#paint28_linear_10_923)" stroke-width="3" stroke-linecap="round" stroke-linejoin="round"/>
<path d="M260.214 36.5526C260.114 36.996 260.015 37.4393 259.915 37.8832C260.03 33.0585 259.997 28.2326 259.818 23.4067C257.368 26.7203 254.733 29.8936 251.926 32.9106C248.921 31.6255 245.795 30.6447 242.594 29.9823C244.128 33.0869 245.822 36.1099 247.67 39.0387L238.022 46.3885L249.967 45.6456C250.121 45.6054 250.281 45.5983 250.438 45.6231C250.595 45.6486 250.745 45.706 250.879 45.7918C251.012 45.8783 251.126 45.9907 251.214 46.1233C251.302 46.2559 251.361 46.4051 251.388 46.5619L255.51 56.5328C256.895 52.9428 257.879 49.2107 258.443 45.4047C262.464 45.3905 266.479 45.1976 270.488 44.8264C266.615 42.6553 262.992 40.0656 259.685 37.1043" stroke="url(#paint29_linear_10_923)" stroke-width="3" stroke-linecap="round" stroke-linejoin="round"/>
<path d="M319.845 14.8619C329.925 17.3148 340.498 16.8235 350.307 13.446" stroke="#171717" stroke-width="3" stroke-linecap="round" stroke-linejoin="round"/>
<g opacity="0.1">
<path d="M113.331 26.1112C88.8769 31.0294 79.9201 56.9021 72.926 77.8092C65.1423 101.061 59.4516 124.963 55.9214 149.229C48.8285 197.92 50.0105 247.461 59.4178 295.759C64.7694 322.962 72.6205 349.613 82.8714 375.372C86.0381 383.359 97.2312 378.809 93.8253 370.755C75.5351 327.494 65.2429 280.846 62.7225 233.985C60.1844 186.794 65.7715 139.788 77.9809 94.1899C81.3406 81.6413 84.827 68.6564 90.2259 56.8092C95.1033 46.1062 102.946 35.0894 114.88 31.732C118.521 30.708 116.981 25.3796 113.331 26.1136V26.1112Z" fill="#171717"/>
</g>
<g opacity="0.1">
<path d="M31.4073 413.159C30.9456 416.866 35.0576 419.267 38.1386 419.952C41.4941 420.719 45.016 420.191 47.9981 418.473C55.5066 414.005 57.1521 405.086 57.6919 397.075C58.7373 381.567 61.9656 366.36 72.3632 354.276C76.2035 349.813 69.6481 343.287 65.8888 347.801C57.0349 358.433 52.2155 370.969 50.3019 384.595C49.7993 388.175 49.4377 391.767 49.1772 395.372C48.9156 398.956 48.7954 402.765 47.363 406.124C46.3123 408.589 44.3229 411.301 41.4379 411.606C38.9696 411.866 37.1483 409.846 34.7214 409.847C32.7681 409.847 31.6316 411.377 31.4097 413.158L31.4073 413.159Z" fill="#171717"/>
</g>
<g opacity="0.1">
<path d="M280.981 222.461C284.186 223.348 287.923 222.421 291.186 222.043C294.475 221.662 297.757 221.225 301.045 220.846C308.012 220.043 314.989 219.347 321.977 218.757C335.764 217.593 349.577 216.845 363.414 216.512C369.695 216.357 369.699 206.498 363.414 206.746C349.382 207.3 335.376 208.271 321.395 209.656C314.601 210.335 307.818 211.114 301.045 211.995C297.564 212.447 294.078 212.889 290.609 213.426C287.248 213.946 283.04 214.116 280.132 215.971C277.595 217.589 277.956 221.625 280.981 222.462L280.981 222.461Z" fill="#171717"/>
</g>
<g opacity="0.1">
<path d="M369.521 217.158C368.437 220.656 372.265 222.775 374.928 223.875C378.502 225.309 382.42 225.662 386.192 224.89C392.733 223.54 398.11 218.763 401.06 212.908C403.009 209.038 397.264 205.621 395.214 209.491C394.046 211.69 392.318 213.542 390.206 214.86C388.093 216.179 385.67 216.916 383.181 216.998C380.413 217.145 377.929 216.406 375.322 215.568C373.351 214.933 370.308 214.615 369.522 217.158H369.521Z" fill="#171717"/>
</g>
<g opacity="0.1">
<path d="M245.855 114.183C241.664 114.12 237.066 116.619 233.519 118.654C229.838 120.761 226.441 123.33 223.41 126.298C216.903 132.701 212.562 140.98 210.996 149.974C207.897 168.043 217.808 186.33 235.679 191.869C241.792 193.763 244.447 184.115 238.319 182.291C224.501 178.183 217.218 163.522 219.251 149.752C220.357 142.259 224.274 135.216 229.526 129.837C232.001 127.308 234.773 125.088 237.782 123.226C240.882 121.301 244.497 120.07 247.366 117.832C248.905 116.632 247.543 114.21 245.855 114.185V114.183Z" fill="#171717"/>
</g>
<g opacity="0.1">
<path d="M163.499 338.962C173.222 342.276 184.295 344.002 194.487 341.81C204.304 339.699 213.946 334.213 219.992 326.115C225.391 318.883 227.621 309.794 229.16 301.055C231.121 289.88 232.511 278.613 233.324 267.296C234.279 254.119 234.537 240.905 234.593 227.697C234.605 225.019 232.079 221.903 229.155 222.259C216.148 223.842 204.79 231.012 198.56 242.691C192.36 254.316 191.962 270 198.657 281.513C200.871 285.321 206.211 281.985 204.458 278.123C199.82 267.931 199.773 256.608 206.115 247.107C211.093 239.649 220.279 234.172 229.156 233.138L223.714 227.699C223.623 249.126 223.059 270.678 219.708 291.879C218.481 299.648 217.446 308.004 213.947 315.145C210.297 322.596 203.696 327.553 195.878 330.149C190.965 331.78 186.222 332.102 181.08 331.747C178.287 331.554 175.51 331.196 172.734 330.833C170.027 330.492 167.286 330.513 164.585 330.896C160.108 331.448 158.864 337.383 163.493 338.962H163.499Z" fill="#171717"/>
</g>
<g opacity="0.1">
<path d="M196.452 298.541C200.975 295.484 201.573 288.747 199.853 283.965C198.469 280.117 192.967 282.329 194.631 286.167C196.206 289.801 194.685 292.867 193.559 296.316C193.041 297.902 195.038 299.498 196.452 298.541Z" fill="#171717"/>
</g>
<g opacity="0.1">
<path d="M250.625 306.998C248.409 312.846 249.533 320.4 249.948 326.497C250.415 333.356 250.706 340.233 250.752 347.107C250.905 360.536 249.931 373.955 247.84 387.221C247.344 390.28 248.635 393.403 251.852 394.286C254.559 395.03 258.461 393.362 258.917 390.275C261.008 376.177 261.924 361.93 261.656 347.681C261.526 340.797 261.14 333.927 260.497 327.07C260.19 323.382 259.684 319.714 258.982 316.08C258.331 312.887 257.328 309.036 255.393 306.376C255.123 305.949 254.737 305.608 254.279 305.394C253.822 305.179 253.312 305.1 252.811 305.166C252.31 305.231 251.838 305.438 251.451 305.763C251.064 306.088 250.777 306.517 250.626 306.999L250.625 306.998Z" fill="#171717"/>
</g>
</g>
<defs>
<linearGradient id="paint0_linear_10_923" x1="250.596" y1="113.702" x2="250.596" y2="163.391" gradientUnits="userSpaceOnUse">
<stop stop-color="#FF6900"/>
</linearGradient>
<linearGradient id="paint1_linear_10_923" x1="111.158" y1="139.756" x2="111.158" y2="188.831" gradientUnits="userSpaceOnUse">
<stop stop-color="#FF6900"/>
</linearGradient>
<linearGradient id="paint2_linear_10_923" x1="110.346" y1="26.3569" x2="110.346" y2="119.14" gradientUnits="userSpaceOnUse">
<stop stop-color="#FF6900"/>
</linearGradient>
<linearGradient id="paint3_linear_10_923" x1="332.133" y1="1.42542" x2="332.133" y2="111.838" gradientUnits="userSpaceOnUse">
<stop offset="1" stop-color="#FF6900"/>
</linearGradient>
<linearGradient id="paint4_linear_10_923" x1="350.245" y1="189.295" x2="350.245" y2="218.778" gradientUnits="userSpaceOnUse">
<stop stop-color="#FF6900"/>
</linearGradient>
<linearGradient id="paint5_linear_10_923" x1="317.051" y1="191.59" x2="317.051" y2="205.589" gradientUnits="userSpaceOnUse">
<stop stop-color="#FF6900"/>
</linearGradient>
<linearGradient id="paint6_linear_10_923" x1="269.596" y1="381.531" x2="269.596" y2="399.048" gradientUnits="userSpaceOnUse">
<stop stop-color="#FF6900"/>
</linearGradient>
<linearGradient id="paint7_linear_10_923" x1="273.007" y1="157.614" x2="273.007" y2="191.028" gradientUnits="userSpaceOnUse">
<stop stop-color="#FF6900"/>
</linearGradient>
<linearGradient id="paint8_linear_10_923" x1="225.276" y1="160.756" x2="225.276" y2="192.401" gradientUnits="userSpaceOnUse">
<stop stop-color="#FF6900"/>
</linearGradient>
<linearGradient id="paint9_linear_10_923" x1="206.75" y1="358.262" x2="206.75" y2="402.679" gradientUnits="userSpaceOnUse">
<stop stop-color="#FF6900"/>
</linearGradient>
<linearGradient id="paint10_linear_10_923" x1="208.188" y1="203.772" x2="208.188" y2="225.069" gradientUnits="userSpaceOnUse">
<stop stop-color="#FF6900"/>
</linearGradient>
<linearGradient id="paint11_linear_10_923" x1="185.874" y1="241.175" x2="185.874" y2="333.974" gradientUnits="userSpaceOnUse">
<stop stop-color="#FF6900"/>
</linearGradient>
<linearGradient id="paint12_linear_10_923" x1="208.169" y1="252.753" x2="208.169" y2="319.344" gradientUnits="userSpaceOnUse">
<stop stop-color="#FF6900"/>
</linearGradient>
<linearGradient id="paint13_linear_10_923" x1="187.787" y1="258.635" x2="187.787" y2="270.493" gradientUnits="userSpaceOnUse">
<stop stop-color="#FF6900"/>
</linearGradient>
<linearGradient id="paint14_linear_10_923" x1="194.852" y1="369.698" x2="194.852" y2="386.248" gradientUnits="userSpaceOnUse">
<stop stop-color="#FF6900"/>
</linearGradient>
<linearGradient id="paint15_linear_10_923" x1="166.701" y1="331.182" x2="166.701" y2="373.184" gradientUnits="userSpaceOnUse">
<stop stop-color="#FF6900"/>
</linearGradient>
<linearGradient id="paint16_linear_10_923" x1="46.4934" y1="357.297" x2="46.4934" y2="402.514" gradientUnits="userSpaceOnUse">
<stop stop-color="#FF6900"/>
</linearGradient>
<linearGradient id="paint17_linear_10_923" x1="21.9684" y1="269.996" x2="21.9684" y2="343.565" gradientUnits="userSpaceOnUse">
<stop stop-color="#FF6900"/>
</linearGradient>
<linearGradient id="paint18_linear_10_923" x1="36.9143" y1="257.086" x2="36.9143" y2="420.161" gradientUnits="userSpaceOnUse">
<stop stop-color="#FF6900"/>
</linearGradient>
<linearGradient id="paint19_linear_10_923" x1="282.006" y1="173.046" x2="282.006" y2="230.231" gradientUnits="userSpaceOnUse">
<stop stop-color="#FF9A34"/>
<stop offset="1" stop-color="#EB6421"/>
</linearGradient>
<linearGradient id="paint20_linear_10_923" x1="337.386" y1="161.013" x2="337.386" y2="166.896" gradientUnits="userSpaceOnUse">
<stop stop-color="#FF9A34"/>
<stop offset="1" stop-color="#EB6421"/>
</linearGradient>
<linearGradient id="paint21_linear_10_923" x1="337.418" y1="157.502" x2="337.418" y2="171.182" gradientUnits="userSpaceOnUse">
<stop stop-color="#FF9A34"/>
<stop offset="1" stop-color="#EB6421"/>
</linearGradient>
<linearGradient id="paint22_linear_10_923" x1="34.6213" y1="78.8422" x2="34.6213" y2="89.0006" gradientUnits="userSpaceOnUse">
<stop stop-color="#FF9A34"/>
<stop offset="1" stop-color="#EB6421"/>
</linearGradient>
<linearGradient id="paint23_linear_10_923" x1="33.5664" y1="80.2496" x2="33.5664" y2="87.7954" gradientUnits="userSpaceOnUse">
<stop stop-color="#FF9A34"/>
<stop offset="1" stop-color="#EB6421"/>
</linearGradient>
<linearGradient id="paint24_linear_10_923" x1="49.5849" y1="3.88177" x2="49.5849" y2="33.8073" gradientUnits="userSpaceOnUse">
<stop stop-color="#FF6900"/>
</linearGradient>
<linearGradient id="paint25_linear_10_923" x1="49.5849" y1="3.88177" x2="49.5849" y2="33.8073" gradientUnits="userSpaceOnUse">
<stop stop-color="#FF6900"/>
</linearGradient>
<linearGradient id="paint26_linear_10_923" x1="53.5124" y1="16.8785" x2="53.5124" y2="35.6577" gradientUnits="userSpaceOnUse">
<stop stop-color="#FF6900"/>
</linearGradient>
<linearGradient id="paint27_linear_10_923" x1="53.5124" y1="16.8785" x2="53.5124" y2="35.6577" gradientUnits="userSpaceOnUse">
<stop stop-color="#FF6900"/>
</linearGradient>
<linearGradient id="paint28_linear_10_923" x1="322.245" y1="239.563" x2="322.245" y2="364.512" gradientUnits="userSpaceOnUse">
<stop stop-color="#FF6900"/>
</linearGradient>
<linearGradient id="paint29_linear_10_923" x1="254.255" y1="23.4067" x2="254.255" y2="56.5327" gradientUnits="userSpaceOnUse">
<stop stop-color="#FF9A34"/>
<stop offset="1" stop-color="#EB6421"/>
</linearGradient>
</defs>
</svg>
