<svg width="716" height="883" viewBox="0 0 716 883" fill="none" xmlns="http://www.w3.org/2000/svg">
<mask id="mask0_88_246" style="mask-type:luminance" maskUnits="userSpaceOnUse" x="0" y="0" width="716" height="883">
<path d="M716 0H0V883H716V0Z" fill="white"/>
</mask>
<g mask="url(#mask0_88_246)">
<path fill-rule="evenodd" clip-rule="evenodd" d="M435.038 542.771C435.35 535.262 437.39 527.925 441 521.332C443.675 516.532 447.169 512.19 450.651 507.863C455.802 501.462 460.925 495.095 463.329 487.33C467.287 474.46 462.522 459.878 453.179 450.202C443.836 440.526 430.508 435.369 417.136 433.859C405.615 432.626 393.964 433.893 382.978 437.573C371.992 441.254 361.929 447.261 353.477 455.186C345.134 463.229 338.669 473.015 334.546 483.845C330.423 494.676 328.743 506.283 329.625 517.838C330.118 523.575 331.25 529.22 332.382 534.868C333.093 538.413 333.804 541.96 334.357 545.531C335.792 554.791 336.101 564.535 332.657 573.253L332.986 573.863C345.927 566.969 359.464 561.256 373.432 556.794L373.964 558.41C376.483 557.636 379.107 557.254 381.743 557.278C383.011 557.249 384.279 557.278 385.527 557.326L386.543 557.317C386.28 535.741 384.59 514.207 381.482 492.855L380.011 492.719C392.833 490.16 404.281 483.014 412.211 472.619L412.27 472.658C418.105 476.581 424.755 479.128 431.718 480.108L431.68 480.398C433.584 496.44 430.063 512.657 421.68 526.466C419.896 529.386 417.907 532.174 415.919 534.96C413.498 538.352 411.079 541.742 409.034 545.366C406.32 549.919 404.627 555.006 404.07 560.277L405.55 560.364C406.696 560.407 407.844 560.448 408.993 560.489C410.153 560.53 411.313 560.571 412.469 560.615C416.602 560.774 420.736 560.925 424.869 561.07L424.947 560.122C429.258 561.204 433.418 562.817 437.332 564.922L439.2 564.632C436.15 557.762 434.726 550.281 435.038 542.771ZM441.429 448.624C440.722 448.246 439.842 448.513 439.464 449.22C439.086 449.927 439.353 450.806 440.06 451.184C452.329 457.747 459.117 473.243 455.624 486.711C455.423 487.487 455.889 488.279 456.665 488.48C457.441 488.682 458.233 488.216 458.434 487.44C462.263 472.674 454.88 455.82 441.429 448.624Z" fill="#171717"/>
<path fill-rule="evenodd" clip-rule="evenodd" d="M337.2 140.588C303.168 327.23 261.7 581.711 237.487 769.882L237.671 771.61C250.081 770.31 262.553 769.706 275.03 769.8V769.055C275.26 750.121 275.911 730.955 276.985 711.555L277.478 711.245C268.837 697.185 264.836 680.764 266.041 664.306C267.425 646 274.759 628.65 285.655 613.778C307.175 434.673 337.219 304.636 403.21 148.29L403.239 148.222C389.509 141.546 371.899 136.417 350.253 134.056C345.62 135.588 341.095 137.427 336.707 139.562L337.2 140.588ZM381.33 173.947C381.58 173.186 381.166 172.366 380.404 172.115C379.643 171.865 378.822 172.279 378.572 173.041C349.491 261.521 323.788 351.018 301.465 441.531C301.273 442.309 301.748 443.095 302.526 443.287C303.305 443.479 304.091 443.004 304.283 442.226C326.589 351.784 352.271 262.358 381.33 173.947Z" fill="#FF6900"/>
<path d="M589.91 812.776C591.061 816.037 589.832 819.801 587.51 822.365C585.062 824.828 582.013 826.609 578.666 827.532C567.103 831.296 554.36 829.884 542.874 825.926C531.388 821.968 520.9 815.592 510.527 809.264L509.385 809C510.647 802.909 511.308 796.709 511.359 790.489C523.626 795.197 536.982 796.307 549.859 793.689C554.349 792.76 558.945 791.241 562.506 788.474L563.241 789.374C570.307 795.041 577.368 800.707 584.422 806.374C586.649 808.171 588.971 810.1 589.91 812.776Z" fill="#FF6900"/>
<path d="M534.456 855.448C536.739 862.908 531.127 870.63 524.548 874.819C513.817 881.651 500.183 882.764 487.72 880.219C475.257 877.674 463.743 871.771 452.77 865.347C447.613 862.328 442.427 859.076 438.711 854.403C434.995 849.73 432.944 843.303 434.899 837.663L435.099 837.199C438.32 838.589 441.67 839.661 445.099 840.399C456.352 842.934 468.263 843.34 479.304 840.021C486.256 837.956 492.637 834.314 497.95 829.378L499.788 829.619C507.432 834.293 515.08 838.963 522.73 843.63C527.586 846.594 532.8 850.02 534.456 855.448Z" fill="#FF6900"/>
<path d="M498.925 54.1901C483.656 58.6601 470.894 67.059 465.825 82.154L465.864 82.86C444.367 83.963 423.173 88.413 403.047 96.049L401.747 97.5C392.886 89.639 383.349 82.574 373.247 76.387C445.494 6.02209 559.469 -17.7619 653.82 17.8461C626.668 31.4112 603.144 51.2578 585.2 75.738C577.851 60.7593 566.36 48.203 552.089 39.5591C549.389 47.4157 546.686 55.2697 543.98 63.121C537.711 58.1767 530.359 54.7893 522.527 53.2368C514.695 51.6843 506.606 52.011 498.925 54.1901Z" fill="#171717"/>
<path d="M304.339 735.58C302.82 734.874 301.33 734.1 299.869 733.258C290.706 727.877 283.015 720.315 277.478 711.245C268.837 697.186 264.836 680.765 266.041 664.306C267.425 645.999 274.759 628.65 285.654 613.778C290.799 606.77 296.669 600.325 303.168 594.551C312.279 586.539 322.277 579.599 332.968 573.864C345.91 566.97 359.447 561.257 373.414 556.795L373.946 558.411C372.701 558.813 371.516 559.382 370.424 560.104C366.124 562.959 363.805 568.29 363.979 573.448C364.302 578.649 366.491 583.559 370.143 587.275C373.786 590.954 378.17 593.818 383.003 595.675C388.603 597.987 394.74 599.39 400.739 598.558C408.925 597.416 416.239 592.066 420.478 584.973C424.615 577.737 426.161 569.306 424.861 561.073L424.939 560.125C429.25 561.208 433.41 562.82 437.324 564.925C440.803 566.683 444.179 568.638 447.436 570.779L447.465 571.215L438.543 571.737L417.179 655.048C404.164 671.469 394.091 690.579 384.379 709.302L384.495 709.37C376.551 723.778 363.633 734.789 347.795 739.25C333.334 743.227 317.929 741.926 304.339 735.58Z" fill="#FF6900"/>
<path d="M409.9 510.4C411.103 510.886 412.43 510.967 413.683 510.633C414.302 510.454 414.848 510.083 415.241 509.573C415.634 509.063 415.855 508.441 415.87 507.797C415.851 507.483 415.759 507.178 415.602 506.905C415.446 506.632 415.229 506.399 414.968 506.223C414.707 506.047 414.409 505.934 414.098 505.891C413.786 505.849 413.469 505.879 413.17 505.978" stroke="#171717" stroke-width="2.903" stroke-linecap="round" stroke-linejoin="round"/>
<path d="M400.945 494.394C399.833 493.565 398.486 493.113 397.099 493.102C395.712 493.092 394.358 493.524 393.233 494.336" stroke="#171717" stroke-width="2.903" stroke-linecap="round" stroke-linejoin="round"/>
<path d="M415.75 494.065C416.975 493.333 418.377 492.949 419.804 492.954C421.231 492.959 422.63 493.353 423.85 494.094" stroke="#171717" stroke-width="2.903" stroke-linecap="round" stroke-linejoin="round"/>
<path d="M414.056 485.753C415.871 484.453 418.055 483.771 420.288 483.805C422.52 483.84 424.682 484.591 426.456 485.947" stroke="#171717" stroke-width="2.903" stroke-linecap="round" stroke-linejoin="round"/>
<path d="M375.7 493.368C377.142 493.214 378.574 492.991 380 492.72C392.822 490.162 404.27 483.015 412.2 472.62C412.84 471.778 413.449 470.917 414.029 470.036" stroke="#171717" stroke-width="2.903" stroke-linecap="round" stroke-linejoin="round"/>
<path d="M412.257 472.662C418.092 476.585 424.742 479.132 431.705 480.112C435.407 480.641 439.16 480.716 442.881 480.335" stroke="#171717" stroke-width="2.903" stroke-linecap="round" stroke-linejoin="round"/>
<path d="M385.512 557.327C384.264 557.279 382.996 557.25 381.728 557.279C379.092 557.255 376.468 557.637 373.949 558.411C372.703 558.813 371.519 559.383 370.427 560.104C366.127 562.959 363.808 568.29 363.982 573.448C364.305 578.649 366.493 583.559 370.146 587.275C373.789 590.955 378.172 593.818 383.006 595.675C388.606 597.987 394.743 599.39 400.742 598.558C408.928 597.416 416.242 592.066 420.481 584.973C424.618 577.737 426.164 569.306 424.864 561.073C420.73 560.928 416.597 560.777 412.464 560.618C410.164 560.531 407.848 560.454 405.545 560.367" stroke="#171717" stroke-width="2.903" stroke-linecap="round" stroke-linejoin="round"/>
<path d="M424.942 560.124C429.253 561.207 433.413 562.819 437.327 564.924C440.806 566.682 444.182 568.637 447.439 570.778" stroke="#171717" stroke-width="2.903" stroke-linecap="round" stroke-linejoin="round"/>
<path d="M374.065 556.582C373.852 556.65 373.63 556.727 373.417 556.795C359.45 561.258 345.913 566.97 332.971 573.864C322.28 579.599 312.282 586.54 303.171 594.551C296.672 600.325 290.802 606.77 285.657 613.778C274.759 628.65 267.425 646 266.041 664.306C264.836 680.765 268.837 697.186 277.478 711.245C283.015 720.315 290.706 727.877 299.869 733.258C301.33 734.1 302.82 734.874 304.339 735.58C317.929 741.925 333.333 743.226 347.794 739.248C363.634 734.787 376.552 723.776 384.494 709.368L384.61 709.168" stroke="#171717" stroke-width="2.903" stroke-linecap="round" stroke-linejoin="round"/>
<path d="M315.07 658.172C321.57 667.625 334.093 671.331 345.54 670.557C356.987 669.783 367.805 665.293 378.603 661.403C389.401 657.513 400.829 654.137 412.198 655.675" stroke="#171717" stroke-width="2.903" stroke-linecap="round" stroke-linejoin="round"/>
<path d="M381.467 492.856C384.574 514.208 386.265 535.742 386.528 557.318C386.557 560.085 386.566 562.843 386.557 565.61" stroke="#171717" stroke-width="2.903" stroke-linecap="round" stroke-linejoin="round"/>
<path d="M431.667 480.4C433.571 496.442 430.051 512.659 421.667 526.468C417.71 532.942 412.746 538.768 409.021 545.368C406.308 549.921 404.614 555.008 404.057 560.279C403.867 562.576 404.027 564.889 404.531 567.139" stroke="#171717" stroke-width="2.903" stroke-linecap="round" stroke-linejoin="round"/>
<path d="M381.728 557.4C379.918 558.609 378.448 560.261 377.457 562.198C376.467 564.136 375.988 566.295 376.068 568.47C376.311 572.85 378.281 576.956 381.545 579.887C384.808 582.778 388.8 584.723 393.088 585.509C397.696 586.552 402.51 586.184 406.906 584.455C409.087 583.573 411.047 582.222 412.647 580.498C414.248 578.774 415.449 576.718 416.166 574.478C416.834 572.222 416.836 569.82 416.172 567.563C415.508 565.306 414.205 563.288 412.421 561.754" stroke="#171717" stroke-width="2.903" stroke-linecap="round" stroke-linejoin="round"/>
<path d="M403.209 528.067C402.279 528.367 401.291 528.446 400.325 528.297C399.359 528.148 398.441 527.777 397.643 527.211C396.846 526.646 396.191 525.902 395.732 525.04C395.272 524.177 395.019 523.219 394.994 522.242" stroke="#171717" stroke-width="2.903" stroke-linecap="round" stroke-linejoin="round"/>
<path d="M439.2 564.633C436.15 557.763 434.726 550.282 435.038 542.772C435.35 535.263 437.391 527.926 441 521.333C447.637 509.433 459.307 500.346 463.322 487.333C467.28 474.463 462.529 459.881 453.172 450.205C443.815 440.529 430.5 435.37 417.124 433.86C405.604 432.627 393.953 433.894 382.967 437.574C371.98 441.255 361.918 447.262 353.465 455.187C345.122 463.23 338.658 473.016 334.535 483.846C330.411 494.677 328.731 506.284 329.613 517.839C330.413 527.177 332.913 536.272 334.345 545.532C335.777 554.792 336.086 564.532 332.645 573.254" stroke="#171717" stroke-width="2.903" stroke-linecap="round" stroke-linejoin="round"/>
<path d="M384.38 709.3C394.094 690.577 404.167 671.467 417.18 655.046C423.721 646.637 431.263 639.057 439.638 632.472C447.882 626.086 457.732 620.696 468.144 621.354C478.644 622.022 488.009 628.911 493.921 637.61C495.799 640.385 497.418 643.326 498.759 646.396C501.534 653.013 503.625 659.896 505 666.938C513.428 706.165 512.46 746.718 511.464 786.815C511.435 788.035 511.405 789.263 511.357 790.492C511.307 796.711 510.646 802.91 509.385 809C508.593 812.518 507.368 815.924 505.737 819.14C503.742 822.969 501.112 826.431 497.958 829.378C492.645 834.314 486.264 837.956 479.312 840.021C468.271 843.34 456.36 842.934 445.107 840.399C441.677 839.661 438.328 838.589 435.107 837.199C430.606 835.366 426.697 832.33 423.807 828.423C419.927 822.869 419.017 815.823 418.359 809.08C418.011 805.5 417.705 801.914 417.44 798.32C415.35 770.143 415.969 741.686 421.504 714.012" stroke="#171717" stroke-width="2.903" stroke-linecap="round" stroke-linejoin="round"/>
<path d="M304 736.306C301.1 746.534 303.952 757.536 308.306 767.221C317.566 787.783 334.451 805.521 355.864 812.592C377.016 819.579 402.426 814.721 417.433 798.32C417.627 798.127 417.801 797.92 417.985 797.72" stroke="#171717" stroke-width="2.903" stroke-linecap="round" stroke-linejoin="round"/>
<path d="M499.158 646.222C502.147 639.245 505.795 632.395 511.185 627.044C516.575 621.693 523.938 617.977 531.524 618.306C537.193 618.689 542.568 620.969 546.783 624.779C549.929 627.507 552.574 630.763 554.6 634.4C559.38 642.953 561.092 652.823 562.65 662.5C568.34 697.914 572.878 733.832 570.101 769.6C569.675 775.106 568.959 780.9 565.64 785.324C564.743 786.515 563.688 787.58 562.505 788.488C558.944 791.255 554.348 792.774 549.858 793.703C536.982 796.321 523.626 795.21 511.358 790.503C511.194 790.445 511.039 790.387 510.874 790.319" stroke="#171717" stroke-width="2.903" stroke-linecap="round" stroke-linejoin="round"/>
<path d="M434.9 837.663C432.945 843.304 434.987 849.729 438.712 854.403C442.437 859.077 447.612 862.328 452.771 865.347C463.744 871.771 475.259 877.674 487.721 880.219C500.183 882.764 513.821 881.651 524.549 874.819C531.128 870.63 536.74 862.908 534.457 855.448C532.802 850.02 527.587 846.594 522.739 843.633C515.095 838.96 507.447 834.289 499.797 829.622" stroke="#171717" stroke-width="2.903" stroke-linecap="round" stroke-linejoin="round"/>
<path d="M510.527 809.264C520.9 815.592 531.379 821.959 542.874 825.926C554.369 829.893 567.103 831.296 578.666 827.532C582.014 826.609 585.063 824.828 587.51 822.365C589.832 819.801 591.061 816.037 589.91 812.776C588.971 810.096 586.649 808.176 584.423 806.376C577.361 800.709 570.3 795.043 563.242 789.376" stroke="#171717" stroke-width="2.903" stroke-linecap="round" stroke-linejoin="round"/>
<path d="M417.114 655.298L417.182 655.046L438.546 571.735L447.468 571.213L570.944 563.994L546.783 624.779" stroke="#171717" stroke-width="2.903" stroke-linecap="round" stroke-linejoin="round"/>
<path d="M276.985 711.555C275.911 730.955 275.26 750.122 275.03 769.055" stroke="#171717" stroke-width="2.903" stroke-linecap="round" stroke-linejoin="round"/>
<path d="M403.209 148.29C337.218 304.636 307.174 434.673 285.654 613.778" stroke="#171717" stroke-width="2.903" stroke-linecap="round" stroke-linejoin="round"/>
<path d="M291.063 770.279C285.722 769.979 280.378 769.818 275.03 769.795C249.441 769.61 223.915 772.346 198.947 777.952" stroke="#171717" stroke-width="2.903" stroke-linecap="round" stroke-linejoin="round"/>
<path d="M337.2 140.588C303.169 327.23 261.7 581.711 237.488 769.882" stroke="#171717" stroke-width="2.903" stroke-linecap="round" stroke-linejoin="round"/>
<path d="M403.045 96.049C423.171 88.412 444.364 83.963 465.862 82.86C535.307 79.183 606.64 109.082 652.5 165C712.482 238.142 725.042 351.091 682.748 437.083C678.577 392.592 646.579 357.564 616.408 326.417C623.443 316.915 630.481 307.415 637.522 297.917C626.626 290.747 615.731 283.583 604.836 276.426C611.957 260.219 611.029 240.896 604.971 224.204C598.913 207.512 588.145 193.173 576.117 180.662C540.3 143.532 491.863 121.18 440.371 118.019" stroke="#171717" stroke-width="2.903" stroke-linecap="round" stroke-linejoin="round"/>
<path d="M412.547 115.73C421.876 115.495 431.201 116.336 440.337 118.236C472.132 124.787 501.509 143.461 522.748 168.348C550.073 200.357 564.878 241.664 570.432 283.387C575.986 325.11 572.793 367.502 567.519 409.264C536.801 368.509 501.277 331.609 461.719 299.364C467.031 282.082 472.34 264.804 477.646 247.529C465.534 246.39 453.834 242.54 443.412 236.266C446.255 225.983 446.979 215.229 445.54 204.657C444.102 194.085 440.53 183.916 435.042 174.766C429.197 165.138 418.67 155.713 403.236 148.224C389.506 141.548 371.896 136.419 350.25 134.058" stroke="#171717" stroke-width="2.903" stroke-linecap="round" stroke-linejoin="round"/>
<path d="M335.951 111.743C331.084 110.662 326.112 110.126 321.127 110.143C302.384 110.172 283.642 117.643 268.663 129.214C249.717 143.844 236.171 164.426 225.643 185.926C192.667 253.262 187.161 333.564 210.655 404.77C233.249 387.218 255.839 369.662 278.426 352.103C271.411 335.97 264.399 319.843 257.391 303.723C266.127 300.856 274.868 297.995 283.613 295.14C276.719 281.469 272.624 266.559 271.567 251.285C270.51 236.011 272.512 220.68 277.457 206.189C282.402 191.699 290.19 178.342 300.364 166.9C310.537 155.458 322.893 146.163 336.706 139.558C341.094 137.423 345.619 135.584 350.252 134.052" stroke="#171717" stroke-width="2.903" stroke-linecap="round" stroke-linejoin="round"/>
<path d="M410.583 105.87C407.728 102.986 404.783 100.196 401.748 97.5C392.887 89.639 383.35 82.574 373.248 76.387C328.012 48.6263 271.978 38.2243 220.027 49.5743C152.527 64.33 94.083 115.323 70.327 180.211C46.571 245.099 58.276 321.782 100.3 376.636C112.064 348.854 130.045 324.141 152.86 304.4C139.613 292.447 129.352 277.556 122.9 260.92C133.35 253.537 143.806 246.151 154.269 238.761C147.079 230.61 142.233 220.662 140.249 209.975C177.511 148.222 249.018 108.734 321.124 110.069" stroke="#171717" stroke-width="2.903" stroke-linecap="round" stroke-linejoin="round"/>
<path d="M373.223 76.416L373.252 76.387C445.494 6.02209 559.469 -17.7619 653.82 17.8461C626.668 31.4112 603.143 51.2578 585.2 75.738C577.851 60.7593 566.359 48.203 552.089 39.5591C549.389 47.4157 546.686 55.2697 543.98 63.121C537.711 58.1772 530.359 54.79 522.528 53.2375C514.696 51.6851 506.608 52.0115 498.928 54.1901C483.659 58.6601 470.897 67.059 465.828 82.154" stroke="#171717" stroke-width="2.903" stroke-linecap="round" stroke-linejoin="round"/>
<path d="M480.432 399.388L470.544 386.4" stroke="#171717" stroke-width="2.903" stroke-linecap="round" stroke-linejoin="round"/>
<path d="M467.314 400.061L481.9 385.615" stroke="#171717" stroke-width="2.903" stroke-linecap="round" stroke-linejoin="round"/>
<path d="M433.177 328.216L427.152 316.03" stroke="#171717" stroke-width="2.903" stroke-linecap="round" stroke-linejoin="round"/>
<path d="M423.822 325.483C427.422 322.434 431.211 319.616 435.167 317.047" stroke="#171717" stroke-width="2.903" stroke-linecap="round" stroke-linejoin="round"/>
<path d="M510 548.3L527.633 476.468" stroke="#171717" stroke-width="2.903" stroke-linecap="round" stroke-linejoin="round"/>
<path d="M523.573 550.919L536.598 535.249" stroke="#171717" stroke-width="2.903" stroke-linecap="round" stroke-linejoin="round"/>
<path d="M491.2 545.435C488.776 539.811 487.286 533.828 486.79 527.724" stroke="#171717" stroke-width="2.903" stroke-linecap="round" stroke-linejoin="round"/>
<path d="M595.938 507.477L609.223 499.905" stroke="#171717" stroke-width="2.903" stroke-linecap="round" stroke-linejoin="round"/>
<path d="M605.241 511.983L599.726 492.874" stroke="#171717" stroke-width="2.903" stroke-linecap="round" stroke-linejoin="round"/>
<path d="M621.937 575.515C621.687 570.231 621.002 564.977 619.888 559.806" stroke="#171717" stroke-width="2.903" stroke-linecap="round" stroke-linejoin="round"/>
<path d="M614.109 571.528L629.092 567.928" stroke="#171717" stroke-width="2.903" stroke-linecap="round" stroke-linejoin="round"/>
<path d="M86.1706 385.553C78.1606 379.57 72.6096 370.87 70.5576 361.085" stroke="#171717" stroke-width="2.903" stroke-linecap="round" stroke-linejoin="round"/>
<path d="M701.822 439.918C707.961 430.241 712.156 419.462 714.174 408.181" stroke="#171717" stroke-width="2.903" stroke-linecap="round" stroke-linejoin="round"/>
<path d="M378.973 208.194C360.724 191.682 346.088 171.574 335.984 149.133" stroke="#171717" stroke-width="2.903" stroke-linecap="round" stroke-linejoin="round"/>
<path d="M361 258.084C344.991 245.362 332.545 228.716 324.871 209.763" stroke="#171717" stroke-width="2.903" stroke-linecap="round" stroke-linejoin="round"/>
<path d="M345.488 305.458C332.972 294.432 322.996 280.822 316.249 265.568" stroke="#171717" stroke-width="2.903" stroke-linecap="round" stroke-linejoin="round"/>
<path d="M333.363 348.979C321.886 339.488 312.954 327.288 307.375 313.479" stroke="#171717" stroke-width="2.903" stroke-linecap="round" stroke-linejoin="round"/>
<path d="M321.873 395.556C312.052 387.592 304.247 377.427 299.089 365.883" stroke="#171717" stroke-width="2.903" stroke-linecap="round" stroke-linejoin="round"/>
<path d="M311.352 444.808C302.06 437.85 294.673 428.661 289.874 418.091" stroke="#171717" stroke-width="2.903" stroke-linecap="round" stroke-linejoin="round"/>
<path d="M302.243 494.407C294.293 487.197 287.469 478.835 282 469.6" stroke="#171717" stroke-width="2.903" stroke-linecap="round" stroke-linejoin="round"/>
<path d="M292.58 552.8C285.015 545.79 278.5 537.726 273.236 528.857" stroke="#171717" stroke-width="2.903" stroke-linecap="round" stroke-linejoin="round"/>
<path d="M286.457 599.429C277.734 595.115 270.398 588.438 265.283 580.159" stroke="#171717" stroke-width="2.903" stroke-linecap="round" stroke-linejoin="round"/>
<path d="M271.133 637.3C265.673 634.252 260.992 629.983 257.455 624.826" stroke="#171717" stroke-width="2.903" stroke-linecap="round" stroke-linejoin="round"/>
<path d="M265.816 680.855C260.055 678.513 255.101 674.545 251.559 669.434" stroke="#171717" stroke-width="2.903" stroke-linecap="round" stroke-linejoin="round"/>
<path d="M274.885 729.84C263.325 726.357 253.279 719.074 246.375 709.17" stroke="#171717" stroke-width="2.903" stroke-linecap="round" stroke-linejoin="round"/>
<path d="M410.884 618.2C412.156 615.726 413.896 613.523 416.007 611.711" stroke="#171717" stroke-width="2.903" stroke-linecap="round" stroke-linejoin="round"/>
<path d="M370.586 607.617L368.196 602.836" stroke="#171717" stroke-width="2.903" stroke-linecap="round" stroke-linejoin="round"/>
<path d="M366.147 577.223L365.199 577.594C368.778 576.427 372.195 574.811 375.368 572.785" stroke="#171717" stroke-width="2.903" stroke-linecap="round" stroke-linejoin="round"/>
<path d="M374.3 589.483L380.394 581.248" stroke="#171717" stroke-width="2.903" stroke-linecap="round" stroke-linejoin="round"/>
<path d="M389.715 596.348L392.446 586.103" stroke="#171717" stroke-width="2.903" stroke-linecap="round" stroke-linejoin="round"/>
<path d="M407.051 596.038L403.297 587.158" stroke="#171717" stroke-width="2.903" stroke-linecap="round" stroke-linejoin="round"/>
<path d="M419.043 585.795L413.985 580.272" stroke="#171717" stroke-width="2.903" stroke-linecap="round" stroke-linejoin="round"/>
<path d="M418.4 571.076H423.181" stroke="#171717" stroke-width="2.903" stroke-linecap="round" stroke-linejoin="round"/>
<path d="M392.1 676.26L397.223 670.46" stroke="#171717" stroke-width="2.903" stroke-linecap="round" stroke-linejoin="round"/>
<path d="M361.366 702.557L357.95 696.068" stroke="#171717" stroke-width="2.903" stroke-linecap="round" stroke-linejoin="round"/>
<path d="M335.027 689.875L339.48 685.791" stroke="#171717" stroke-width="2.903" stroke-linecap="round" stroke-linejoin="round"/>
<path d="M311.164 715.876L308.09 709.387" stroke="#171717" stroke-width="2.903" stroke-linecap="round" stroke-linejoin="round"/>
<path d="M288.966 681.042L296.137 678.993" stroke="#171717" stroke-width="2.903" stroke-linecap="round" stroke-linejoin="round"/>
<path d="M299.558 653.718L296.144 647.57" stroke="#171717" stroke-width="2.903" stroke-linecap="round" stroke-linejoin="round"/>
<path d="M298.528 617.7L304.675 617.721" stroke="#171717" stroke-width="2.903" stroke-linecap="round" stroke-linejoin="round"/>
<path d="M337.257 617.866L337.524 608.643" stroke="#171717" stroke-width="2.903" stroke-linecap="round" stroke-linejoin="round"/>
<path d="M349.023 643.636C346.306 642.813 343.432 642.651 340.641 643.163L341.899 642.793" stroke="#171717" stroke-width="2.903" stroke-linecap="round" stroke-linejoin="round"/>
<path d="M373.432 640.4L372.946 632.213" stroke="#171717" stroke-width="2.903" stroke-linecap="round" stroke-linejoin="round"/>
<path d="M398.934 639.313L406.791 639.583" stroke="#171717" stroke-width="2.903" stroke-linecap="round" stroke-linejoin="round"/>
<path d="M351.451 578.946C351.606 579.048 351.721 579.202 351.774 579.38C351.827 579.558 351.815 579.75 351.741 579.92C349.944 578.748 347.779 578.274 345.656 578.589" stroke="#171717" stroke-width="2.903" stroke-linecap="round" stroke-linejoin="round"/>
<path d="M441.218 840.3C440.531 842.724 441.657 845.373 443.433 847.162C445.314 848.846 447.481 850.179 449.833 851.099C456.553 854.181 463.315 857.171 470.119 860.069C479.347 863.999 488.834 867.802 498.833 868.598C511.405 869.543 523.871 865.703 533.733 857.847" fill="#FF6900"/>
<path d="M441.218 840.3C440.531 842.724 441.657 845.373 443.433 847.162C445.314 848.846 447.481 850.179 449.833 851.099C456.553 854.181 463.315 857.171 470.119 860.069C479.347 863.999 488.834 867.802 498.833 868.598C511.405 869.543 523.871 865.703 533.733 857.847" stroke="#171717" stroke-width="2.903" stroke-linecap="round" stroke-linejoin="round"/>
<path d="M509.476 801.872C518.564 804.057 527.047 808.172 535.603 811.934C544.159 815.696 553.023 819.166 562.338 819.934C571.653 820.702 581.595 818.434 588.363 811.984" stroke="#171717" stroke-width="2.903" stroke-linecap="round" stroke-linejoin="round"/>
<path d="M575.2 800.053C570.385 801.556 565.929 804.034 562.112 807.332" stroke="#171717" stroke-width="2.903" stroke-linecap="round" stroke-linejoin="round"/>
<path d="M566.2 792.934L553.56 800.1" stroke="#171717" stroke-width="2.903" stroke-linecap="round" stroke-linejoin="round"/>
<path d="M521.9 844.028C516.142 845.599 510.767 848.333 506.106 852.061" stroke="#171717" stroke-width="2.903" stroke-linecap="round" stroke-linejoin="round"/>
<path d="M507.511 835.353C501.972 837.574 497.055 841.104 493.179 845.641" stroke="#171717" stroke-width="2.903" stroke-linecap="round" stroke-linejoin="round"/>
<path d="M440.505 254.423C431.987 253.611 426.347 242.602 430.665 235.214" stroke="#171717" stroke-width="2.903" stroke-linecap="round" stroke-linejoin="round"/>
<path d="M639.345 44.4491C646.683 40.9551 653.034 35.6865 657.823 29.1201" stroke="#171717" stroke-width="2.903" stroke-linecap="round" stroke-linejoin="round"/>
<path fill-rule="evenodd" clip-rule="evenodd" d="M440.337 118.236C472.132 124.787 501.509 143.461 522.748 168.348C550.073 200.357 564.878 241.664 570.432 283.387C575.986 325.11 572.793 367.502 567.519 409.264C536.801 368.509 501.277 331.609 461.719 299.364C467.031 282.082 472.34 264.803 477.646 247.529C465.534 246.39 453.834 242.54 443.412 236.266C446.255 225.982 446.979 215.228 445.54 204.657C444.102 194.085 440.53 183.915 435.042 174.766C429.197 165.138 418.67 155.713 403.236 148.224C389.506 141.548 371.896 136.419 350.25 134.058C345.617 135.59 341.092 137.429 336.704 139.564C322.891 146.169 310.536 155.464 300.362 166.906C290.188 178.348 282.4 191.705 277.456 206.195C272.511 220.685 270.508 236.017 271.565 251.291C272.622 266.565 276.717 281.475 283.611 295.146C274.873 298.012 266.132 300.873 257.389 303.729C264.394 319.862 271.405 335.989 278.424 352.109C255.831 369.661 233.241 387.217 210.653 404.776C187.159 333.57 192.665 253.268 225.641 185.932C236.169 164.432 249.715 143.85 268.661 129.22C283.64 117.648 302.382 110.178 321.125 110.149V110.071C249.019 108.736 177.512 148.224 140.25 209.977C142.234 220.663 147.08 230.612 154.27 238.763C143.813 246.145 133.356 253.53 122.9 260.92C129.352 277.555 139.613 292.447 152.86 304.4C130.045 324.141 112.064 348.854 100.3 376.636C58.277 321.782 46.569 245.099 70.333 180.211C94.097 115.323 152.533 64.33 220.033 49.5738C271.984 38.2238 328.018 48.6258 373.254 76.387C383.356 82.574 392.893 89.639 401.754 97.5L403.054 96.049C423.18 88.412 444.373 83.963 465.871 82.86C535.307 79.183 606.64 109.082 652.5 165C712.482 238.142 725.042 351.091 682.748 437.083C678.577 392.592 646.579 357.564 616.408 326.417C623.443 316.915 630.481 307.415 637.522 297.917C626.626 290.747 615.731 283.583 604.836 276.426C611.957 260.219 611.029 240.896 604.971 224.204C598.913 207.512 588.145 193.173 576.117 180.662C540.3 143.532 491.864 121.18 440.371 118.019L440.337 118.236ZM616.412 151.535C616.884 150.887 617.792 150.744 618.44 151.217C674.003 191.718 703.55 265.011 691.614 332.723C691.475 333.512 690.722 334.039 689.933 333.9C689.143 333.761 688.616 333.008 688.755 332.219C700.498 265.598 671.397 193.411 616.73 153.563C616.082 153.09 615.94 152.182 616.412 151.535ZM533.255 206.088C532.89 205.374 532.016 205.091 531.302 205.455C530.588 205.82 530.305 206.694 530.669 207.408C554.662 254.381 564.517 307.305 559.04 359.765C558.957 360.563 559.536 361.276 560.333 361.36C561.131 361.443 561.844 360.864 561.928 360.067C567.463 307.048 557.503 253.561 533.255 206.088ZM223.551 122.396C223.852 123.139 223.493 123.985 222.75 124.286C186.992 138.767 156.568 163.921 135.624 196.32C135.189 196.994 134.29 197.187 133.617 196.751C132.944 196.316 132.751 195.418 133.186 194.744C154.455 161.844 185.349 136.301 221.66 121.595C222.403 121.294 223.25 121.653 223.551 122.396ZM299.168 155.195C299.765 154.661 299.816 153.743 299.282 153.146C298.747 152.548 297.83 152.497 297.232 153.031C264.845 182.004 249.501 228.746 258.417 271.278C258.582 272.063 259.351 272.565 260.136 272.401C260.92 272.236 261.423 271.467 261.258 270.682C252.555 229.166 267.554 183.476 299.168 155.195Z" fill="#171717"/>
<path fill-rule="evenodd" clip-rule="evenodd" d="M570.103 769.6C572.88 733.832 568.342 697.914 562.652 662.5C561.094 652.821 559.382 642.951 554.6 634.4C552.574 630.767 549.93 627.515 546.787 624.79C542.571 620.98 537.197 618.7 531.528 618.317C523.942 617.988 516.579 621.704 511.189 627.055C505.799 632.406 502.151 639.256 499.162 646.233L498.762 646.407C501.537 653.024 503.628 659.907 505.003 666.949C513.431 706.176 512.467 746.726 511.467 786.826C511.438 788.046 511.408 789.274 511.36 790.503C523.627 795.211 536.983 796.321 549.86 793.703C554.35 792.774 558.946 791.255 562.507 788.488C563.69 787.58 564.745 786.516 565.642 785.324C568.961 780.9 569.677 775.106 570.103 769.6ZM547.715 630.578C547.443 629.824 546.611 629.433 545.857 629.705C545.103 629.977 544.712 630.809 544.984 631.563C561.037 676.071 567.073 723.572 562.661 770.68C562.587 771.478 563.173 772.186 563.971 772.26C564.769 772.335 565.477 771.749 565.552 770.951C570.003 723.417 563.913 675.487 547.715 630.578Z" fill="#171717"/>
<path fill-rule="evenodd" clip-rule="evenodd" d="M493.923 637.61C488.011 628.911 478.646 622.022 468.146 621.354C457.734 620.7 447.884 626.086 439.643 632.472C431.268 639.056 423.727 646.637 417.185 655.046C404.172 671.467 394.099 690.577 384.385 709.3L384.501 709.368C376.559 723.776 363.641 734.787 347.801 739.248C333.341 743.225 317.936 741.925 304.346 735.58L304.007 736.306C301.105 746.534 303.959 757.536 308.313 767.221C317.571 787.783 334.458 805.519 355.871 812.592C377.023 819.579 402.433 814.72 417.44 798.32C417.705 801.913 418.011 805.5 418.359 809.08C419.017 815.823 419.927 822.869 423.807 828.423C426.697 832.33 430.607 835.366 435.107 837.199C438.329 838.589 441.678 839.66 445.107 840.399C456.36 842.934 468.271 843.34 479.312 840.021C486.264 837.956 492.645 834.313 497.958 829.378C501.112 826.43 503.743 822.968 505.737 819.14C507.368 815.924 508.593 812.518 509.385 809C510.647 802.91 511.307 796.711 511.357 790.492C511.405 789.263 511.435 788.035 511.464 786.815C512.46 746.718 513.428 706.165 505 666.938C503.627 659.896 501.536 653.012 498.761 646.396C497.421 643.325 495.801 640.384 493.923 637.61ZM486.781 639.621C486.512 638.865 485.683 638.47 484.927 638.739C484.172 639.007 483.777 639.837 484.045 640.592C503.027 694.023 508.396 751.341 499.666 807.367C499.542 808.159 500.084 808.901 500.877 809.025C501.669 809.148 502.411 808.606 502.534 807.814C511.339 751.311 505.924 693.505 486.781 639.621Z" fill="#171717"/>
<path d="M217.2 489.942C211.152 475.235 190.979 469.642 176.807 476.856C162.635 484.07 155.155 501.074 156.33 516.932C157.505 532.79 166.103 547.353 177.181 558.76C181.146 562.844 185.673 566.725 191.181 568.139C196.689 569.553 203.376 567.804 206.12 562.817C210.859 554.205 198.831 543.659 189.674 547.234C180.517 550.809 177.051 562.684 179.53 572.196C182.009 581.708 188.803 589.396 195.254 596.813C201.705 604.23 208.254 612.232 210.054 621.895C211.854 631.558 207.013 643.182 197.443 645.429C189.643 647.26 181.949 642.567 175.304 638.088" stroke="#171717" stroke-width="2.903" stroke-linecap="round" stroke-linejoin="round"/>
<path d="M160.87 607.976L154.358 596.921" stroke="#171717" stroke-width="2.903" stroke-linecap="round" stroke-linejoin="round"/>
<path d="M151.86 607.132L162.027 597.826" stroke="#171717" stroke-width="2.903" stroke-linecap="round" stroke-linejoin="round"/>
<path d="M192.66 513.7L203.93 506.528" stroke="#171717" stroke-width="2.903" stroke-linecap="round" stroke-linejoin="round"/>
<path d="M201.881 517.8L194.709 505.506" stroke="#171717" stroke-width="2.903" stroke-linecap="round" stroke-linejoin="round"/>
<path d="M681.924 504.736C663.099 520.867 655.652 549.018 664.04 572.346C666.01 577.825 668.9 583.189 673.529 586.721C678.158 590.253 684.809 591.568 689.911 588.762C699.142 583.686 696.592 567.662 686.911 563.52C677.23 559.378 665.419 565.456 660.359 574.696C655.299 583.936 655.659 595.226 657.889 605.522C661.471 622.059 669.4 637.297 674.706 653.364C680.012 669.431 682.528 687.57 675.351 702.892C668.174 718.214 648.485 728.401 633.53 720.485C627.663 717.379 622.914 710.835 624.449 704.377C625.984 697.919 636.017 694.74 639.574 700.345" stroke="#171717" stroke-width="2.903" stroke-linecap="round" stroke-linejoin="round"/>
<path d="M19.176 344.112C12.776 343.736 6.80399 348.351 4.11599 354.176C1.42799 360.001 1.524 366.758 2.731 373.058C4.387 381.396 7.84 389.273 12.848 396.142C17.856 403.011 24.299 408.707 31.731 412.834C37.193 415.817 43.699 417.925 49.597 415.934C55.495 413.943 59.621 406.377 56.203 401.176C51.736 397.402 44.248 398.963 40.723 403.629C37.198 408.295 37.288 415.016 39.836 420.279C42.384 425.542 47.023 429.523 52.012 432.579C58.394 436.485 65.827 439.379 70.112 445.515C74.397 451.651 72.744 462.498 65.358 463.694L66.982 461.45" stroke="#171717" stroke-width="2.903" stroke-linecap="round" stroke-linejoin="round"/>
<path d="M10.9766 455.987L20.5386 442.327" stroke="#171717" stroke-width="2.903" stroke-linecap="round" stroke-linejoin="round"/>
<path d="M20.6572 457.228L7.99023 445.328" stroke="#171717" stroke-width="2.903" stroke-linecap="round" stroke-linejoin="round"/>
<path d="M114.8 417.738H127.09" stroke="#171717" stroke-width="2.903" stroke-linecap="round" stroke-linejoin="round"/>
<path d="M122.9 408.152L117.457 430.014" stroke="#171717" stroke-width="2.903" stroke-linecap="round" stroke-linejoin="round"/>
<path d="M57.4224 709.387C54.4054 706.246 52.2834 702.355 51.2754 698.117" stroke="#171717" stroke-width="2.903" stroke-linecap="round" stroke-linejoin="round"/>
<path d="M47.1768 709.387L59.4707 700.166" stroke="#171717" stroke-width="2.903" stroke-linecap="round" stroke-linejoin="round"/>
<g opacity="0.1">
<path d="M339.624 136.454C334.031 156.572 331.413 177.654 327.81 198.204C324.243 218.554 320.752 238.916 317.337 259.292C310.369 300.375 303.477 341.47 296.661 382.576C289.926 423.385 283.342 464.185 276.538 504.976C269.666 546.176 265.738 587.817 258.498 628.986C250.363 675.228 242.571 721.543 233.773 767.663C232.601 773.809 242.18 776.285 243.085 770.23C249.299 728.664 256.385 687.23 263.185 645.757C266.53 625.376 270.31 605.093 274.105 584.792C277.893 564.532 282.758 544.509 286.74 524.299C290.798 503.699 293.654 482.86 297.173 462.168C300.686 441.508 304.88 420.937 308.495 400.282C315.676 359.258 322.77 318.219 329.775 277.166C333.695 254.166 337.664 231.176 341.457 208.156C345.276 184.979 350.411 161.574 351.957 138.12C352.431 130.94 341.482 129.751 339.619 136.451L339.624 136.454Z" fill="#171717"/>
</g>
<g opacity="0.1">
<path d="M363.444 563.585C352.231 563.842 340.467 569.32 330.578 574.244C320.566 579.174 311.213 585.343 302.741 592.606C285.826 607.244 272.241 627.413 267.711 649.532C259.736 688.5 281.9 735.9 324.834 740C346.07 742.026 368.822 733.113 381.141 715.379C383.583 711.864 381.787 706.579 378.299 704.541C374.261 702.179 370.021 703.941 367.46 707.383C358.66 719.215 343.228 724.734 328.86 724.368C313.093 723.968 300.06 715.114 291.904 701.88C283.204 687.752 279.654 670.069 282.994 653.749C286.734 635.473 297.082 618.978 310.437 606.158C318.202 598.781 326.877 592.424 336.252 587.242C341.08 584.542 346.083 582.11 351.052 579.694C355.998 577.294 361.286 575.71 365.908 572.674C369.781 570.13 368.508 563.474 363.447 563.59L363.444 563.585Z" fill="#171717"/>
</g>
<g opacity="0.1">
<path d="M417.906 471.577C412.45 474.207 408.4 480.015 403.177 483.301C397.726 486.687 391.654 488.949 385.316 489.957C382.816 490.386 380.349 493.557 380.623 496.12C381.539 504.659 382.307 513.228 381.877 521.82C381.655 526.192 381.152 530.545 380.369 534.852C379.649 538.835 378.503 543.099 379.007 547.138C379.415 550.413 383.832 553.593 386.529 550.254C392.243 543.177 392.934 532.409 393.843 523.654C394.945 513.922 394.721 504.087 393.178 494.416L388.714 502.278C396.251 500.557 403.397 497.429 409.774 493.059C415.211 489.265 423.002 483.294 424.174 476.39C424.369 475.577 424.324 474.725 424.045 473.937C423.766 473.149 423.265 472.459 422.603 471.949C421.94 471.44 421.144 471.133 420.311 471.066C419.478 470.999 418.644 471.175 417.908 471.572L417.906 471.577Z" fill="#171717"/>
</g>
</g>
</svg>
