<svg width="884" height="804" viewBox="0 0 884 804" fill="none" xmlns="http://www.w3.org/2000/svg">
<mask id="mask0_89_501" style="mask-type:luminance" maskUnits="userSpaceOnUse" x="0" y="0" width="884" height="804">
<path d="M884 0H0V804H884V0Z" fill="white"/>
</mask>
<g mask="url(#mask0_89_501)">
<path d="M465.686 395.977L385.765 401.678L384.619 323.597L382.578 184.479L542.631 218.547V386.776L519.936 389.26L494.063 392.095H494.053" fill="white"/>
<path d="M465.686 395.977L385.765 401.678L384.619 323.597L382.578 184.479L542.631 218.547V386.776L519.936 389.26L494.063 392.095H494.053" stroke="#171717" stroke-width="3" stroke-linecap="round" stroke-linejoin="round"/>
<path fill-rule="evenodd" clip-rule="evenodd" d="M625.101 360.913C625.523 361.325 625.815 361.597 625.956 361.718C625.691 361.429 625.405 361.16 625.101 360.913ZM603.015 221.645C611.924 229.89 619.094 235.682 619.406 235.933C614.558 230.507 609.052 225.708 603.015 221.645ZM570.204 166.852C559.163 177.581 584.734 204.731 602.995 221.624C594.538 216.225 584.701 213.278 578.318 222.221C565.467 240.209 619.415 298.673 622.14 301.609C620.151 299.595 592.448 272.083 580.14 289.409C568.335 306.02 617.486 353.693 625.068 360.893C622.283 358.55 613.826 353.462 603.801 366.725C595.262 378.001 612.669 401.487 624.155 414.817C620.342 412.695 615.495 412.212 609.955 416.556C603.147 421.896 610.286 437.924 619.216 452.716C624.429 461.334 630.229 469.529 634.229 474.949C637.084 478.82 639.025 481.285 639.196 481.485C642.776 480.912 647.217 480.228 652.017 479.564C656.623 478.921 661.54 478.297 666.317 477.815C666.075 477 654.049 435.762 663.189 424.631C670.55 415.651 676.855 420.408 679.107 422.69C674.08 416.788 649.071 386.42 656.321 373.629C664.155 359.808 682.647 380.543 683.602 381.629C682.355 379.904 646.688 330.229 663.189 310.229C679.69 290.229 704.186 328.259 705.04 329.586C703.993 327.706 667.189 260.819 683.64 246.819C688.627 242.578 694.399 242.558 700.04 244.619C703.227 212.341 679.034 221.27 679.034 221.27C679.034 221.27 724.937 173.004 712.157 157.86C699.578 142.946 667.722 179.44 666.757 180.546C667.909 178.967 712.837 117.276 692.757 89.724C672.401 61.801 635.501 127.101 635.501 127.101C635.501 127.101 616.57 69.847 594.337 87.353C572.345 104.663 617.422 175.152 618.451 176.761L618.461 176.777C617.7 176.162 586.56 150.956 570.204 166.852ZM633.114 424.611C632.914 424.199 629.595 417.844 624.155 414.817C628.992 420.458 632.783 424.279 633.114 424.611ZM644.467 148.81C644.462 147.982 643.787 147.314 642.959 147.318C642.13 147.323 641.462 147.998 641.467 148.827L642.967 148.818C641.467 148.827 641.467 148.828 641.467 148.83V148.84V148.882L641.468 149.046L641.472 149.694C641.475 150.266 641.48 151.114 641.487 152.222C641.501 154.438 641.523 157.691 641.553 161.838C641.613 170.132 641.707 182.003 641.843 196.313C642.114 224.933 642.553 263.309 643.223 302.331C643.893 341.351 644.793 381.025 645.987 412.239C646.584 427.845 647.255 441.348 648.009 451.602C648.385 456.728 648.783 461.057 649.205 464.437C649.621 467.77 650.075 470.313 650.598 471.779C650.877 472.559 651.735 472.966 652.516 472.687C653.296 472.408 653.702 471.55 653.423 470.77C653.025 469.655 652.601 467.421 652.182 464.065C651.769 460.757 651.375 456.485 651 451.382C650.251 441.18 649.581 427.717 648.985 412.125C647.792 380.943 646.892 341.293 646.223 302.28C645.553 263.268 645.114 224.9 644.843 196.285C644.707 181.977 644.613 170.108 644.553 161.816C644.523 157.67 644.501 154.419 644.487 152.203C644.48 151.096 644.475 150.247 644.472 149.676L644.468 149.029L644.467 148.865V148.824V148.813C644.467 148.811 644.467 148.81 642.967 148.818L644.467 148.81Z" fill="#171717"/>
<path d="M740.615 462.212C745.441 464.857 748.125 467.793 748.125 470.88C748.125 471.051 748.115 471.223 748.095 471.393C747.595 476.682 739.237 481.479 725.823 485.109C722.565 481.388 717.265 478.723 710.722 476.853L710.48 476.169C718.967 473.113 730.692 468.195 738.797 461.961L740.615 462.212Z" fill="#171717"/>
<path d="M679.406 423.036C679.677 423.358 679.858 423.579 679.939 423.66C679.868 423.569 679.687 423.338 679.406 423.036ZM777.95 281.354C778.463 281.123 790.197 275.773 805.281 267.538C820.434 261.746 836.754 259.363 839.449 274.265C844.578 302.692 747.824 344.885 744.877 346.165C747.09 345.38 800.343 326.738 808.217 346.195C816.261 366.075 735.345 389.263 735.345 389.263C735.345 389.263 783.138 385.472 785.974 405.11C788.749 424.296 719.256 430.39 716.058 430.661C718.099 430.551 747.673 429.193 748.125 447.373C748.256 452.733 744.395 457.66 738.794 461.964C730.689 468.198 718.964 473.116 710.477 476.172C704.213 478.435 699.708 479.672 699.708 479.672L699.457 480.185C695.639 478.457 691.549 477.405 687.37 477.077C682.342 476.554 674.549 476.997 666.314 477.832C666.072 477.017 654.046 435.779 663.186 424.648C670.547 415.668 676.852 420.425 679.104 422.707C674.077 416.807 649.068 386.437 656.318 373.646C664.152 359.82 682.644 380.555 683.599 381.646C682.352 379.916 646.675 330.232 663.186 310.246C679.697 290.26 704.186 328.276 705.037 329.603C703.992 327.723 667.188 260.834 683.637 246.836C688.625 242.593 694.397 242.573 700.037 244.636C713.037 249.383 725.357 265.17 725.809 265.743C724.974 264.536 689.619 213.082 713.572 195.736C727.297 185.792 748.122 229.804 748.122 229.804C748.122 229.804 739.474 152.669 751.601 145.57C763.447 138.651 776.79 201.538 777.434 204.605C776.67 200.563 757.584 97.5439 781.245 85.4779C805.378 73.1699 821.94 140.371 821.94 140.371C821.94 140.371 873.04 115.292 881.85 136.107C890.387 156.289 808.75 214.707 803.729 218.291C808.154 215.391 872.147 174.137 873.514 205.199C874.439 226.094 833.845 251.977 805.278 267.553C795.779 271.337 786.634 275.955 777.95 281.354Z" fill="#FF6900"/>
<path d="M604.834 455.586C609.128 454.57 613.844 453.675 618.912 452.911L619.212 452.73C624.42 461.348 630.222 469.543 634.225 474.963L633.651 475.385C624.712 476.36 618.91 477.275 618.91 477.275L604.834 455.586Z" fill="#171717"/>
<path d="M619.405 235.933C619.093 235.682 611.923 229.89 603.014 221.645C609.05 225.707 614.556 230.507 619.405 235.933Z" fill="#171717"/>
<path d="M540.348 416.57L495.581 419.808L495.39 419.818C495.129 411.241 494.665 401.839 494.062 392.095L519.935 389.26C519.935 389.26 546.543 402.915 540.348 416.57Z" fill="#FF6900"/>
<path d="M469.477 703.343H469.377C469.41 703.333 469.444 703.333 469.477 703.343Z" fill="#171717"/>
<path d="M524.893 444.976L493.309 488.276H418.062L462.076 444.976H466.875L467.851 444.936L466.875 422.774L465.689 395.974L460.651 282.427L468.817 274.262L483.729 278.525C483.729 278.525 490.857 340.206 494.065 392.092C494.665 401.836 495.132 411.238 495.393 419.815C495.665 429.438 495.675 438.026 495.323 444.915L496.68 444.975L524.893 444.976Z" fill="#171717"/>
<path d="M614.68 750.372L588.063 755.158V698.727L469.478 703.342C469.446 703.332 469.411 703.332 469.378 703.342L433.158 704.76C439.141 650.511 442.781 552.882 443.143 524.123C443.233 517.265 440.9 512.097 437.009 508.175L630.648 495.375L619.164 678.775L614.68 750.372Z" fill="#171717"/>
<path d="M443.142 524.124C442.78 552.883 439.142 650.512 433.157 704.761L40.8115 720.025V802.008H16.3115L2.48047 536.895L437.008 508.176C440.9 512.101 443.232 517.266 443.142 524.124Z" fill="#171717"/>
<path d="M504.661 42.516L490.242 119.772L459.231 82.858L418.305 119.772L399.964 92.381L382.578 117.881L368.378 99.188L358.178 106.498L363.407 35.426L504.661 42.516ZM443.454 71.737C443.454 69.537 442.802 67.387 441.58 65.557C440.358 63.728 438.621 62.303 436.589 61.461C434.556 60.619 432.32 60.398 430.163 60.827C428.005 61.256 426.023 62.316 424.468 63.871C422.912 65.426 421.853 67.408 421.423 69.566C420.994 71.723 421.214 73.959 422.056 75.992C422.898 78.024 424.324 79.761 426.153 80.983C427.982 82.205 430.132 82.858 432.332 82.858C433.792 82.858 435.239 82.571 436.588 82.012C437.938 81.453 439.164 80.634 440.197 79.601C441.23 78.569 442.049 77.343 442.608 75.993C443.166 74.644 443.454 73.197 443.454 71.737Z" fill="#FF6900"/>
<path d="M418.306 119.771L459.232 82.8569L490.243 119.771L484.783 148.993L355.6 141.531L358.184 106.498L368.38 99.1879L382.579 117.881L399.965 92.3799L418.306 119.771Z" fill="#171717"/>
<path d="M337.852 249.821C338.435 250.213 350.522 258.388 346.137 267.177C341.643 276.166 329.526 260.43 329.526 260.43H329.516C330.25 250.263 330.783 237.664 331.135 227.186C331.517 236.638 348.983 236.886 348.983 244.934C348.983 252.757 338.435 249.982 337.852 249.821Z" fill="#171717"/>
<path d="M255.98 325.678C275.568 324.702 303.965 324.178 329.103 323.898C359.203 323.576 384.62 323.598 384.62 323.598L385.766 401.679L465.687 395.979L466.874 422.779L416.988 424.87L416.757 425.524C397.31 418.807 331.708 425.463 331.708 425.463L331.336 425.484L332.703 456.947L333.126 466.631C333.126 466.631 192.771 484.243 137.174 450.869L136.591 450.758L140.171 432.377C140.388 431.833 140.5 431.253 140.502 430.667C140.502 425.107 130.175 420.26 114.921 417.746L114.982 417.384C109.773 342.621 216.251 332 233.757 327.739C237.236 326.894 245.291 326.221 255.98 325.678Z" fill="#FF6900"/>
<path d="M261.872 257.08C261.832 257.15 261.782 257.271 261.711 257.422C261.782 257.271 261.842 257.15 261.872 257.08ZM261.572 257.704C260.472 259.785 256.836 265.617 251.737 262.681C245.583 259.131 255.518 249.428 258.837 240.438C262.156 231.448 256.474 219.138 256.237 208.492C256 197.846 301.547 197.139 301.547 197.139C301.547 197.139 295.987 178.446 301.547 177.028C306.937 175.651 312.005 190.08 312.307 190.945C312.085 189.799 307.269 164.72 313.966 164.72C320.834 164.72 324.142 189.799 324.142 189.799C324.142 189.799 326.032 159.753 331.714 160.939C337.234 162.096 334.258 188.29 334.087 189.739C334.358 188.439 339.155 165.787 350.88 169.93C362.946 174.194 331.714 209.679 331.714 209.679H331.643C331.694 207.579 331.714 206.371 331.714 206.371C331.714 206.371 271.371 206.371 271.381 231.922C271.391 239.022 271.881 250.776 272.336 263.235C272.004 264.321 268.626 274.698 261.446 273.735C254.833 272.847 260.113 260.77 261.571 257.701L261.572 257.704Z" fill="#171717"/>
<path d="M329.101 323.901C303.963 324.182 275.566 324.701 255.978 325.681C255.887 325.289 253.464 314.217 257.416 312.126C258.532 311.533 264.404 311.181 272.328 310.98C283.942 310.68 299.94 310.708 311.715 310.789C320.856 310.859 327.442 310.949 327.442 310.949L329.101 323.901Z" fill="#FF6900"/>
<path d="M192.701 184.479L196.612 210.03L190.438 210.382L174.49 211.277L165.018 211.81L168.567 184.479H192.701Z" fill="#171717"/>
<path d="M140.171 432.377C137.335 439.717 116.419 445.409 91.049 445.409C66.303 445.409 45.8004 439.989 42.1804 432.909L41.6074 430.666C41.6074 422.521 63.739 415.915 91.049 415.915C99.043 415.883 107.026 416.495 114.921 417.745C130.175 420.259 140.502 425.106 140.502 430.666L140.171 432.377Z" fill="#171717"/>
<path d="M136.591 450.759L125.391 508.347C125.391 513.576 111.091 517.809 93.455 517.809C75.819 517.809 61.5077 513.576 61.5077 508.347L57.5077 492.701H57.4977L49.0917 459.859L47.1207 452.197L42.1797 432.911C45.7997 439.99 66.303 445.411 91.049 445.411C116.419 445.411 137.335 439.719 140.171 432.379L136.591 450.759Z" fill="#FF6900"/>
<path d="M2.48047 536.895L16.3165 802.008H40.8115V720.025L433.157 704.761L469.377 703.343H469.477L588.062 698.728V755.159L614.68 750.373L619.164 678.778L630.647 495.375L437.008 508.176L2.48047 536.895Z" stroke="#171717" stroke-width="3" stroke-linecap="round" stroke-linejoin="round"/>
<path d="M466.872 444.977H462.076L418.062 488.276H493.309L524.893 444.977H496.677" stroke="#171717" stroke-width="3" stroke-linecap="round" stroke-linejoin="round"/>
<path d="M468.814 466.626L467.848 444.936L466.873 422.774L465.686 395.974L460.648 282.427L468.814 274.262C468.814 274.262 478.105 440.831 476.979 466.624" stroke="#171717" stroke-width="3" stroke-linecap="round" stroke-linejoin="round"/>
<path d="M468.814 274.266L483.726 278.529C483.726 278.529 490.855 340.21 494.063 392.096C494.663 401.84 495.129 411.242 495.39 419.819C495.662 429.442 495.672 438.03 495.32 444.919C494.998 451.304 494.355 456.231 493.309 459.178" stroke="#171717" stroke-width="3" stroke-linecap="round" stroke-linejoin="round"/>
<path d="M176.029 1.93158L180.282 181.996" stroke="#171717" stroke-width="3" stroke-linecap="round" stroke-linejoin="round"/>
<path d="M190.438 210.382L196.612 210.03L192.701 184.479H168.567L165.018 211.81L174.49 211.277L190.438 210.382Z" stroke="#171717" stroke-width="3" stroke-linecap="round" stroke-linejoin="round"/>
<path d="M174.49 211.276V222.931L177.557 222.77L189.704 222.136L192.821 221.975L190.438 210.381" stroke="#171717" stroke-width="3" stroke-linecap="round" stroke-linejoin="round"/>
<path d="M177.556 222.771L176.028 230.021C176.028 230.021 156.148 230.856 159.104 252.978C162.06 275.1 187.504 273.792 187.853 273.677C188.202 273.562 211.513 270.128 208.678 251.435C205.843 232.742 189.864 229.784 189.864 229.784L189.743 222.927" stroke="#171717" stroke-width="3" stroke-linecap="round" stroke-linejoin="round"/>
<path d="M180.814 231.92L176.5 248.009L170.939 258.175L180.16 254.153L186.908 260.428L192.82 253.801L201.106 255.108L184.715 231.92" stroke="#171717" stroke-width="3" stroke-linecap="round" stroke-linejoin="round"/>
<path d="M137.174 450.87C192.774 484.244 333.126 466.627 333.126 466.627L332.703 456.943L331.336 425.48L330.763 412.448C330.763 412.448 185.642 434.338 178.15 404.403C174.49 389.732 192.821 385.941 192.821 385.941" stroke="#171717" stroke-width="3" stroke-linecap="round" stroke-linejoin="round"/>
<path d="M384.62 323.6C384.62 323.6 359.2 323.58 329.103 323.9C303.965 324.181 275.568 324.7 255.98 325.68C245.291 326.223 237.236 326.896 233.757 327.741C216.251 332 109.773 342.621 114.982 417.384" stroke="#171717" stroke-width="3" stroke-linecap="round" stroke-linejoin="round"/>
<path d="M255.98 325.689V325.679C255.889 325.287 253.466 314.215 257.418 312.124C258.534 311.531 264.406 311.179 272.33 310.978C283.944 310.678 299.942 310.706 311.717 310.787C320.858 310.857 327.444 310.947 327.444 310.947L329.101 323.901V323.911" stroke="#171717" stroke-width="3" stroke-linecap="round" stroke-linejoin="round"/>
<path d="M311.717 310.786C311.717 310.786 304.97 295.33 312.783 289.649C320.596 283.968 324.377 288.231 327.444 277.582C328.269 274.727 328.953 268.311 329.516 260.428C330.25 250.261 330.783 237.662 331.135 227.184C331.386 219.723 331.547 213.338 331.635 209.677C331.686 207.577 331.706 206.369 331.706 206.369C331.706 206.369 271.363 206.369 271.373 231.92C271.383 239.02 271.873 250.774 272.328 263.233C273.002 281.926 273.595 302.218 272.318 310.733" fill="white"/>
<path d="M311.717 310.786C311.717 310.786 304.97 295.33 312.783 289.649C320.596 283.968 324.377 288.231 327.444 277.582C328.269 274.727 328.953 268.311 329.516 260.428C330.25 250.261 330.783 237.662 331.135 227.184C331.386 219.723 331.547 213.338 331.635 209.677C331.686 207.577 331.706 206.369 331.706 206.369C331.706 206.369 271.363 206.369 271.373 231.92C271.383 239.02 271.873 250.774 272.328 263.233C273.002 281.926 273.595 302.218 272.318 310.733" stroke="#171717" stroke-width="3" stroke-linecap="round" stroke-linejoin="round"/>
<path d="M337.852 249.821C338.435 249.982 348.983 252.757 348.983 244.934C348.983 236.89 331.517 236.634 331.135 227.186" stroke="#171717" stroke-width="3" stroke-linecap="round" stroke-linejoin="round"/>
<path d="M329.525 260.43C329.525 260.43 341.642 276.166 346.136 267.177C350.521 258.388 338.436 250.213 337.851 249.821C337.846 249.815 337.839 249.811 337.831 249.811" stroke="#171717" stroke-width="3" stroke-linecap="round" stroke-linejoin="round"/>
<path d="M261.57 257.701C260.112 260.767 254.832 272.844 261.439 273.729C268.619 274.694 271.997 264.317 272.329 263.229L272.359 263.139" stroke="#171717" stroke-width="3" stroke-linecap="round" stroke-linejoin="round"/>
<path d="M261.872 257.08C261.832 257.15 261.782 257.271 261.711 257.422" stroke="#171717" stroke-width="3" stroke-linecap="round" stroke-linejoin="round"/>
<path d="M261.711 257.422C261.782 257.271 261.842 257.15 261.872 257.08C261.886 257.062 261.896 257.042 261.902 257.02C261.908 257.015 261.912 257.008 261.913 257" stroke="#171717" stroke-width="3" stroke-linecap="round" stroke-linejoin="round"/>
<path d="M261.71 257.422C261.668 257.496 261.631 257.573 261.6 257.653C261.588 257.668 261.578 257.686 261.57 257.704" stroke="#171717" stroke-width="3" stroke-linecap="round" stroke-linejoin="round"/>
<path d="M312.3 190.945C312 190.08 306.93 175.651 301.54 177.028C295.98 178.446 301.54 197.139 301.54 197.139C301.54 197.139 255.999 197.839 256.23 208.492C256.461 219.145 262.143 231.449 258.83 240.438C255.517 249.427 245.576 259.131 251.73 262.681C256.83 265.617 260.469 259.781 261.565 257.704" stroke="#171717" stroke-width="3" stroke-linecap="round" stroke-linejoin="round"/>
<path d="M334.08 189.738C334.251 188.29 337.227 162.097 331.707 160.939C326.025 159.753 324.135 189.798 324.135 189.798C324.135 189.798 320.827 164.719 313.959 164.719C307.259 164.719 312.078 189.798 312.3 190.944C312.305 190.957 312.308 190.971 312.31 190.984" stroke="#171717" stroke-width="3" stroke-linecap="round" stroke-linejoin="round"/>
<path d="M331.707 209.678C331.707 209.678 362.939 174.193 350.873 169.929C339.148 165.786 334.351 188.441 334.08 189.738C334.075 189.758 334.071 189.779 334.07 189.799" stroke="#171717" stroke-width="3" stroke-linecap="round" stroke-linejoin="round"/>
<path d="M295.267 278.528C295.267 278.528 281.31 281.605 279.65 271.902" stroke="#171717" stroke-width="3" stroke-linecap="round" stroke-linejoin="round"/>
<path d="M296.221 260.428C296.221 260.428 304.021 262.68 304.969 260.428C305.917 258.176 303.079 221.503 303.079 221.503C303.079 221.503 317.508 218.908 321.772 221.503" stroke="#171717" stroke-width="3" stroke-linecap="round" stroke-linejoin="round"/>
<path d="M314.201 231.92V238.305" stroke="#171717" stroke-width="3" stroke-linecap="round" stroke-linejoin="round"/>
<path d="M290.068 231.92L291.013 238.305" stroke="#171717" stroke-width="3" stroke-linecap="round" stroke-linejoin="round"/>
<path d="M2.48047 536.895L35.1205 482.947L49.0875 459.859" stroke="#171717" stroke-width="3" stroke-linecap="round" stroke-linejoin="round"/>
<path d="M410.191 31.073L346.379 29.031V154.313L502.179 155.731L512.827 34.361L451.449 32.4L410.191 31.073Z" stroke="#171717" stroke-width="3" stroke-linecap="round" stroke-linejoin="round"/>
<path d="M490.243 119.771L504.662 42.515L363.413 35.426L358.184 106.498L355.6 141.531L484.783 148.993L490.243 119.771Z" stroke="#171717" stroke-width="3" stroke-linecap="round" stroke-linejoin="round"/>
<path d="M410.26 29.03L434.032 14.832L451.448 32.389" stroke="#171717" stroke-width="3" stroke-linecap="round" stroke-linejoin="round"/>
<path d="M389.566 434.101C403.905 433.669 421.794 432.764 422.086 430.901C422.458 428.537 420.437 426.788 416.756 425.521C397.309 418.804 331.707 425.46 331.707 425.46" fill="white"/>
<path d="M389.566 434.101C403.905 433.669 421.794 432.764 422.086 430.901C422.458 428.537 420.437 426.788 416.756 425.521C397.309 418.804 331.707 425.46 331.707 425.46" stroke="#171717" stroke-width="3" stroke-linecap="round" stroke-linejoin="round"/>
<path d="M389.566 434.1C380.436 433.979 371.838 434.452 371.838 434.452C371.838 434.452 379.9 434.378 389.566 434.1Z" fill="white" stroke="#171717" stroke-width="3" stroke-linecap="round" stroke-linejoin="round"/>
<path d="M392.311 444.765C401.911 443.206 410.964 441.004 410.964 438.229C410.964 435.082 399.913 434.217 389.564 434.096" stroke="#171717" stroke-width="3" stroke-linecap="round" stroke-linejoin="round"/>
<path d="M392.291 444.766C384.744 445.192 377.231 446.094 369.797 447.466C369.797 447.466 381.4 446.526 392.291 444.766Z" fill="white" stroke="#171717" stroke-width="3" stroke-linecap="round" stroke-linejoin="round"/>
<path d="M392.291 444.766H392.311" stroke="#171717" stroke-width="3" stroke-linecap="round" stroke-linejoin="round"/>
<path d="M332.701 456.943C332.701 456.943 341.409 457.124 352.943 457.024C365.864 456.913 382.335 456.44 394.13 454.952C403.311 453.806 409.656 452.036 409.314 449.352C408.781 445.252 400.898 444.425 392.314 444.767" fill="white"/>
<path d="M332.701 456.943C332.701 456.943 341.409 457.124 352.943 457.024C365.864 456.913 382.335 456.44 394.13 454.952C403.311 453.806 409.656 452.036 409.314 449.352C408.781 445.252 400.898 444.425 392.314 444.767" stroke="#171717" stroke-width="3" stroke-linecap="round" stroke-linejoin="round"/>
<path d="M352.945 457.054L354.423 463.554C368.091 464.493 381.812 464.315 395.45 463.021C411.317 461.291 426.672 457.168 430.845 447.938C431.336 446.858 431.762 445.75 432.122 444.619C436.446 430.702 422.087 430.904 422.087 430.904" stroke="#171717" stroke-width="3" stroke-linecap="round" stroke-linejoin="round"/>
<path d="M425.524 438.214C440.569 436.567 441.311 444.954 441.311 444.954C441.311 444.954 441.619 444.814 442.132 444.593C444.871 443.418 453.437 440.072 451.715 444.954C449.674 450.74 447.074 465.396 427.569 468.47C408.063 471.544 390.42 472.257 392.093 486.2C393.467 497.611 432.178 490.339 445.969 508.088C449.023 512.006 450.855 517.169 450.784 524.02C450.5 552.749 422.698 613.307 418 667.5C416.523 684.627 393.917 657.06 392.093 662C384.479 682.562 448.187 621.613 451.715 641C455.244 660.387 480.254 644.904 487.5 644C523.654 639.46 473.447 704.213 471.458 703.051C471.433 703.041 471.405 703.041 471.379 703.051" stroke="#171717" stroke-width="3" stroke-linecap="round" stroke-linejoin="round"/>
<path d="M395.428 462.845L394.131 454.951" stroke="#171717" stroke-width="3" stroke-linecap="round" stroke-linejoin="round"/>
<path d="M416.988 424.866L466.874 422.775" stroke="#171717" stroke-width="3" stroke-linecap="round" stroke-linejoin="round"/>
<path d="M630.648 495.375L627.128 489.955L618.913 477.275L604.835 455.586L577.776 413.865L540.349 416.57L495.582 419.808" stroke="#171717" stroke-width="3" stroke-linecap="round" stroke-linejoin="round"/>
<path d="M519.936 389.26C519.936 389.26 546.543 402.915 540.348 416.57" stroke="#171717" stroke-width="3" stroke-linecap="round" stroke-linejoin="round"/>
<path d="M358.184 106.498L368.38 99.1879L382.579 117.881L399.965 92.3799L418.306 119.771L459.232 82.8569L490.243 119.771" stroke="#171717" stroke-width="3" stroke-linecap="round" stroke-linejoin="round"/>
<path d="M432.332 82.857C438.474 82.857 443.453 77.878 443.453 71.736C443.453 65.594 438.474 60.615 432.332 60.615C426.19 60.615 421.211 65.594 421.211 71.736C421.211 77.878 426.19 82.857 432.332 82.857Z" stroke="#171717" stroke-width="3" stroke-linecap="round" stroke-linejoin="round"/>
<path d="M619.164 678.777C619.164 678.777 721.864 699.793 727.543 665.906C733.123 632.541 747.664 476.26 748.116 471.393C748.122 471.352 748.125 471.312 748.126 471.271" stroke="#171717" stroke-width="3" stroke-linecap="round" stroke-linejoin="round"/>
<path d="M740.614 462.211C745.44 464.856 748.125 467.792 748.125 470.879C748.125 471.05 748.115 471.222 748.095 471.392C747.595 476.681 739.236 481.478 725.822 485.108C710.296 489.308 687.983 491.945 663.186 491.945C651.138 491.968 639.099 491.303 627.127 489.954L626.615 489.894" stroke="#171717" stroke-width="3" stroke-linecap="round" stroke-linejoin="round"/>
<path d="M604.834 455.585C609.128 454.569 613.844 453.674 618.912 452.91" stroke="#171717" stroke-width="3" stroke-linecap="round" stroke-linejoin="round"/>
<path d="M684.043 476.329C693.857 323.013 819.581 157.861 819.581 157.861" stroke="#171717" stroke-width="3" stroke-linecap="round" stroke-linejoin="round"/>
<path d="M710.719 476.854C717.265 478.724 722.564 481.388 725.819 485.109" stroke="#171717" stroke-width="3" stroke-linecap="round" stroke-linejoin="round"/>
<path d="M618.912 477.275C618.912 477.275 624.712 476.36 633.653 475.385" stroke="#171717" stroke-width="3" stroke-linecap="round" stroke-linejoin="round"/>
<path d="M715.949 430.667C715.986 430.666 716.023 430.663 716.059 430.657C718.1 430.547 747.674 429.189 748.126 447.369C748.257 452.729 744.396 457.656 738.795 461.96C730.69 468.194 718.965 473.112 710.478 476.168C704.214 478.431 699.709 479.668 699.709 479.668" stroke="#171717" stroke-width="3" stroke-linecap="round" stroke-linejoin="round"/>
<path d="M744.808 346.192C744.808 346.192 744.828 346.182 744.878 346.162C747.091 345.377 800.344 326.735 808.218 346.192C816.262 366.072 735.346 389.26 735.346 389.26C735.346 389.26 783.139 385.469 785.975 405.107C788.75 424.293 719.257 430.387 716.059 430.658" stroke="#171717" stroke-width="3" stroke-linecap="round" stroke-linejoin="round"/>
<path d="M777.93 281.363C777.938 281.362 777.945 281.359 777.95 281.353C786.634 275.949 795.78 271.325 805.281 267.537C820.434 261.745 836.754 259.362 839.449 274.264C844.578 302.691 747.824 344.884 744.877 346.164" stroke="#171717" stroke-width="3" stroke-linecap="round" stroke-linejoin="round"/>
<path d="M803.492 218.436C803.492 218.436 803.572 218.386 803.733 218.275C808.158 215.375 872.151 174.121 873.518 205.183C874.443 226.078 833.849 251.961 805.282 267.537C790.198 275.772 778.464 281.122 777.951 281.353" stroke="#171717" stroke-width="3" stroke-linecap="round" stroke-linejoin="round"/>
<path d="M777.457 204.712C777.448 204.679 777.441 204.645 777.437 204.611V204.592C776.673 200.55 757.587 97.531 781.248 85.465C805.381 73.157 821.943 140.358 821.943 140.358C821.943 140.358 873.043 115.279 881.853 136.094C890.39 156.276 808.753 214.694 803.732 218.278" stroke="#171717" stroke-width="3" stroke-linecap="round" stroke-linejoin="round"/>
<path d="M725.822 265.748C725.821 265.74 725.817 265.733 725.812 265.728C724.977 264.521 689.622 213.067 713.575 195.721C727.3 185.777 748.125 229.789 748.125 229.789C748.125 229.789 739.477 152.654 751.604 145.555C763.45 138.636 776.793 201.523 777.437 204.59" stroke="#171717" stroke-width="3" stroke-linecap="round" stroke-linejoin="round"/>
<path d="M705.059 329.631C705.049 329.619 705.042 329.605 705.038 329.59C703.993 327.71 667.189 260.821 683.638 246.823C688.626 242.58 694.398 242.56 700.038 244.623C713.038 249.37 725.358 265.157 725.81 265.73" stroke="#171717" stroke-width="3" stroke-linecap="round" stroke-linejoin="round"/>
<path d="M683.639 381.689C683.628 381.676 683.618 381.663 683.609 381.649L683.599 381.639C682.352 379.909 646.675 330.225 663.186 310.239C679.697 290.253 704.186 328.269 705.037 329.596" stroke="#171717" stroke-width="3" stroke-linecap="round" stroke-linejoin="round"/>
<path d="M679.1 422.7C674.073 416.8 649.065 386.43 656.315 373.639C664.149 359.813 682.64 380.548 683.595 381.639" stroke="#171717" stroke-width="3" stroke-linecap="round" stroke-linejoin="round"/>
<path d="M679.939 423.659C679.858 423.578 679.677 423.359 679.406 423.035" stroke="#171717" stroke-width="3" stroke-linecap="round" stroke-linejoin="round"/>
<path d="M679.406 423.035C679.687 423.335 679.868 423.568 679.939 423.659C679.959 423.679 679.959 423.689 679.969 423.699L679.979 423.709" stroke="#171717" stroke-width="3" stroke-linecap="round" stroke-linejoin="round"/>
<path d="M679.407 423.035L679.145 422.743C679.135 422.733 679.125 422.713 679.105 422.703" stroke="#171717" stroke-width="3" stroke-linecap="round" stroke-linejoin="round"/>
<path d="M666.315 477.839V477.829C666.073 477.014 654.047 435.776 663.187 424.645C670.548 415.665 676.853 420.422 679.105 422.704" stroke="#171717" stroke-width="3" stroke-linecap="round" stroke-linejoin="round"/>
<path d="M642.966 148.812C642.966 148.812 623.358 304.472 652.016 479.578" stroke="#171717" stroke-width="3" stroke-linecap="round" stroke-linejoin="round"/>
<path d="M666.736 180.577L666.756 180.557V180.547C667.721 179.441 699.577 142.947 712.156 157.861C724.936 173.005 679.033 221.271 679.033 221.271C679.033 221.271 703.226 212.342 700.039 244.62" stroke="#171717" stroke-width="3" stroke-linecap="round" stroke-linejoin="round"/>
<path d="M618.471 176.787L618.461 176.777C617.767 175.691 572.261 104.729 594.337 87.353C616.57 69.847 635.501 127.101 635.501 127.101C635.501 127.101 672.401 61.801 692.757 89.724C712.837 117.276 667.909 178.967 666.757 180.546" stroke="#171717" stroke-width="3" stroke-linecap="round" stroke-linejoin="round"/>
<path d="M602.995 221.625C584.734 204.732 559.163 177.582 570.204 166.853C586.564 150.953 617.716 176.175 618.461 176.778" stroke="#171717" stroke-width="3" stroke-linecap="round" stroke-linejoin="round"/>
<path d="M619.415 235.943L619.405 235.933C619.093 235.682 611.923 229.89 603.014 221.645" stroke="#171717" stroke-width="3" stroke-linecap="round" stroke-linejoin="round"/>
<path d="M603.014 221.645C609.05 225.707 614.556 230.507 619.405 235.933" stroke="#171717" stroke-width="3" stroke-linecap="round" stroke-linejoin="round"/>
<path d="M603.014 221.644C603.014 221.633 603.004 221.633 602.994 221.623" stroke="#171717" stroke-width="3" stroke-linecap="round" stroke-linejoin="round"/>
<path d="M622.141 301.606C619.416 298.67 565.468 240.206 578.319 222.218C584.704 213.278 594.538 216.224 602.995 221.623" stroke="#171717" stroke-width="3" stroke-linecap="round" stroke-linejoin="round"/>
<path d="M622.251 301.716L622.241 301.706L622.201 301.666" stroke="#171717" stroke-width="3" stroke-linecap="round" stroke-linejoin="round"/>
<path d="M622.201 301.666L622.241 301.706" stroke="#171717" stroke-width="3" stroke-linecap="round" stroke-linejoin="round"/>
<path d="M622.201 301.665C622.186 301.641 622.165 301.62 622.141 301.605" stroke="#171717" stroke-width="3" stroke-linecap="round" stroke-linejoin="round"/>
<path d="M625.066 360.893C617.484 353.693 568.333 306.02 580.138 289.409C592.446 272.083 620.149 299.595 622.138 301.609" stroke="#171717" stroke-width="3" stroke-linecap="round" stroke-linejoin="round"/>
<path d="M625.951 361.717C625.81 361.596 625.518 361.324 625.096 360.912" stroke="#171717" stroke-width="3" stroke-linecap="round" stroke-linejoin="round"/>
<path d="M625.1 360.912C625.404 361.16 625.689 361.429 625.955 361.717C625.972 361.74 625.992 361.76 626.015 361.777C626.025 361.787 626.035 361.787 626.035 361.797L626.045 361.807" stroke="#171717" stroke-width="3" stroke-linecap="round" stroke-linejoin="round"/>
<path d="M625.1 360.913C625.09 360.913 625.08 360.903 625.07 360.893" stroke="#171717" stroke-width="3" stroke-linecap="round" stroke-linejoin="round"/>
<path d="M633.131 424.645C633.131 424.645 633.131 424.635 633.11 424.625C632.779 424.293 628.988 420.472 624.151 414.831C612.668 401.487 595.261 378.001 603.8 366.725C613.825 353.462 622.282 358.55 625.067 360.893" stroke="#171717" stroke-width="3" stroke-linecap="round" stroke-linejoin="round"/>
<path d="M639.194 481.508V481.498C639.023 481.298 637.082 478.833 634.227 474.962C630.227 469.542 624.427 461.347 619.214 452.729C610.284 437.937 603.145 421.909 609.953 416.569C615.493 412.225 620.34 412.708 624.153 414.83C629.593 417.857 632.911 424.212 633.112 424.624" stroke="#171717" stroke-width="3" stroke-linecap="round" stroke-linejoin="round"/>
<path d="M140.5 430.667C140.499 431.253 140.386 431.833 140.169 432.377C137.333 439.717 116.417 445.409 91.047 445.409C66.301 445.409 45.7985 439.989 42.1785 432.909C41.8062 432.22 41.6094 431.45 41.6055 430.666C41.6055 422.521 63.737 415.915 91.047 415.915C99.041 415.883 107.024 416.495 114.919 417.745C130.174 420.26 140.5 425.107 140.5 430.667Z" stroke="#171717" stroke-width="3" stroke-linecap="round" stroke-linejoin="round"/>
<path d="M125.389 508.346C125.389 513.575 111.089 517.808 93.453 517.808C75.817 517.808 61.5059 513.575 61.5059 508.346" stroke="#171717" stroke-width="3" stroke-linecap="round" stroke-linejoin="round"/>
<path d="M140.502 430.668L140.171 432.378L136.591 450.759L125.389 508.347" stroke="#171717" stroke-width="3" stroke-linecap="round" stroke-linejoin="round"/>
<path d="M57.5039 492.701L61.5059 508.347" stroke="#171717" stroke-width="3" stroke-linecap="round" stroke-linejoin="round"/>
<path d="M41.6074 430.668L42.1804 432.911L47.1174 452.197L49.0884 459.859L57.4944 492.701" stroke="#171717" stroke-width="3" stroke-linecap="round" stroke-linejoin="round"/>
<path d="M47.1163 452.201C47.1163 452.201 12.8973 467.375 35.1163 482.951C39.7923 486.229 46.9613 489.527 57.4893 492.705H57.4993" stroke="#171717" stroke-width="3" stroke-linecap="round" stroke-linejoin="round"/>
<path d="M630.648 482.946C630.648 482.946 634.016 482.332 639.195 481.498C642.775 480.925 647.219 480.241 652.016 479.577C656.621 478.934 661.538 478.31 666.316 477.828C674.551 476.993 682.344 476.55 687.372 477.073C691.551 477.401 695.641 478.453 699.459 480.181C704.185 482.493 705.18 485.108 705.18 485.108" stroke="#171717" stroke-width="3" stroke-linecap="round" stroke-linejoin="round"/>
<path d="M140.501 238.306L114.982 231.918" stroke="#171717" stroke-width="3" stroke-linecap="round" stroke-linejoin="round"/>
<path d="M144.793 264.332L96.5269 297.693" stroke="#171717" stroke-width="3" stroke-linecap="round" stroke-linejoin="round"/>
<path d="M170.938 286.336L165.023 300.532" stroke="#171717" stroke-width="3" stroke-linecap="round" stroke-linejoin="round"/>
<path d="M205.836 282.143L226.42 310.046" stroke="#171717" stroke-width="3" stroke-linecap="round" stroke-linejoin="round"/>
<path d="M216.127 261.426L229.259 264.331" stroke="#171717" stroke-width="3" stroke-linecap="round" stroke-linejoin="round"/>
<path d="M216.127 235.113L239.196 220.352" stroke="#171717" stroke-width="3" stroke-linecap="round" stroke-linejoin="round"/>
<path d="M251.325 151.016L247.089 157.359C246.961 157.551 246.778 157.699 246.564 157.783C246.349 157.867 246.114 157.884 245.891 157.83C245.667 157.777 245.464 157.656 245.311 157.484C245.158 157.312 245.061 157.097 245.034 156.868L244.128 149.294C244.102 149.073 244.01 148.865 243.866 148.696C243.721 148.527 243.529 148.404 243.315 148.343L235.973 146.275C235.752 146.213 235.555 146.084 235.408 145.906C235.262 145.728 235.174 145.51 235.156 145.28C235.138 145.051 235.19 144.821 235.306 144.623C235.422 144.424 235.596 144.265 235.805 144.168L242.729 140.968C242.931 140.875 243.101 140.724 243.217 140.534C243.333 140.344 243.391 140.124 243.382 139.901L243.082 132.279C243.073 132.05 243.135 131.822 243.259 131.629C243.383 131.435 243.564 131.284 243.776 131.195C243.989 131.107 244.223 131.086 244.448 131.135C244.673 131.184 244.878 131.301 245.034 131.469L250.218 137.064C250.37 137.228 250.566 137.343 250.783 137.394C250.999 137.446 251.226 137.433 251.435 137.355L258.59 134.713C258.806 134.634 259.041 134.622 259.264 134.681C259.487 134.739 259.686 134.863 259.836 135.038C259.986 135.213 260.078 135.43 260.101 135.659C260.124 135.888 260.076 136.118 259.964 136.319L256.245 142.979C256.137 143.174 256.088 143.396 256.106 143.618C256.124 143.84 256.207 144.052 256.345 144.226L261.069 150.215C261.211 150.396 261.294 150.616 261.307 150.845C261.32 151.074 261.263 151.301 261.144 151.497C261.024 151.693 260.847 151.847 260.638 151.94C260.428 152.033 260.194 152.059 259.969 152.015L252.486 150.536C252.267 150.492 252.039 150.514 251.832 150.6C251.626 150.685 251.449 150.83 251.325 151.016Z" fill="#171717"/>
<path d="M310.873 113.372L318.966 101.572" stroke="#171717" stroke-width="3" stroke-linecap="round" stroke-linejoin="round"/>
<path d="M320.286 112.035L308.908 102.123" stroke="#171717" stroke-width="3" stroke-linecap="round" stroke-linejoin="round"/>
<path d="M140.061 183.887L146.213 173" stroke="#171717" stroke-width="3" stroke-linecap="round" stroke-linejoin="round"/>
<path d="M148.638 182.857L137.271 174.826" stroke="#171717" stroke-width="3" stroke-linecap="round" stroke-linejoin="round"/>
<path d="M358.207 217.485C359.989 213.791 362.39 210.43 365.307 207.547" stroke="#171717" stroke-width="3" stroke-linecap="round" stroke-linejoin="round"/>
<path d="M366.201 215.661C363.048 213.488 360.343 210.727 358.234 207.529" stroke="#171717" stroke-width="3" stroke-linecap="round" stroke-linejoin="round"/>
<path d="M716.891 81.201L728.248 69.844" stroke="#171717" stroke-width="3" stroke-linecap="round" stroke-linejoin="round"/>
<path d="M726.701 80.589L718.201 69.225" stroke="#171717" stroke-width="3" stroke-linecap="round" stroke-linejoin="round"/>
<path d="M654.328 72.638L660.028 60.584" stroke="#171717" stroke-width="3" stroke-linecap="round" stroke-linejoin="round"/>
<path d="M663.005 67.571L652.357 63.314" stroke="#171717" stroke-width="3" stroke-linecap="round" stroke-linejoin="round"/>
<path d="M699.078 27.905L706.193 20.1133" stroke="#171717" stroke-width="3" stroke-linecap="round" stroke-linejoin="round"/>
<path d="M706.301 28.627L697.785 19.3984" stroke="#171717" stroke-width="3" stroke-linecap="round" stroke-linejoin="round"/>
<path d="M304.488 324.664C304.754 354.731 303.775 384.776 301.551 414.801" stroke="#171717" stroke-width="3" stroke-linecap="round" stroke-linejoin="round"/>
<path d="M367.691 348.426L363.072 342.752" stroke="#171717" stroke-width="3" stroke-linecap="round" stroke-linejoin="round"/>
<path d="M329.051 381.14L335.412 372.248" stroke="#171717" stroke-width="3" stroke-linecap="round" stroke-linejoin="round"/>
<path d="M368.505 408.64L363.15 403.705" stroke="#171717" stroke-width="3" stroke-linecap="round" stroke-linejoin="round"/>
<path d="M273.976 370.801L266.523 363.701" stroke="#171717" stroke-width="3" stroke-linecap="round" stroke-linejoin="round"/>
<path d="M217.266 350.973L221.548 343.889" stroke="#171717" stroke-width="3" stroke-linecap="round" stroke-linejoin="round"/>
<path d="M225.476 404.001L219 399.145" stroke="#171717" stroke-width="3" stroke-linecap="round" stroke-linejoin="round"/>
<path d="M170.384 372.474C167.891 371.522 165.705 369.905 164.064 367.799" stroke="#171717" stroke-width="3" stroke-linecap="round" stroke-linejoin="round"/>
<path d="M163.309 436.49L168.309 426.922" stroke="#171717" stroke-width="3" stroke-linecap="round" stroke-linejoin="round"/>
<path d="M217.925 455.949C215.52 454.041 213.534 451.658 212.09 448.949" stroke="#171717" stroke-width="3" stroke-linecap="round" stroke-linejoin="round"/>
<path d="M259.193 436.528L263.483 429.094" stroke="#171717" stroke-width="3" stroke-linecap="round" stroke-linejoin="round"/>
<path d="M306.952 454.602L300.131 449.018" stroke="#171717" stroke-width="3" stroke-linecap="round" stroke-linejoin="round"/>
<path d="M98.9751 377.344C100.397 371.269 103.029 365.543 106.714 360.508C110.399 355.473 115.061 351.232 120.422 348.039" stroke="#171717" stroke-width="3" stroke-linecap="round" stroke-linejoin="round"/>
<g opacity="0.1">
<path d="M327.9 208.957C317.755 205.423 303.694 207.13 293.706 210.719C283.264 214.471 275.193 220.766 272.185 231.839C268.907 243.91 271.928 257.153 272.574 269.381L273.59 288.62C273.821 293.001 275.785 301.764 271.662 304.883C269.933 306.19 266.962 306.576 264.981 307.438C262.788 308.322 260.82 309.683 259.219 311.423C255.773 315.268 255.346 321.348 251.203 324.518C247.356 327.462 241.527 327.688 236.93 328.469C230.455 329.569 223.996 330.791 217.543 332.012C194.165 336.438 170.023 342.054 149.999 355.532C130.074 368.944 115.038 388.897 112.548 413.232C112.133 417.293 116.314 420.779 120.095 420.779C124.521 420.779 127.226 417.305 127.642 413.232C129.607 394.018 143.142 377.844 158.642 367.351C177.219 354.779 199.447 349.468 221.112 344.971C231.888 342.734 243.464 341.471 253.591 336.971C257.751 335.12 261.502 332.328 263.691 328.25C264.655 326.232 265.446 324.137 266.056 321.987C267.286 318.332 268.496 317.837 271.976 316.657C282.269 313.167 285.538 305.557 285.268 295.109C284.946 282.678 284.097 270.275 284.037 257.837C283.977 245.456 281.887 233.237 290.866 223.3C295.217 218.487 301.434 216.285 307.66 215.158C314.354 213.946 321.383 214.758 327.89 212.843C328.305 212.714 328.669 212.456 328.927 212.107C329.185 211.757 329.324 211.334 329.324 210.899C329.324 210.464 329.185 210.041 328.927 209.691C328.669 209.342 328.305 209.084 327.89 208.956L327.9 208.957Z" fill="#171717"/>
</g>
<g opacity="0.1">
<path d="M133.41 450.433C134.81 452.265 135.417 453.921 137.361 455.402C138.91 456.505 140.626 457.354 142.444 457.915C146.508 459.361 150.731 460.539 154.901 461.631C162.683 463.669 170.524 465.469 178.424 467.031C195.23 470.369 212.216 472.719 229.297 474.068C263.025 476.817 296.968 475.195 330.28 469.244C334.221 468.532 336.367 463.783 335.42 460.191C334.295 455.925 330.287 454.524 326.367 455.051C294.512 459.416 262.283 460.382 230.223 457.932C214.286 456.661 198.439 454.439 182.767 451.277C174.879 449.686 167.047 447.85 159.26 445.822C155.666 444.884 152.07 443.958 148.471 443.042C146.619 442.458 144.713 442.065 142.781 441.869C140.151 441.751 138.552 442.786 136.212 443.551C133.656 444.385 131.461 447.891 133.412 450.436L133.41 450.433Z" fill="#171717"/>
</g>
</g>
</svg>
