<svg width="305" height="45" viewBox="0 0 305 45" fill="none" xmlns="http://www.w3.org/2000/svg">
<path d="M97.5974 16.3553C96.8264 16.3553 96.0554 16.483 95.3486 16.8025C94.6419 17.1219 93.9994 17.5052 93.4854 18.0802V16.6108H91.2366V32.455H93.4211V26.9606C93.9994 27.4717 94.6419 27.9189 95.3486 28.2384C96.0554 28.5578 96.8907 28.6856 97.6617 28.6856C98.4969 28.6856 99.3965 28.5578 100.167 28.2384C101.709 27.5995 102.866 26.3856 103.509 24.8523C103.83 24.0857 103.958 23.319 103.958 22.4885C104.023 20.8274 103.316 19.2302 102.159 18.0802C100.938 16.9302 99.2679 16.2914 97.5974 16.3553ZM100.489 25.4273C99.7177 26.194 98.6254 26.6412 97.5332 26.5773C96.4409 26.5773 95.3486 26.1301 94.6419 25.3634C93.8709 24.5968 93.4211 23.5107 93.4211 22.3607C93.4211 21.2746 93.8709 20.2524 94.6419 19.5496C95.4129 18.783 96.4409 18.3358 97.5332 18.3358C99.8462 18.3358 101.709 20.1246 101.774 22.4246C101.774 22.4885 101.774 22.4885 101.774 22.5524C101.709 23.6385 101.26 24.7245 100.489 25.4273ZM68.2347 18.0802C67.6564 17.5052 66.9496 17.058 66.1786 16.7386C65.4076 16.4191 64.5724 16.2914 63.6728 16.2914C62.8376 16.2914 62.0023 16.483 61.2313 16.8025C60.4603 17.1219 59.7535 17.633 59.1753 18.2719C58.597 18.8469 58.2115 19.4858 57.8902 20.1885C57.312 21.7218 57.312 23.3829 57.9545 24.8523C58.2757 25.619 58.7255 26.3217 59.3038 26.8967C59.882 27.4717 60.5888 27.9828 61.3598 28.3023C62.1308 28.6217 62.9661 28.7495 63.8656 28.7495C64.7009 28.7495 65.5361 28.5578 66.3714 28.2384C67.1424 27.855 67.8492 27.4078 68.4917 26.769C69.0699 26.194 69.4554 25.4912 69.7767 24.7884C70.098 24.0218 70.2265 23.2551 70.2265 22.4246C70.2265 21.6579 70.0337 20.8274 69.7124 20.1246C69.3269 19.2941 68.8129 18.5913 68.2347 18.0802ZM66.6926 25.4273C65.9216 26.194 64.8936 26.6412 63.8656 26.5773C62.7733 26.5773 61.7453 26.194 60.9743 25.4273C60.2033 24.6607 59.7535 23.5746 59.8178 22.4885C59.7535 21.4024 60.2033 20.3163 60.9743 19.5496C62.5806 17.9524 65.1506 17.9524 66.7569 19.5496C67.5279 20.3163 67.9134 21.4024 67.9134 22.4885C67.8492 23.5746 67.4637 24.5968 66.6926 25.4273ZM49.8589 18.3997C50.6299 18.3997 51.4009 18.5913 52.0434 18.9108C52.6859 19.2941 53.1999 19.8691 53.5212 20.508H55.9627C55.5772 19.2302 54.7419 18.1441 53.7139 17.3775C52.6859 16.6108 51.4009 16.2275 50.0516 16.2914C49.1521 16.2914 48.3168 16.483 47.5458 16.8025C46.7748 17.1219 46.0038 17.633 45.4255 18.2719C44.8473 18.8469 44.4618 19.4858 44.1405 20.2524C43.8193 20.9552 43.6908 21.7218 43.6908 22.4885C43.6908 23.319 43.8835 24.0857 44.2048 24.8523C44.526 25.5551 44.9758 26.2579 45.554 26.8328C46.1323 27.4078 46.8391 27.9189 47.6101 28.2384C48.3811 28.5578 49.2163 28.6856 50.1159 28.6856C51.4009 28.7495 52.7502 28.3661 53.7782 27.5995C54.8704 26.769 55.6415 25.6829 56.0912 24.4051H53.6497C53.3284 25.1079 52.8144 25.6829 52.1719 26.0662C51.5294 26.4495 50.8226 26.6412 50.0516 26.6412C48.9593 26.6412 47.9313 26.2579 47.1603 25.4912C46.3893 24.7245 45.9395 23.6385 46.0038 22.5524C46.0038 21.4663 46.3893 20.3802 47.1603 19.6135C47.8028 18.783 48.8308 18.3358 49.8589 18.3997ZM84.3617 16.483C83.5907 16.483 82.7554 16.6108 82.0487 16.9941C81.4061 17.3775 80.8921 17.8886 80.5709 18.5274C80.2496 17.8886 79.7356 17.3775 79.0931 16.9941C78.3863 16.6747 77.6153 16.483 76.8443 16.483C76.2661 16.483 75.6235 16.6108 75.1095 16.8664C74.5955 17.1219 74.0815 17.5691 73.696 18.0163V16.6108H71.7685V28.3661H73.8888V22.3607C73.8245 21.2746 74.0173 20.2524 74.5313 19.2941C74.981 18.6552 75.8163 18.2719 76.6516 18.3358C77.4226 18.2719 78.1936 18.6552 78.6433 19.2941C79.1574 20.2524 79.3501 21.3385 79.2859 22.4246V28.3661H81.4061V22.2329C81.3419 21.2107 81.5346 20.1246 82.0487 19.2302C83.0767 18.1441 84.8115 18.0163 85.9037 19.0385C85.968 19.1024 85.968 19.1024 86.0322 19.1663C86.5462 19.8691 86.8032 20.6996 86.739 21.5302V28.3661H88.9235V21.2107C88.9878 19.933 88.538 18.6552 87.6385 17.7608C86.8032 16.8025 85.5825 16.3553 84.3617 16.483ZM150.412 18.0802C149.834 17.5052 149.191 17.1219 148.484 16.8025C147.778 16.483 146.942 16.3553 146.171 16.3553C145.336 16.3553 144.501 16.483 143.665 16.8025C142.188 17.4413 140.967 18.6552 140.324 20.1246C140.003 20.8913 139.875 21.6579 139.875 22.4885C139.81 24.1496 140.517 25.7467 141.738 26.8967C142.959 28.1106 144.629 28.6856 146.3 28.6856C147.071 28.6856 147.842 28.5578 148.549 28.2384C149.255 27.9189 149.898 27.5356 150.412 26.9606V28.3661H152.661V16.6108H150.412V18.0802ZM149.32 25.4273C148.549 26.194 147.521 26.6412 146.428 26.6412C144.115 26.7051 142.252 24.8523 142.188 22.6163C142.188 22.5524 142.188 22.4885 142.188 22.4885C142.188 21.4024 142.637 20.3802 143.408 19.6135C144.179 18.8469 145.272 18.3997 146.364 18.4636C147.456 18.4636 148.549 18.9108 149.32 19.6774C150.091 20.4441 150.54 21.5302 150.54 22.6163C150.54 23.6385 150.091 24.6607 149.32 25.4273ZM158.507 16.8664C157.993 17.1219 157.544 17.5691 157.287 18.0163V16.6108H155.231V28.3661H157.415V21.8496C157.351 21.0191 157.544 20.1885 158.058 19.4858C158.636 18.9108 159.407 18.6552 160.178 18.6552V16.4191C159.6 16.4191 159.021 16.5469 158.507 16.8664ZM136.02 21.5302L135.249 21.2107C134.028 20.7635 133.45 20.2524 133.45 19.6135C133.45 19.2302 133.578 18.9108 133.835 18.6552C134.092 18.3997 134.478 18.2719 134.799 18.2719C135.184 18.2719 135.57 18.3997 135.827 18.6552C136.084 18.9108 136.277 19.2941 136.277 19.6774H138.397C138.397 18.783 138.011 17.8886 137.369 17.1858C136.662 16.5469 135.763 16.2275 134.863 16.2914C133.899 16.2914 133 16.6108 132.293 17.3136C131.586 17.9524 131.265 18.8469 131.265 19.7413C131.265 20.2524 131.329 20.7635 131.586 21.2107C131.843 21.6579 132.165 22.0413 132.55 22.3607C133.064 22.6801 133.642 22.9357 134.221 23.1274C134.542 23.2551 134.799 23.319 134.992 23.3829C135.441 23.5107 135.827 23.7662 136.148 24.0857C136.405 24.4051 136.534 24.7245 136.534 25.1079C136.534 25.5551 136.341 26.0023 136.02 26.2579C135.698 26.5773 135.184 26.7051 134.735 26.7051C134.221 26.7051 133.707 26.5134 133.385 26.0662C133 25.619 132.807 25.1079 132.871 24.5329H130.815C130.815 25.619 131.201 26.7051 131.972 27.5356C132.679 28.3023 133.707 28.6856 134.735 28.6217C135.763 28.6217 136.791 28.2384 137.497 27.5995C138.204 26.8967 138.654 25.9384 138.59 24.9801C138.654 24.2134 138.397 23.4468 138.011 22.8079C137.497 22.2329 136.791 21.7218 136.02 21.5302ZM116.487 18.5274C115.973 18.0163 115.331 17.5052 114.688 17.1858C114.11 16.8664 113.467 16.6108 112.825 16.483C111.797 16.2914 110.705 16.2914 109.741 16.6108C108.713 16.8664 107.813 17.4413 107.107 18.1441C106.464 18.7191 106.014 19.4219 105.693 20.1885C105.372 20.9552 105.243 21.7857 105.308 22.6163C105.308 23.3829 105.5 24.1496 105.822 24.8523C106.528 26.3217 107.749 27.5356 109.291 28.1106C110.062 28.43 110.897 28.6217 111.733 28.6217C112.568 28.6217 113.403 28.4939 114.174 28.2384C114.817 27.9828 115.331 27.6634 115.845 27.2162V24.2134C115.845 24.1496 115.845 24.0218 115.716 24.1496C115.459 24.5968 115.074 24.9801 114.688 25.3634C113.981 26.0023 113.082 26.4495 112.182 26.5134C111.219 26.5773 110.255 26.3217 109.42 25.7468L116.744 18.7191L116.487 18.5274ZM108.07 24.3412C107.556 23.5746 107.364 22.6801 107.492 21.7857C107.621 20.8913 108.006 20.1246 108.649 19.4858C109.291 18.8469 110.062 18.4636 110.962 18.3997C111.925 18.3358 112.825 18.5274 113.596 19.0385L108.07 24.3412ZM124.069 16.4191C123.426 16.4191 122.784 16.5469 122.206 16.8025C121.627 17.058 121.113 17.4413 120.664 17.9524V16.6108H118.543V28.3661H120.792V22.9996C120.792 21.3385 121.049 20.1885 121.499 19.4858C122.655 18.1441 124.711 18.0802 126.061 19.2302L126.125 19.2941C126.703 20.1246 126.96 21.0829 126.832 22.0413V28.3023H129.016V21.6579C129.145 20.2524 128.631 18.8469 127.731 17.7608C126.832 16.8025 125.482 16.2914 124.069 16.4191ZM196.544 6.06933H194.231V16.6108H192.753V6.06933H190.762V4.85547H192.753V3.76938C192.753 1.72497 193.332 0.319439 195.645 0.319439C196.03 0.319439 196.48 0.319439 196.865 0.383326V1.59719C196.544 1.53331 196.159 1.46942 195.837 1.46942C194.231 1.46942 194.295 2.49162 194.231 3.76938V4.79158H196.544V6.06933ZM207.467 16.6108H206.118V14.5025H206.053C205.282 16.0358 203.676 16.9941 202.005 16.9941C199.05 16.9941 197.829 15.2692 197.829 12.522V4.85547H199.307V12.522C199.371 14.6303 200.206 15.7803 202.455 15.7803C204.961 15.7803 205.989 13.4803 205.989 11.0526V4.85547H207.403L207.467 16.6108ZM210.165 4.85547H211.643V6.89987H211.707C212.35 5.43046 213.828 4.47214 215.498 4.53603C218.839 4.53603 219.803 6.261 219.803 9.07206V16.6108H218.389V9.26372C218.389 7.21931 217.747 5.68601 215.37 5.68601C212.992 5.68601 211.707 7.41098 211.643 9.71093V16.6108H210.165V4.85547ZM232.91 16.6108H231.561V14.3747H231.497C230.854 15.908 228.991 16.9302 227.256 16.9302C223.658 16.9302 221.923 14.0553 221.923 10.7331C221.923 7.41098 223.658 4.53603 227.256 4.53603C229.055 4.47214 230.661 5.49434 231.368 7.09154H231.432V0.319439H232.846V16.6108H232.91ZM227.32 15.7164C230.404 15.7164 231.497 13.1609 231.497 10.7331C231.497 8.3054 230.404 5.7499 227.32 5.7499C224.558 5.7499 223.465 8.3054 223.465 10.797C223.465 13.2886 224.558 15.7164 227.32 15.7164ZM235.48 8.43318C235.609 5.68601 237.601 4.47214 240.299 4.47214C242.419 4.47214 244.668 5.11102 244.668 8.24152V14.5025C244.604 14.9497 244.925 15.3331 245.311 15.3969C245.375 15.3969 245.439 15.3969 245.503 15.3969C245.632 15.3969 245.825 15.3331 245.953 15.3331V16.5469C245.632 16.6108 245.311 16.6747 244.989 16.6108C243.512 16.6108 243.319 15.7803 243.319 14.5664H243.255C242.227 16.0997 241.199 16.9302 238.95 16.9302C236.701 16.9302 234.966 15.8442 234.966 13.4803C234.966 10.1581 238.179 10.0304 241.327 9.71093C242.548 9.58316 243.19 9.39149 243.19 8.11374C243.19 6.19711 241.777 5.68601 240.106 5.68601C238.436 5.68601 236.958 6.51655 236.958 8.43318H235.48ZM243.19 10.1581C242.933 10.4776 242.291 10.6054 241.905 10.6692C239.464 11.1165 236.38 11.0526 236.38 13.3525C236.444 14.6942 237.601 15.7164 238.95 15.6525H239.014C241.199 15.6525 243.19 14.247 243.126 11.947V10.1581H243.19ZM255.912 8.56095C255.462 6.7721 254.434 5.7499 252.507 5.7499C249.744 5.7499 248.331 8.24152 248.331 10.797C248.331 13.3525 249.68 15.7803 252.507 15.7803C254.37 15.7164 255.848 14.247 255.976 12.4581H257.454C257.069 15.2692 255.205 16.9941 252.571 16.9941C248.973 16.9941 246.981 14.1192 246.981 10.797C246.981 7.47486 248.973 4.59992 252.571 4.59992C255.077 4.59992 257.069 5.94156 257.39 8.62484L255.912 8.56095ZM259.446 0.319439H260.924V2.6194H259.446V0.319439ZM259.446 4.85547H260.924V16.6108H259.446V4.85547ZM274.224 10.7331C274.224 14.1192 272.232 16.9302 268.634 16.9302C265.036 16.9302 263.044 14.0553 263.044 10.7331C263.044 7.41098 265.036 4.53603 268.634 4.53603C272.232 4.53603 274.288 7.34709 274.224 10.7331ZM264.458 10.7331C264.458 13.2248 265.807 15.7164 268.634 15.7164C271.461 15.7164 272.81 13.2248 272.81 10.7331C272.81 8.24152 271.461 5.7499 268.634 5.7499C265.807 5.7499 264.522 8.24152 264.458 10.7331ZM268.505 3.19439H267.285L269.726 0H271.525L268.505 3.19439ZM276.408 4.85547H277.822V6.89987H277.886C278.529 5.43046 280.071 4.47214 281.677 4.53603C285.018 4.53603 285.982 6.261 285.982 9.07206V16.6108H284.504V9.26372C284.504 7.21931 283.861 5.68601 281.484 5.68601C279.107 5.68601 277.822 7.41098 277.758 9.71093V16.6108H276.344L276.408 4.85547ZM200.335 40.1215H198.986V38.0132H198.921C198.15 39.5465 196.544 40.5048 194.809 40.4409C191.854 40.4409 190.633 38.716 190.633 35.9688V28.3023H192.111V35.9688C192.175 38.0771 193.01 39.2271 195.259 39.2271C197.765 39.2271 198.793 36.9271 198.793 34.4994V28.3661H200.271L200.335 40.1215ZM203.033 28.3661H204.447V30.4106H204.511C205.154 28.9411 206.632 27.9828 208.302 28.0467C211.643 28.0467 212.607 29.7717 212.607 32.5827V40.1215H211.129V32.7744C211.129 30.73 210.487 29.1967 208.109 29.1967C205.732 29.1967 204.447 30.9217 204.383 33.2216V40.0576H203.033V28.3661ZM215.37 23.8301H216.783V26.1301H215.37V23.8301ZM215.37 28.3661H216.783V40.1215H215.37V28.3661ZM218.261 28.3661H219.867L223.594 38.716L227.256 28.3661H228.734L224.301 40.1215H222.759L218.261 28.3661ZM231.047 34.6271C231.047 36.7354 232.203 39.2271 234.966 39.2271C237.087 39.2271 238.243 38.0132 238.693 36.2243H240.106C239.464 38.9076 237.922 40.4409 234.966 40.4409C231.175 40.4409 229.633 37.566 229.633 34.2438C229.633 31.1772 231.24 28.0467 234.966 28.0467C238.693 28.0467 240.299 31.3689 240.171 34.6271H231.047ZM238.693 33.4133C238.629 31.2411 237.279 29.1967 234.902 29.1967C232.525 29.1967 231.24 31.2411 230.983 33.4133H238.693ZM242.098 28.3661H243.447V31.1133H243.512C244.154 29.2606 246.017 28.0467 248.009 28.1745V29.6439C245.76 29.4522 243.769 31.1133 243.576 33.3494C243.576 33.5411 243.576 33.7327 243.576 33.8605V40.1215H242.162L242.098 28.3661ZM256.362 31.8161C256.298 30.0272 254.884 29.2606 253.278 29.2606C251.993 29.2606 250.451 29.7717 250.451 31.305C250.451 32.5827 251.929 33.0299 252.892 33.2855L254.82 33.7327C256.49 33.9883 258.225 34.9466 258.225 36.991C258.225 39.5465 255.655 40.5048 253.471 40.5048C250.708 40.5048 248.845 39.2271 248.588 36.3521H250.065C250.194 38.2687 251.607 39.2909 253.535 39.2909C254.884 39.2909 256.747 38.716 256.747 37.0549C256.747 35.7132 255.462 35.266 254.177 34.9466L252.314 34.5633C250.451 34.0522 249.037 33.4133 249.037 31.4328C249.037 29.005 251.415 28.1106 253.471 28.1106C255.848 28.1106 257.711 29.3245 257.775 31.88L256.362 31.8161ZM260.345 23.8301H261.759V26.1301H260.345V23.8301ZM260.345 28.3661H261.759V40.1215H260.345V28.3661ZM266.835 28.3661H269.276V29.58H266.835V37.5021C266.835 38.4604 266.963 38.9715 267.991 39.0354C268.377 39.0354 268.827 39.0354 269.212 38.9715V40.1854C268.762 40.1854 268.377 40.2493 267.927 40.2493C266 40.2493 265.357 39.6104 265.357 37.6299V29.58H263.301V28.3661H265.357V24.8523H266.771L266.835 28.3661ZM271.204 31.9439C271.332 29.1967 273.26 27.9828 276.023 27.9828C278.143 27.9828 280.392 28.6217 280.392 31.7522V38.0132C280.328 38.4604 280.649 38.8437 281.034 38.8437C281.099 38.8437 281.163 38.8437 281.227 38.8437C281.356 38.8437 281.548 38.7798 281.677 38.7798V39.9937C281.356 40.0576 281.034 40.1215 280.713 40.0576C279.235 40.0576 279.043 39.2271 279.043 38.0132H278.978C277.95 39.5465 276.922 40.4409 274.673 40.4409C272.425 40.4409 270.69 39.3548 270.69 36.991C270.69 33.6688 273.902 33.6049 277.051 33.2216C278.272 33.0938 278.914 32.9022 278.914 31.6244C278.914 29.7078 277.501 29.1967 275.83 29.1967C274.031 29.1967 272.682 30.0272 272.682 31.9439H271.204ZM278.914 33.6688H278.85C278.657 33.9883 278.015 34.116 277.629 34.1799C275.187 34.6271 272.103 34.5633 272.103 36.8632C272.168 38.2049 273.324 39.2271 274.673 39.1632H274.738C276.922 39.1632 278.914 37.7576 278.85 35.4577L278.914 33.6688ZM283.219 28.3661H284.568V31.1133H284.632C285.275 29.2606 287.138 28.0467 289.13 28.1745V29.6439C286.881 29.4522 284.954 31.1133 284.761 33.3494C284.761 33.5411 284.761 33.6688 284.761 33.8605V40.1215H283.283L283.219 28.3661ZM290.479 23.8301H291.893V26.1301H290.415L290.479 23.8301ZM290.479 28.3661H291.893V40.1215H290.415L290.479 28.3661ZM294.527 31.9439C294.656 29.1967 296.647 27.9828 299.346 27.9828C301.402 27.9828 303.715 28.6217 303.715 31.7522V38.0132C303.651 38.4604 303.908 38.8437 304.357 38.9076C304.422 38.9076 304.486 38.9076 304.55 38.9076C304.679 38.9076 304.871 38.8437 305 38.8437V40.0576C304.679 40.1215 304.357 40.1854 304.036 40.1215C302.558 40.1215 302.366 39.2909 302.366 38.0771H302.301C301.273 39.6104 300.245 40.5048 297.997 40.5048C295.748 40.5048 294.013 39.4187 294.013 37.0549C294.013 33.7327 297.226 33.6688 300.374 33.2855C301.595 33.1577 302.237 32.9661 302.237 31.6883C302.237 29.7717 300.824 29.2606 299.153 29.2606C297.483 29.2606 296.005 30.0272 296.005 31.9439H294.527ZM302.237 33.6688C301.98 33.9883 301.338 34.116 300.952 34.1799C298.511 34.6271 295.491 34.5633 295.491 36.8632C295.555 38.2049 296.712 39.2271 298.061 39.1632H298.125C300.31 39.1632 302.301 37.7576 302.237 35.4577V33.6688Z" fill="white"/>
<path d="M21.8454 15.2692C25.8932 15.2692 29.1057 18.5274 29.1057 22.4885C29.1057 26.5134 25.8289 29.7078 21.8454 29.7078C17.7976 29.7078 14.585 26.4495 14.585 22.4885C14.585 18.4636 17.7976 15.2692 21.8454 15.2692ZM21.8454 15.2692C25.8932 15.2692 29.1057 12.0109 29.1057 8.04986C29.1057 4.02494 25.8289 0.83055 21.8454 0.83055C17.7976 0.83055 14.585 4.08882 14.585 8.04986C14.585 12.0109 17.7976 15.2692 21.8454 15.2692ZM43.6908 7.98598C43.6908 3.96105 40.4139 0.766663 36.4304 0.766663C32.3826 0.766663 29.17 4.02494 29.17 7.98598C29.17 12.0109 32.4468 15.2053 36.4304 15.2053C40.4139 15.2692 43.6908 12.0109 43.6908 7.98598ZM7.26037 15.2692C3.27681 15.2692 0 18.4636 0 22.4885C0 26.5134 3.27681 29.7078 7.26037 29.7078C11.3082 29.7078 14.5207 26.4495 14.5207 22.4885C14.585 18.4636 11.3082 15.2692 7.26037 15.2692ZM21.8454 44.2103C25.8932 44.2103 29.1057 40.952 29.1057 36.991C29.1057 32.9661 25.8289 29.7717 21.8454 29.7717C17.7976 29.7717 14.585 33.03 14.585 36.991C14.585 40.952 17.7976 44.2103 21.8454 44.2103ZM43.6908 36.991C43.6908 32.9661 40.4139 29.7717 36.4304 29.7717C32.3826 29.7717 29.17 33.03 29.17 36.991C29.17 41.0159 32.4468 44.2103 36.4304 44.2103C40.4139 44.2103 43.6908 40.952 43.6908 36.991ZM174.699 44.2742H176.177V0.83055H174.699V44.2742Z" fill="white"/>
</svg>
