<svg width="372" height="55" viewBox="0 0 372 55" fill="none" xmlns="http://www.w3.org/2000/svg">
<g clip-path="url(#clip0_10_409)">
<path d="M119.037 20.0615C118.096 20.0615 117.156 20.2182 116.294 20.6101C115.432 21.0019 114.648 21.4721 114.021 22.1774V20.375H111.279V39.8096H113.943V33.0702C114.648 33.6971 115.432 34.2456 116.294 34.6375C117.156 35.0293 118.175 35.186 119.115 35.186C120.134 35.186 121.231 35.0293 122.171 34.6375C124.052 33.8538 125.463 32.3649 126.246 30.4841C126.638 29.5437 126.795 28.6033 126.795 27.5846C126.873 25.5471 126.011 23.5879 124.601 22.1774C123.112 20.7668 121.074 19.9831 119.037 20.0615ZM122.563 31.1894C121.623 32.1298 120.291 32.6783 118.959 32.6C117.626 32.6 116.294 32.0514 115.432 31.111C114.492 30.1706 113.943 28.8384 113.943 27.4278C113.943 26.0956 114.492 24.8418 115.432 23.9798C116.372 23.0394 117.626 22.4908 118.959 22.4908C121.78 22.4908 124.052 24.6851 124.131 27.5062C124.131 27.5846 124.131 27.5846 124.131 27.6629C124.052 28.9952 123.504 30.3274 122.563 31.1894ZM83.2239 22.1774C82.5186 21.4721 81.6566 20.9235 80.7162 20.5317C79.7759 20.1399 78.7571 19.9831 77.66 19.9831C76.6412 19.9831 75.6225 20.2182 74.6821 20.6101C73.7417 21.0019 72.8797 21.6288 72.1744 22.4125C71.4691 23.1178 70.9989 23.9014 70.6071 24.7634C69.9018 26.6442 69.9018 28.6817 70.6855 30.4841C71.0773 31.4245 71.6259 32.2865 72.3312 32.9918C73.0364 33.6971 73.8985 34.324 74.8388 34.7158C75.7792 35.1076 76.798 35.2644 77.8951 35.2644C78.9138 35.2644 79.9326 35.0293 80.9513 34.6375C81.8917 34.1673 82.7537 33.6187 83.5374 32.8351C84.2427 32.1298 84.7129 31.2677 85.1047 30.4057C85.4965 29.4653 85.6533 28.525 85.6533 27.5062C85.6533 26.5658 85.4182 25.5471 85.0263 24.6851C84.5561 23.6663 83.9292 22.8043 83.2239 22.1774ZM81.3432 31.1894C80.4028 32.1298 79.1489 32.6783 77.8951 32.6C76.5629 32.6 75.309 32.1298 74.3687 31.1894C73.4283 30.249 72.8797 28.9168 72.9581 27.5846C72.8797 26.2524 73.4283 24.9202 74.3687 23.9798C76.3278 22.0206 79.4624 22.0206 81.4215 23.9798C82.3619 24.9202 82.8321 26.2524 82.8321 27.5846C82.7537 28.9168 82.2835 30.1706 81.3432 31.1894ZM60.8115 22.5692C61.7518 22.5692 62.6922 22.8043 63.4759 23.1961C64.2595 23.6663 64.8865 24.3716 65.2783 25.1553H68.2562C67.786 23.5879 66.7672 22.2557 65.5134 21.3154C64.2595 20.375 62.6922 19.9048 61.0466 19.9831C59.9494 19.9831 58.9307 20.2182 57.9903 20.6101C57.0499 21.0019 56.1095 21.6288 55.4043 22.4125C54.699 23.1178 54.2288 23.9014 53.8369 24.8418C53.4451 25.7038 53.2884 26.6442 53.2884 27.5846C53.2884 28.6033 53.5235 29.5437 53.9153 30.4841C54.3071 31.3461 54.8557 32.2081 55.561 32.9134C56.2663 33.6187 57.1283 34.2456 58.0687 34.6375C59.0091 35.0293 60.0278 35.186 61.1249 35.186C62.6922 35.2644 64.3379 34.7942 65.5917 33.8538C66.9239 32.8351 67.8643 31.5028 68.4129 29.9355H65.435C65.0432 30.7976 64.4163 31.5028 63.6326 31.973C62.849 32.4432 61.9869 32.6783 61.0466 32.6783C59.7143 32.6783 58.4605 32.2081 57.5201 31.2677C56.5797 30.3274 56.0312 28.9952 56.1095 27.6629C56.1095 26.3307 56.5797 24.9985 57.5201 24.0581C58.3038 23.0394 59.5576 22.4908 60.8115 22.5692ZM102.894 20.2182C101.953 20.2182 100.934 20.375 100.072 20.8452C99.2888 21.3154 98.6619 21.9423 98.2701 22.7259C97.8782 21.9423 97.2513 21.3154 96.4677 20.8452C95.6056 20.4533 94.6653 20.2182 93.7249 20.2182C93.0196 20.2182 92.2359 20.375 91.609 20.6884C90.9821 21.0019 90.3552 21.5505 89.885 22.099V20.375H87.534V34.7942H90.1201V27.4278C90.0417 26.0956 90.2768 24.8418 90.9037 23.6663C91.4523 22.8827 92.471 22.4125 93.4898 22.4908C94.4302 22.4125 95.3705 22.8827 95.9191 23.6663C96.546 24.8418 96.7811 26.174 96.7028 27.5062V34.7942H99.2888V27.2711C99.2104 26.0173 99.4455 24.6851 100.072 23.588C101.326 22.2557 103.442 22.099 104.774 23.3529C104.853 23.4312 104.853 23.4312 104.931 23.5096C105.558 24.3716 105.871 25.3904 105.793 26.4091V34.7942H108.458V26.0173C108.536 24.45 107.987 22.8827 106.89 21.7855C105.871 20.6101 104.383 20.0615 102.894 20.2182ZM183.453 22.1774C182.748 21.4721 181.964 21.0019 181.102 20.6101C180.24 20.2182 179.221 20.0615 178.281 20.0615C177.262 20.0615 176.244 20.2182 175.225 20.6101C173.422 21.3937 171.933 22.8827 171.15 24.6851C170.758 25.6254 170.601 26.5658 170.601 27.5846C170.523 29.6221 171.385 31.5812 172.874 32.9918C174.363 34.4807 176.4 35.186 178.438 35.186C179.378 35.186 180.319 35.0293 181.181 34.6375C182.043 34.2456 182.826 33.7754 183.453 33.0702V34.7942H186.196V20.375H183.453V22.1774ZM182.121 31.1894C181.181 32.1298 179.927 32.6783 178.594 32.6783C175.773 32.7567 173.501 30.4841 173.422 27.7413C173.422 27.6629 173.422 27.5846 173.422 27.5846C173.422 26.2524 173.971 24.9985 174.911 24.0581C175.852 23.1178 177.184 22.5692 178.516 22.6476C179.848 22.6476 181.181 23.1961 182.121 24.1365C183.061 25.0769 183.61 26.4091 183.61 27.7413C183.61 28.9952 183.061 30.249 182.121 31.1894ZM193.327 20.6884C192.7 21.0019 192.152 21.5505 191.838 22.099V20.375H189.331V34.7942H191.995V26.8009C191.917 25.7822 192.152 24.7634 192.779 23.9014C193.484 23.1961 194.424 22.8827 195.365 22.8827V20.1399C194.659 20.1399 193.954 20.2966 193.327 20.6884ZM165.899 26.4091L164.959 26.0173C163.47 25.4687 162.765 24.8418 162.765 24.0581C162.765 23.588 162.921 23.1961 163.235 22.8827C163.548 22.5692 164.019 22.4125 164.41 22.4125C164.881 22.4125 165.351 22.5692 165.664 22.8827C165.978 23.1961 166.213 23.6663 166.213 24.1365H168.799C168.799 23.0394 168.329 21.9423 167.545 21.0803C166.683 20.2966 165.586 19.9048 164.489 19.9831C163.313 19.9831 162.216 20.375 161.354 21.237C160.492 22.0206 160.1 23.1178 160.1 24.2149C160.1 24.8418 160.179 25.4687 160.492 26.0173C160.806 26.5658 161.197 27.036 161.668 27.4278C162.295 27.8197 163 28.1331 163.705 28.3682C164.097 28.525 164.41 28.6033 164.645 28.6817C165.194 28.8384 165.664 29.1519 166.056 29.5437C166.369 29.9355 166.526 30.3274 166.526 30.7976C166.526 31.3461 166.291 31.8947 165.899 32.2081C165.507 32.6 164.881 32.7567 164.332 32.7567C163.705 32.7567 163.078 32.5216 162.686 31.973C162.216 31.4245 161.981 30.7976 162.059 30.0923H159.552C159.552 31.4245 160.022 32.7567 160.962 33.7754C161.824 34.7158 163.078 35.186 164.332 35.1076C165.586 35.1076 166.84 34.6375 167.702 33.8538C168.564 32.9918 169.112 31.8163 169.034 30.6408C169.112 29.7004 168.799 28.7601 168.329 27.9764C167.702 27.2711 166.84 26.6442 165.899 26.4091ZM142.076 22.7259C141.449 22.099 140.666 21.4721 139.882 21.0803C139.177 20.6884 138.393 20.375 137.609 20.2182C136.356 19.9831 135.023 19.9831 133.848 20.375C132.594 20.6884 131.497 21.3937 130.635 22.2557C129.851 22.961 129.303 23.823 128.911 24.7634C128.519 25.7038 128.362 26.7226 128.441 27.7413C128.441 28.6817 128.676 29.6221 129.068 30.4841C129.93 32.2865 131.419 33.7754 133.299 34.4807C134.24 34.8726 135.258 35.1076 136.277 35.1076C137.296 35.1076 138.315 34.9509 139.255 34.6375C140.039 34.324 140.666 33.9322 141.293 33.3836V29.7004C141.293 29.6221 141.293 29.4653 141.136 29.6221C140.822 30.1706 140.352 30.6408 139.882 31.111C139.02 31.8947 137.923 32.4432 136.826 32.5216C135.65 32.6 134.475 32.2865 133.456 31.5812L142.39 22.961L142.076 22.7259ZM131.81 29.8572C131.183 28.9168 130.948 27.8197 131.105 26.7226C131.262 25.6254 131.732 24.6851 132.516 23.9014C133.299 23.1178 134.24 22.6476 135.337 22.5692C136.512 22.4908 137.609 22.7259 138.55 23.3529L131.81 29.8572ZM151.323 20.1399C150.54 20.1399 149.756 20.2966 149.051 20.6101C148.345 20.9235 147.719 21.3937 147.17 22.0206V20.375H144.584V34.7942H147.327V28.2115C147.327 26.174 147.64 24.7634 148.189 23.9014C149.599 22.2557 152.107 22.1774 153.753 23.588L153.831 23.6663C154.536 24.6851 154.85 25.8605 154.693 27.036V34.7158H157.357V26.5658C157.514 24.8418 156.887 23.1178 155.79 21.7855C154.693 20.6101 153.047 19.9831 151.323 20.1399ZM239.719 7.4447H236.898V20.375H235.096V7.4447H232.667V5.95576H235.096V4.62355C235.096 2.11586 235.801 0.391826 238.622 0.391826C239.092 0.391826 239.641 0.391826 240.111 0.470192V1.95913C239.719 1.88077 239.249 1.8024 238.857 1.8024C236.898 1.8024 236.977 3.05625 236.898 4.62355V5.8774H239.719V7.4447ZM253.041 20.375H251.396V17.7889H251.317C250.377 19.6697 248.418 20.8452 246.38 20.8452C242.776 20.8452 241.287 18.7293 241.287 15.3596V5.95576H243.089V15.3596C243.167 17.9457 244.186 19.3562 246.929 19.3562C249.985 19.3562 251.239 16.5351 251.239 13.5572V5.95576H252.963L253.041 20.375ZM256.333 5.95576H258.135V8.46345H258.214C258.997 6.66105 260.8 5.48557 262.837 5.56394C266.912 5.56394 268.088 7.6798 268.088 11.1279V20.375H266.364V11.363C266.364 8.85528 265.58 6.97451 262.68 6.97451C259.781 6.97451 258.214 9.09037 258.135 11.9115V20.375H256.333V5.95576ZM284.074 20.375H282.428V17.6322H282.35C281.566 19.513 279.294 20.7668 277.178 20.7668C272.79 20.7668 270.674 17.2404 270.674 13.1654C270.674 9.09037 272.79 5.56394 277.178 5.56394C279.372 5.48557 281.331 6.73941 282.193 8.69855H282.272V0.391826H283.996V20.375H284.074ZM277.256 19.2779C281.018 19.2779 282.35 16.1432 282.35 13.1654C282.35 10.1875 281.018 7.05288 277.256 7.05288C273.887 7.05288 272.554 10.1875 272.554 13.2437C272.554 16.3 273.887 19.2779 277.256 19.2779ZM287.209 10.3442C287.365 6.97451 289.795 5.48557 293.086 5.48557C295.672 5.48557 298.415 6.26922 298.415 10.1091V17.7889C298.337 18.3375 298.728 18.8077 299.199 18.886C299.277 18.886 299.355 18.886 299.434 18.886C299.59 18.886 299.826 18.8077 299.982 18.8077V20.2966C299.59 20.375 299.199 20.4533 298.807 20.375C297.004 20.375 296.769 19.3562 296.769 17.8673H296.691C295.437 19.7481 294.183 20.7668 291.44 20.7668C288.698 20.7668 286.582 19.4346 286.582 16.5351C286.582 12.4601 290.5 12.3033 294.34 11.9115C295.829 11.7548 296.613 11.5197 296.613 9.95239C296.613 7.60143 294.889 6.97451 292.851 6.97451C290.814 6.97451 289.011 7.99326 289.011 10.3442H287.209ZM296.613 12.4601C296.299 12.8519 295.515 13.0086 295.045 13.087C292.067 13.6356 288.306 13.5572 288.306 16.3783C288.384 18.024 289.795 19.2779 291.44 19.1995H291.519C294.183 19.1995 296.613 17.4755 296.534 14.6543V12.4601H296.613ZM312.129 10.5009C311.58 8.30672 310.327 7.05288 307.976 7.05288C304.606 7.05288 302.882 10.1091 302.882 13.2437C302.882 16.3783 304.527 19.3562 307.976 19.3562C310.248 19.2779 312.051 17.4755 312.207 15.2812H314.01C313.54 18.7293 311.267 20.8452 308.054 20.8452C303.665 20.8452 301.236 17.3187 301.236 13.2437C301.236 9.16874 303.665 5.6423 308.054 5.6423C311.11 5.6423 313.539 7.28797 313.931 10.5793L312.129 10.5009ZM316.439 0.391826H318.241V3.21298H316.439V0.391826ZM316.439 5.95576H318.241V20.375H316.439V5.95576ZM334.463 13.1654C334.463 17.3187 332.034 20.7668 327.645 20.7668C323.257 20.7668 320.827 17.2404 320.827 13.1654C320.827 9.09037 323.257 5.56394 327.645 5.56394C332.034 5.56394 334.541 9.01201 334.463 13.1654ZM322.552 13.1654C322.552 16.2216 324.197 19.2779 327.645 19.2779C331.093 19.2779 332.739 16.2216 332.739 13.1654C332.739 10.1091 331.093 7.05288 327.645 7.05288C324.197 7.05288 322.63 10.1091 322.552 13.1654ZM327.489 3.91826H326L328.977 0H331.172L327.489 3.91826ZM337.127 5.95576H338.851V8.46345H338.93C339.714 6.66105 341.594 5.48557 343.553 5.56394C347.628 5.56394 348.804 7.6798 348.804 11.1279V20.375H347.001V11.363C347.001 8.85528 346.218 6.97451 343.318 6.97451C340.419 6.97451 338.851 9.09037 338.773 11.9115V20.375H337.049V5.95576H337.127ZM244.343 49.2134H242.697V46.6273H242.619C241.679 48.5081 239.719 49.6836 237.604 49.6052C233.999 49.6052 232.51 47.4894 232.51 44.1197V34.7158H234.312V44.1197C234.391 46.7057 235.409 48.1163 238.152 48.1163C241.208 48.1163 242.462 45.2951 242.462 42.3173V34.7942H244.265L244.343 49.2134ZM247.634 34.7942H249.358V37.3019H249.437C250.22 35.4995 252.023 34.324 254.06 34.4024C258.135 34.4024 259.311 36.5182 259.311 39.9663V49.2134H257.508V40.2014C257.508 37.6937 256.725 35.8129 253.825 35.8129C250.926 35.8129 249.358 37.9288 249.28 40.7499V49.135H247.634V34.7942ZM262.68 29.2303H264.404V32.0514H262.68V29.2303ZM262.68 34.7942H264.404V49.2134H262.68V34.7942ZM266.207 34.7942H268.166L272.711 47.4894L277.178 34.7942H278.98L273.573 49.2134H271.692L266.207 34.7942ZM281.802 42.474C281.802 45.06 283.212 48.1163 286.582 48.1163C289.168 48.1163 290.578 46.6273 291.127 44.4331H292.851C292.067 47.7245 290.187 49.6052 286.582 49.6052C281.958 49.6052 280.078 46.0788 280.078 42.0038C280.078 38.2423 282.037 34.4024 286.582 34.4024C291.127 34.4024 293.086 38.4774 292.929 42.474H281.802ZM291.127 40.985C291.049 38.3206 289.403 35.8129 286.503 35.8129C283.604 35.8129 282.037 38.3206 281.723 40.985H291.127ZM295.28 34.7942H296.926V38.1639H297.004C297.788 35.8913 300.061 34.4024 302.49 34.5591V36.3615C299.747 36.1264 297.318 38.1639 297.083 40.9067C297.083 41.1418 297.083 41.3769 297.083 41.5336V49.2134H295.359L295.28 34.7942ZM312.677 39.0259C312.599 36.8317 310.875 35.8913 308.916 35.8913C307.349 35.8913 305.468 36.5182 305.468 38.399C305.468 39.9663 307.27 40.5149 308.446 40.8283L310.797 41.3769C312.834 41.6903 314.95 42.8658 314.95 45.3735C314.95 48.5081 311.815 49.6836 309.151 49.6836C305.781 49.6836 303.509 48.1163 303.195 44.5898H304.998C305.154 46.9408 306.878 48.1946 309.229 48.1946C310.875 48.1946 313.148 47.4894 313.148 45.4519C313.148 43.8062 311.58 43.2576 310.013 42.8658L307.74 42.3956C305.468 41.7687 303.744 40.985 303.744 38.5557C303.744 35.5778 306.643 34.4807 309.151 34.4807C312.051 34.4807 314.323 35.9697 314.402 39.1043L312.677 39.0259ZM317.536 29.2303H319.26V32.0514H317.536V29.2303ZM317.536 34.7942H319.26V49.2134H317.536V34.7942ZM325.451 34.7942H328.429V36.2831H325.451V46.0004C325.451 47.1759 325.608 47.8028 326.862 47.8812C327.332 47.8812 327.88 47.8812 328.351 47.8028V49.2918C327.802 49.2918 327.332 49.3701 326.783 49.3701C324.432 49.3701 323.649 48.5865 323.649 46.1572V36.2831H321.141V34.7942H323.649V30.4841H325.373L325.451 34.7942ZM330.78 39.1826C330.937 35.8129 333.288 34.324 336.657 34.324C339.243 34.324 341.986 35.1076 341.986 38.9475V46.6273C341.908 47.1759 342.3 47.6461 342.77 47.6461C342.848 47.6461 342.926 47.6461 343.005 47.6461C343.162 47.6461 343.397 47.5677 343.553 47.5677V49.0567C343.162 49.135 342.77 49.2134 342.378 49.135C340.576 49.135 340.34 48.1163 340.34 46.6273H340.262C339.008 48.5081 337.754 49.6052 335.012 49.6052C332.269 49.6052 330.153 48.273 330.153 45.3735C330.153 41.2985 334.071 41.2201 337.911 40.7499C339.4 40.5932 340.184 40.3581 340.184 38.7908C340.184 36.4399 338.46 35.8129 336.422 35.8129C334.228 35.8129 332.582 36.8317 332.582 39.1826H330.78ZM340.184 41.2985H340.105C339.87 41.6903 339.087 41.8471 338.616 41.9254C335.639 42.474 331.877 42.3956 331.877 45.2168C331.955 46.8624 333.366 48.1163 335.012 48.0379H335.09C337.754 48.0379 340.184 46.3139 340.105 43.4927L340.184 41.2985ZM345.434 34.7942H347.08V38.1639H347.158C347.942 35.8913 350.214 34.4024 352.644 34.5591V36.3615C349.901 36.1264 347.55 38.1639 347.315 40.9067C347.315 41.1418 347.315 41.2985 347.315 41.5336V49.2134H345.513L345.434 34.7942ZM354.289 29.2303H356.013V32.0514H354.211L354.289 29.2303ZM354.289 34.7942H356.013V49.2134H354.211L354.289 34.7942ZM359.226 39.1826C359.383 35.8129 361.812 34.324 365.104 34.324C367.612 34.324 370.433 35.1076 370.433 38.9475V46.6273C370.354 47.1759 370.668 47.6461 371.216 47.7245C371.295 47.7245 371.373 47.7245 371.451 47.7245C371.608 47.7245 371.843 47.6461 372 47.6461V49.135C371.608 49.2134 371.216 49.2918 370.825 49.2134C369.022 49.2134 368.787 48.1946 368.787 46.7057H368.709C367.455 48.5865 366.201 49.6836 363.458 49.6836C360.715 49.6836 358.6 48.3514 358.6 45.4519C358.6 41.3769 362.518 41.2985 366.358 40.8283C367.847 40.6716 368.63 40.4365 368.63 38.8692C368.63 36.5182 366.906 35.8913 364.869 35.8913C362.831 35.8913 361.029 36.8317 361.029 39.1826H359.226ZM368.63 41.2985C368.317 41.6903 367.533 41.8471 367.063 41.9254C364.085 42.474 360.402 42.3956 360.402 45.2168C360.48 46.8624 361.891 48.1163 363.537 48.0379H363.615C366.279 48.0379 368.709 46.3139 368.63 43.4927V41.2985Z" fill="#1D1D1B"/>
<path d="M26.6442 18.7293C31.5812 18.7293 35.4995 22.726 35.4995 27.5846C35.4995 32.5216 31.5028 36.4399 26.6442 36.4399C21.7072 36.4399 17.7889 32.4433 17.7889 27.5846C17.7889 22.6476 21.7072 18.7293 26.6442 18.7293ZM26.6442 18.7293C31.5812 18.7293 35.4995 14.7327 35.4995 9.87407C35.4995 4.93706 31.5028 1.01879 26.6442 1.01879C21.7072 1.01879 17.7889 5.01543 17.7889 9.87407C17.7889 14.7327 21.7072 18.7293 26.6442 18.7293ZM53.2884 9.79571C53.2884 4.85869 49.2918 0.94043 44.4331 0.94043C39.4961 0.94043 35.5778 4.93706 35.5778 9.79571C35.5778 14.7327 39.5745 18.651 44.4331 18.651C49.2918 18.7293 53.2884 14.7327 53.2884 9.79571ZM8.85528 18.7293C3.99663 18.7293 0 22.6476 0 27.5846C0 32.5216 3.99663 36.4399 8.85528 36.4399C13.7923 36.4399 17.7106 32.4433 17.7106 27.5846C17.7889 22.6476 13.7923 18.7293 8.85528 18.7293ZM26.6442 54.2288C31.5812 54.2288 35.4995 50.2322 35.4995 45.3735C35.4995 40.4365 31.5028 36.5183 26.6442 36.5183C21.7072 36.5183 17.7889 40.5149 17.7889 45.3735C17.7889 50.2322 21.7072 54.2288 26.6442 54.2288ZM53.2884 45.3735C53.2884 40.4365 49.2918 36.5183 44.4331 36.5183C39.4961 36.5183 35.5778 40.5149 35.5778 45.3735C35.5778 50.3106 39.5745 54.2288 44.4331 54.2288C49.2918 54.2288 53.2884 50.2322 53.2884 45.3735ZM213.075 54.3072H214.878V1.01879H213.075V54.3072Z" fill="#EB5D0B"/>
</g>
<defs>
<clipPath id="clip0_10_409">
<rect width="372" height="54.3071" fill="white"/>
</clipPath>
</defs>
</svg>
