<svg width="54" height="372" viewBox="0 0 54 372" fill="none" xmlns="http://www.w3.org/2000/svg">
<path d="M34.0519 119.037C34.0519 118.096 33.8961 117.156 33.5065 116.294C33.1169 115.432 32.6493 114.648 31.9481 114.021L33.7403 114.021L33.7403 111.279L14.4156 111.279L14.4156 113.943L21.1169 113.943C20.4935 114.648 19.948 115.432 19.5584 116.294C19.1688 117.156 19.013 118.175 19.013 119.115C19.013 120.134 19.1688 121.231 19.5584 122.171C20.3377 124.052 21.8182 125.463 23.6883 126.246C24.6234 126.638 25.5584 126.795 26.5714 126.795C28.5974 126.873 30.5455 126.011 31.9481 124.601C33.3506 123.112 34.1299 121.074 34.0519 119.037ZM22.987 122.563C22.0519 121.623 21.5065 120.291 21.5844 118.959C21.5844 117.626 22.1299 116.294 23.0649 115.432C24 114.492 25.3247 113.943 26.7273 113.943C28.0519 113.943 29.2987 114.492 30.1558 115.432C31.0909 116.372 31.6364 117.626 31.6364 118.959C31.6364 121.78 29.4545 124.052 26.6493 124.131C26.5714 124.131 26.5714 124.131 26.4935 124.131C25.1688 124.052 23.8442 123.504 22.987 122.563ZM31.9481 83.2239C32.6493 82.5186 33.1948 81.6566 33.5844 80.7162C33.974 79.7759 34.1299 78.7571 34.1299 77.66C34.1299 76.6412 33.8961 75.6225 33.5065 74.6821C33.1169 73.7417 32.4935 72.8797 31.7143 72.1744C31.013 71.4691 30.2338 70.9989 29.3766 70.6071C27.5065 69.9018 25.4805 69.9018 23.6883 70.6855C22.7532 71.0773 21.8961 71.6259 21.1948 72.3312C20.4935 73.0364 19.8701 73.8985 19.4805 74.8388C19.0909 75.7792 18.9351 76.798 18.9351 77.8951C18.9351 78.9138 19.1688 79.9326 19.5584 80.9513C20.026 81.8917 20.5714 82.7537 21.3506 83.5374C22.0519 84.2427 22.9091 84.7129 23.7662 85.1047C24.7013 85.4965 25.6364 85.6533 26.6494 85.6533C27.5844 85.6533 28.5974 85.4182 29.4545 85.0263C30.4675 84.5561 31.3247 83.9292 31.9481 83.2239ZM22.987 81.3432C22.0519 80.4028 21.5065 79.1489 21.5844 77.8951C21.5844 76.5629 22.0519 75.309 22.987 74.3687C23.9221 73.4283 25.2468 72.8797 26.5714 72.9581C27.8961 72.8797 29.2208 73.4283 30.1558 74.3687C32.1039 76.3278 32.1039 79.4624 30.1558 81.4215C29.2208 82.3619 27.8961 82.8321 26.5714 82.8321C25.2468 82.7537 24 82.2835 22.987 81.3432ZM31.5584 60.8115C31.5584 61.7518 31.3247 62.6922 30.9351 63.4759C30.4675 64.2595 29.7662 64.8865 28.987 65.2783L28.987 68.2562C30.5455 67.786 31.8701 66.7672 32.8052 65.5134C33.7403 64.2595 34.2078 62.6922 34.1299 61.0466C34.1299 59.9494 33.8961 58.9307 33.5065 57.9903C33.1169 57.0499 32.4935 56.1095 31.7143 55.4043C31.013 54.699 30.2338 54.2288 29.2987 53.8369C28.4416 53.4451 27.5065 53.2884 26.5714 53.2884C25.5584 53.2884 24.6234 53.5235 23.6883 53.9153C22.8312 54.3071 21.974 54.8557 21.2727 55.561C20.5714 56.2663 19.9481 57.1283 19.5584 58.0687C19.1688 59.0091 19.013 60.0278 19.013 61.1249C18.9351 62.6922 19.4026 64.3379 20.3377 65.5917C21.3507 66.9239 22.6753 67.8643 24.2338 68.4129L24.2338 65.435C23.3766 65.0432 22.6753 64.4163 22.2078 63.6326C21.7403 62.849 21.5065 61.9869 21.5065 61.0466C21.5065 59.7143 21.974 58.4605 22.9091 57.5201C23.8442 56.5797 25.1688 56.0312 26.4935 56.1095C27.8182 56.1095 29.1429 56.5797 30.0779 57.5201C31.0909 58.3038 31.6364 59.5576 31.5584 60.8115ZM33.8961 102.894C33.8961 101.953 33.7403 100.934 33.2727 100.072C32.8052 99.2888 32.1818 98.6619 31.4026 98.2701C32.1818 97.8782 32.8052 97.2513 33.2727 96.4677C33.6623 95.6056 33.8961 94.6653 33.8961 93.7249C33.8961 93.0196 33.7403 92.2359 33.4286 91.609C33.1169 90.9821 32.5714 90.3552 32.026 89.885L33.7403 89.885L33.7403 87.534L19.4026 87.534L19.4026 90.1201L26.7273 90.1201C28.0519 90.0417 29.2987 90.2768 30.4675 90.9037C31.2468 91.4523 31.7143 92.471 31.6364 93.4898C31.7143 94.4302 31.2468 95.3705 30.4675 95.9191C29.2987 96.546 27.974 96.7811 26.6494 96.7028L19.4026 96.7028L19.4026 99.2888L26.8831 99.2888C28.1299 99.2104 29.4545 99.4455 30.5455 100.072C31.8701 101.326 32.026 103.442 30.7792 104.774C30.7013 104.853 30.7013 104.853 30.6234 104.931C29.7662 105.558 28.7532 105.871 27.7403 105.793L19.4026 105.793L19.4026 108.458L28.1299 108.458C29.6883 108.536 31.2468 107.987 32.3377 106.89C33.5065 105.871 34.0519 104.383 33.8961 102.894ZM31.948 183.453C32.6493 182.748 33.1169 181.964 33.5065 181.102C33.8961 180.24 34.0519 179.221 34.0519 178.281C34.0519 177.262 33.8961 176.244 33.5065 175.225C32.7273 173.422 31.2467 171.933 29.4545 171.15C28.5195 170.758 27.5844 170.601 26.5714 170.601C24.5454 170.523 22.5974 171.385 21.1948 172.874C19.7143 174.363 19.013 176.4 19.013 178.438C19.013 179.378 19.1688 180.319 19.5584 181.181C19.948 182.043 20.4156 182.826 21.1169 183.453L19.4026 183.453L19.4026 186.196L33.7403 186.196L33.7403 183.453L31.948 183.453ZM22.987 182.121C22.0519 181.181 21.5065 179.927 21.5065 178.594C21.4286 175.773 23.6883 173.501 26.4156 173.422C26.4935 173.422 26.5714 173.422 26.5714 173.422C27.8961 173.422 29.1429 173.971 30.0779 174.911C31.013 175.852 31.5584 177.184 31.4805 178.516C31.4805 179.848 30.9351 181.181 30 182.121C29.0649 183.061 27.7403 183.61 26.4156 183.61C25.1688 183.61 23.9221 183.061 22.987 182.121ZM33.4286 193.327C33.1169 192.7 32.5714 192.152 32.026 191.838L33.7403 191.838L33.7403 189.331L19.4026 189.331L19.4026 191.995L27.3506 191.995C28.3636 191.917 29.3766 192.152 30.2338 192.779C30.9351 193.484 31.2467 194.424 31.2467 195.365L33.974 195.365C33.974 194.659 33.8182 193.954 33.4286 193.327ZM27.7403 165.899L28.1299 164.959C28.6753 163.47 29.2987 162.765 30.0779 162.765C30.5454 162.765 30.9351 162.921 31.2467 163.235C31.5584 163.548 31.7143 164.019 31.7143 164.41C31.7143 164.881 31.5584 165.351 31.2467 165.664C30.9351 165.978 30.4675 166.213 30 166.213L30 168.799C31.0909 168.799 32.1818 168.329 33.039 167.545C33.8182 166.683 34.2078 165.586 34.1299 164.489C34.1299 163.313 33.7403 162.216 32.8831 161.354C32.1039 160.492 31.013 160.1 29.9221 160.1C29.2987 160.1 28.6753 160.179 28.1299 160.492C27.5844 160.806 27.1169 161.197 26.7273 161.668C26.3377 162.295 26.026 163 25.7922 163.705C25.6364 164.097 25.5584 164.41 25.4805 164.645C25.3247 165.194 25.013 165.664 24.6234 166.056C24.2338 166.369 23.8442 166.526 23.3766 166.526C22.8312 166.526 22.2857 166.291 21.974 165.899C21.5844 165.507 21.4286 164.881 21.4286 164.332C21.4286 163.705 21.6623 163.078 22.2078 162.686C22.7532 162.216 23.3766 161.981 24.0779 162.059L24.0779 159.552C22.7532 159.552 21.4286 160.022 20.4156 160.962C19.4805 161.824 19.013 163.078 19.0909 164.332C19.0909 165.586 19.5584 166.84 20.3377 167.702C21.1948 168.564 22.3636 169.112 23.5325 169.034C24.4675 169.112 25.4026 168.799 26.1818 168.329C26.8831 167.702 27.5065 166.84 27.7403 165.899ZM31.4026 142.076C32.026 141.449 32.6493 140.666 33.039 139.882C33.4286 139.177 33.7403 138.393 33.8961 137.609C34.1299 136.356 34.1299 135.023 33.7403 133.848C33.4286 132.594 32.7273 131.497 31.8701 130.635C31.1688 129.851 30.3117 129.303 29.3766 128.911C28.4416 128.519 27.4286 128.362 26.4156 128.441C25.4805 128.441 24.5455 128.676 23.6883 129.068C21.8961 129.93 20.4156 131.419 19.7143 133.299C19.3247 134.24 19.0909 135.258 19.0909 136.277C19.0909 137.296 19.2467 138.315 19.5584 139.255C19.8701 140.039 20.2597 140.666 20.8052 141.293L24.4675 141.293C24.5455 141.293 24.7013 141.293 24.5455 141.136C24 140.822 23.5325 140.352 23.0649 139.882C22.2857 139.02 21.7403 137.923 21.6623 136.826C21.5844 135.65 21.8961 134.475 22.5974 133.456L31.1688 142.39L31.4026 142.076ZM24.3117 131.81C25.2468 131.183 26.3377 130.948 27.4286 131.105C28.5195 131.262 29.4545 131.732 30.2338 132.516C31.013 133.299 31.4805 134.24 31.5584 135.337C31.6364 136.512 31.4026 137.609 30.7792 138.55L24.3117 131.81ZM33.974 151.323C33.974 150.54 33.8182 149.756 33.5065 149.051C33.1948 148.345 32.7273 147.719 32.1039 147.17L33.7403 147.17L33.7403 144.584L19.4026 144.584L19.4026 147.327L25.948 147.327C27.974 147.327 29.3766 147.64 30.2338 148.189C31.8701 149.599 31.948 152.107 30.5454 153.753L30.4675 153.831C29.4545 154.536 28.2857 154.85 27.1169 154.693L19.4805 154.693L19.4805 157.357L27.5844 157.357C29.2987 157.514 31.013 156.887 32.3377 155.79C33.5065 154.693 34.1299 153.047 33.974 151.323ZM46.5974 239.719L46.5974 236.898L33.7403 236.898L33.7403 235.096L46.5974 235.096L46.5974 232.667L48.0779 232.667L48.0779 235.096L49.4026 235.096C51.8961 235.096 53.6104 235.801 53.6104 238.622C53.6104 239.092 53.6104 239.641 53.5325 240.111L52.0519 240.111C52.1299 239.719 52.2078 239.249 52.2078 238.857C52.2078 236.898 50.961 236.977 49.4026 236.898L48.1558 236.898L48.1558 239.719L46.5974 239.719ZM33.7403 253.041L33.7403 251.396L36.3117 251.396L36.3117 251.317C34.4416 250.377 33.2727 248.418 33.2727 246.38C33.2727 242.776 35.3766 241.287 38.7273 241.287L48.0779 241.287L48.0779 243.089L38.7273 243.089C36.1558 243.167 34.7532 244.186 34.7532 246.929C34.7532 249.985 37.5584 251.239 40.5195 251.239L48.0779 251.239L48.0779 252.963L33.7403 253.041ZM48.0779 256.333L48.0779 258.135L45.5844 258.135L45.5844 258.214C47.3766 258.997 48.5454 260.8 48.4675 262.837C48.4675 266.912 46.3636 268.088 42.9351 268.088L33.7403 268.088L33.7403 266.364L42.7013 266.364C45.1948 266.364 47.0649 265.58 47.0649 262.68C47.0649 259.781 44.961 258.214 42.1558 258.135L33.7403 258.135L33.7403 256.333L48.0779 256.333ZM33.7403 284.074L33.7403 282.428L36.4675 282.428L36.4675 282.35C34.5974 281.566 33.3506 279.294 33.3506 277.178C33.3506 272.79 36.8571 270.674 40.9091 270.674C44.961 270.674 48.4675 272.79 48.4675 277.178C48.5454 279.372 47.2987 281.331 45.3506 282.193L45.3506 282.272L53.6104 282.272L53.6104 283.996L33.7403 283.996L33.7403 284.074ZM34.8312 277.256C34.8312 281.018 37.948 282.35 40.9091 282.35C43.8701 282.35 46.987 281.018 46.987 277.256C46.987 273.887 43.8701 272.554 40.8312 272.554C37.7922 272.554 34.8312 273.887 34.8312 277.256ZM43.7143 287.209C47.0649 287.365 48.5454 289.795 48.5454 293.086C48.5454 295.672 47.7662 298.415 43.948 298.415L36.3117 298.415C35.7662 298.337 35.2987 298.728 35.2208 299.199C35.2208 299.277 35.2208 299.355 35.2208 299.434C35.2208 299.59 35.2987 299.826 35.2987 299.982L33.8182 299.982C33.7403 299.59 33.6623 299.199 33.7403 298.807C33.7403 297.004 34.7532 296.769 36.2338 296.769L36.2338 296.691C34.3636 295.437 33.3506 294.183 33.3506 291.44C33.3506 288.698 34.6753 286.582 37.5584 286.582C41.6104 286.582 41.7662 290.5 42.1558 294.34C42.3117 295.829 42.5454 296.613 44.1039 296.613C46.4415 296.613 47.0649 294.889 47.0649 292.851C47.0649 290.814 46.0519 289.011 43.7143 289.011L43.7143 287.209ZM41.6104 296.613C41.2208 296.299 41.0649 295.515 40.987 295.045C40.4415 292.067 40.5195 288.306 37.7143 288.306C36.0779 288.384 34.8312 289.795 34.9091 291.44L34.9091 291.519C34.9091 294.183 36.6234 296.613 39.4286 296.534L41.6104 296.534L41.6104 296.613ZM43.5584 312.129C45.7402 311.58 46.987 310.327 46.987 307.976C46.987 304.606 43.948 302.882 40.8312 302.882C37.7143 302.882 34.7532 304.527 34.7532 307.976C34.8312 310.248 36.6234 312.051 38.8052 312.207L38.8052 314.01C35.3766 313.54 33.2727 311.267 33.2727 308.054C33.2727 303.665 36.7792 301.236 40.8312 301.236C44.8831 301.236 48.3896 303.665 48.3896 308.054C48.3896 311.11 46.7532 313.539 43.4805 313.931L43.5584 312.129ZM53.6104 316.439L53.6104 318.241L50.8052 318.241L50.8052 316.439L53.6104 316.439ZM48.0779 316.439L48.0779 318.241L33.7402 318.241L33.7402 316.439L48.0779 316.439ZM40.9091 334.463C36.7792 334.463 33.3506 332.034 33.3506 327.645C33.3506 323.257 36.8571 320.827 40.9091 320.827C44.961 320.827 48.4675 323.257 48.4675 327.645C48.4675 332.034 45.039 334.541 40.9091 334.463ZM40.9091 322.552C37.8701 322.552 34.8312 324.197 34.8312 327.645C34.8312 331.093 37.8701 332.739 40.9091 332.739C43.948 332.739 46.987 331.093 46.987 327.645C46.987 324.197 43.948 322.63 40.9091 322.552ZM50.1039 327.489L50.1039 326L54 328.977L54 331.172L50.1039 327.489ZM48.0779 337.127L48.0779 338.851L45.5844 338.851L45.5844 338.93C47.3766 339.714 48.5454 341.594 48.4675 343.553C48.4675 347.628 46.3636 348.804 42.9351 348.804L33.7402 348.804L33.7402 347.001L42.7013 347.001C45.1948 347.001 47.0649 346.218 47.0649 343.318C47.0649 340.419 44.961 338.851 42.1558 338.773L33.7402 338.773L33.7402 337.049L48.0779 337.127ZM5.06493 244.343L5.06493 242.697L7.63636 242.697L7.63636 242.619C5.76623 241.679 4.5974 239.719 4.67532 237.604C4.67532 233.999 6.77921 232.51 10.1299 232.51L19.4805 232.51L19.4805 234.312L10.1299 234.312C7.55844 234.391 6.15584 235.409 6.15584 238.152C6.15584 241.208 8.96103 242.462 11.9221 242.462L19.4026 242.462L19.4026 244.265L5.06493 244.343ZM19.4026 247.634L19.4026 249.358L16.9091 249.358L16.9091 249.437C18.7013 250.22 19.8701 252.023 19.7922 254.06C19.7922 258.135 17.6883 259.311 14.2597 259.311L5.06493 259.311L5.06493 257.508L14.026 257.508C16.5195 257.508 18.3896 256.725 18.3896 253.825C18.3896 250.926 16.2857 249.358 13.4805 249.28L5.14285 249.28L5.14285 247.634L19.4026 247.634ZM24.9351 262.68L24.9351 264.404L22.1299 264.404L22.1299 262.68L24.9351 262.68ZM19.4026 262.68L19.4026 264.404L5.06493 264.404L5.06493 262.68L19.4026 262.68ZM19.4026 266.207L19.4026 268.166L6.77921 272.711L19.4026 277.178L19.4026 278.98L5.06493 273.573L5.06493 271.692L19.4026 266.207ZM11.7662 281.802C9.1948 281.802 6.15584 283.212 6.15584 286.582C6.15584 289.168 7.63635 290.578 9.81817 291.127L9.81817 292.851C6.54545 292.067 4.67532 290.187 4.67532 286.582C4.67532 281.958 8.18181 280.078 12.2338 280.078C15.974 280.078 19.7922 282.037 19.7922 286.582C19.7922 291.127 15.7403 293.086 11.7662 292.929L11.7662 281.802ZM13.2467 291.127C15.8961 291.049 18.3896 289.403 18.3896 286.503C18.3896 283.604 15.8961 282.037 13.2467 281.723L13.2467 291.127ZM19.4026 295.28L19.4026 296.926L16.0519 296.926L16.0519 297.004C18.3117 297.788 19.7922 300.061 19.6364 302.49L17.8441 302.49C18.0779 299.747 16.0519 297.318 13.3247 297.083C13.0909 297.083 12.8571 297.083 12.7013 297.083L5.06493 297.083L5.06493 295.359L19.4026 295.28ZM15.1948 312.677C17.3766 312.599 18.3117 310.875 18.3117 308.916C18.3117 307.349 17.6883 305.468 15.8182 305.468C14.2597 305.468 13.7143 307.27 13.4026 308.446L12.8571 310.797C12.5454 312.834 11.3766 314.95 8.88311 314.95C5.76622 314.95 4.59739 311.815 4.59739 309.151C4.59739 305.781 6.15583 303.509 9.66233 303.195L9.66233 304.998C7.32467 305.154 6.07791 306.878 6.07791 309.229C6.07791 310.875 6.77921 313.148 8.80518 313.148C10.4415 313.148 10.987 311.58 11.3766 310.013L11.8441 307.74C12.4675 305.468 13.2467 303.744 15.6623 303.744C18.6234 303.744 19.7143 306.643 19.7143 309.151C19.7143 312.051 18.2338 314.323 15.1169 314.402L15.1948 312.677ZM24.9351 317.536L24.9351 319.26L22.1299 319.26L22.1299 317.536L24.9351 317.536ZM19.4026 317.536L19.4026 319.26L5.06493 319.26L5.06493 317.536L19.4026 317.536ZM19.4026 325.451L19.4026 328.429L17.9221 328.429L17.9221 325.451L8.25973 325.451C7.0909 325.451 6.46752 325.608 6.3896 326.862C6.3896 327.332 6.3896 327.88 6.46752 328.351L4.987 328.351C4.987 327.802 4.90908 327.332 4.90908 326.783C4.90908 324.432 5.6883 323.649 8.10389 323.649L17.9221 323.649L17.9221 321.141L19.4026 321.141L19.4026 323.649L23.6883 323.649L23.6883 325.373L19.4026 325.451ZM15.039 330.78C18.3896 330.937 19.8701 333.288 19.8701 336.657C19.8701 339.243 19.0909 341.986 15.2727 341.986L7.63635 341.986C7.0909 341.908 6.62337 342.3 6.62337 342.77C6.62337 342.848 6.62337 342.926 6.62337 343.005C6.62337 343.162 6.70129 343.397 6.70129 343.553L5.22077 343.553C5.14285 343.162 5.06492 342.77 5.14284 342.378C5.14284 340.576 6.15583 340.34 7.63635 340.34L7.63635 340.262C5.76622 339.008 4.67531 337.754 4.67531 335.012C4.67532 332.269 5.99999 330.153 8.88311 330.153C12.9351 330.153 13.013 334.071 13.4805 337.911C13.6364 339.4 13.8701 340.184 15.4286 340.184C17.7662 340.184 18.3896 338.46 18.3896 336.422C18.3896 334.228 17.3766 332.582 15.039 332.582L15.039 330.78ZM12.9351 340.184L12.9351 340.105C12.5454 339.87 12.3896 339.087 12.3117 338.616C11.7662 335.639 11.8441 331.877 9.03895 331.877C7.40259 331.955 6.15583 333.366 6.23376 335.012L6.23376 335.09C6.23376 337.754 7.94804 340.184 10.7532 340.105L12.9351 340.184ZM19.4026 345.434L19.4026 347.08L16.0519 347.08L16.0519 347.158C18.3117 347.942 19.7922 350.214 19.6364 352.644L17.8441 352.644C18.0779 349.901 16.0519 347.55 13.3247 347.315C13.0909 347.315 12.9351 347.315 12.7013 347.315L5.06492 347.315L5.06492 345.513L19.4026 345.434ZM24.9351 354.289L24.9351 356.013L22.1299 356.013L22.1299 354.211L24.9351 354.289ZM19.4026 354.289L19.4026 356.013L5.06492 356.013L5.06492 354.211L19.4026 354.289ZM15.0389 359.226C18.3896 359.383 19.8701 361.812 19.8701 365.104C19.8701 367.612 19.0909 370.433 15.2727 370.433L7.63635 370.433C7.0909 370.354 6.62336 370.668 6.54544 371.216C6.54544 371.295 6.54544 371.373 6.54544 371.451C6.54544 371.608 6.62336 371.843 6.62336 372L5.14284 372C5.06492 371.608 4.987 371.216 5.06492 370.825C5.06492 369.022 6.07791 368.787 7.55843 368.787L7.55843 368.709C5.6883 367.455 4.59739 366.201 4.59739 363.458C4.59739 360.715 5.92206 358.6 8.80518 358.6C12.8571 358.6 12.9351 362.518 13.4026 366.358C13.5584 367.847 13.7922 368.63 15.3506 368.63C17.6883 368.63 18.3117 366.906 18.3117 364.869C18.3117 362.831 17.3766 361.029 15.0389 361.029L15.0389 359.226ZM12.9351 368.63C12.5454 368.317 12.3896 367.533 12.3117 367.063C11.7662 364.085 11.8441 360.402 9.03895 360.402C7.40259 360.48 6.15583 361.891 6.23375 363.537L6.23375 363.615C6.23375 366.279 7.94804 368.709 10.7532 368.63L12.9351 368.63Z" fill="white"/>
<path d="M35.3766 26.6442C35.3766 31.5812 31.4026 35.4995 26.5714 35.4995C21.6623 35.4995 17.7662 31.5028 17.7662 26.6442C17.7662 21.7072 21.7403 17.7889 26.5714 17.7889C31.4805 17.7889 35.3766 21.7072 35.3766 26.6442ZM35.3766 26.6442C35.3766 31.5812 39.3507 35.4995 44.1818 35.4995C49.0909 35.4995 52.987 31.5028 52.987 26.6442C52.987 21.7072 49.013 17.7889 44.1818 17.7889C39.3507 17.7889 35.3766 21.7072 35.3766 26.6442ZM44.2597 53.2884C49.1688 53.2884 53.0649 49.2918 53.0649 44.4331C53.0649 39.4961 49.0909 35.5778 44.2597 35.5778C39.3507 35.5778 35.4546 39.5745 35.4546 44.4331C35.3766 49.2918 39.3507 53.2884 44.2597 53.2884ZM35.3766 8.85528C35.3766 3.99663 31.4805 -9.43485e-07 26.5714 -1.15807e-06C21.6623 -1.37265e-06 17.7662 3.99663 17.7662 8.85528C17.7662 13.7923 21.7403 17.7106 26.5714 17.7106C31.4805 17.7889 35.3766 13.7923 35.3766 8.85528ZM0.0779293 26.6442C0.0779291 31.5812 4.05195 35.4995 8.88312 35.4995C13.7922 35.4995 17.6883 31.5028 17.6883 26.6442C17.6883 21.7072 13.7143 17.7889 8.88312 17.7889C4.05196 17.7889 0.0779295 21.7072 0.0779293 26.6442ZM8.88312 53.2884C13.7922 53.2884 17.6883 49.2918 17.6883 44.4331C17.6883 39.4961 13.7143 35.5778 8.88312 35.5778C3.97403 35.5778 0.0779287 39.5745 0.0779285 44.4331C0.0779283 49.2918 4.05195 53.2884 8.88312 53.2884ZM-5.49911e-06 213.075L-5.5779e-06 214.878L52.987 214.878L52.987 213.075L-5.49911e-06 213.075Z" fill="white"/>
</svg>
